<svg width="62" height="62" viewBox="0 0 62 62" fill="none" xmlns="http://www.w3.org/2000/svg">
<circle cx="31" cy="31" r="31" fill="#54A5FF"/>
<path d="M26.8984 20.0003H33.9092L26.6315 41.5636C26.5567 41.7853 26.4143 41.9779 26.2243 42.1143C26.0343 42.2507 25.8063 42.3241 25.5724 42.3241H20.1164C19.9392 42.324 19.7645 42.2819 19.6069 42.201C19.4492 42.1201 19.313 42.0029 19.2096 41.859C19.1062 41.7151 19.0386 41.5486 19.0123 41.3734C18.9861 41.1981 19.002 41.0191 19.0587 40.8512L25.8393 20.7606C25.9141 20.539 26.0565 20.3464 26.2465 20.21C26.4365 20.0736 26.6645 20.0001 26.8984 20V20.0003Z" fill="white"/>
<path d="M37.0859 34.4639H25.9684C25.8651 34.4637 25.764 34.4946 25.6785 34.5527C25.593 34.6108 25.5269 34.6933 25.489 34.7895C25.4511 34.8856 25.443 34.991 25.4658 35.0918C25.4887 35.1927 25.5414 35.2843 25.6171 35.3547L32.7608 42.0226C32.9689 42.2164 33.2427 42.3243 33.5271 42.3244H39.8222L37.0859 34.4639Z" fill="white"/>
<path d="M26.8986 20C26.6621 19.999 26.4315 20.0737 26.2405 20.2132C26.0495 20.3526 25.9082 20.5495 25.8371 20.7751L19.0673 40.8326C19.0069 41.0011 18.988 41.1817 19.0121 41.3591C19.0362 41.5364 19.1027 41.7054 19.2059 41.8516C19.3091 41.9979 19.446 42.1171 19.605 42.1993C19.7641 42.2815 19.9405 42.3241 20.1195 42.3237H25.7165C25.9249 42.2865 26.1198 42.1946 26.2811 42.0574C26.4424 41.9203 26.5644 41.7427 26.6346 41.5429L27.9845 37.5642L32.8069 42.062C33.009 42.2291 33.2624 42.3216 33.5246 42.3237H39.7964L37.0456 34.4632L29.0271 34.4651L33.9348 20H26.8986Z" fill="url(#paint0_linear_412_3160)"/>
<path d="M35.8535 20.7592C35.7787 20.538 35.6364 20.3457 35.4467 20.2095C35.257 20.0733 35.0293 20 34.7958 20H26.9824C27.2159 20.0001 27.4436 20.0734 27.6333 20.2096C27.823 20.3458 27.9652 20.538 28.0399 20.7592L34.8207 40.8507C34.8775 41.0186 34.8935 41.1977 34.8673 41.373C34.8411 41.5483 34.7735 41.7148 34.6702 41.8588C34.5668 42.0028 34.4306 42.1201 34.2729 42.201C34.1152 42.2819 33.9405 42.3241 33.7632 42.3241H41.5769C41.7541 42.3239 41.9287 42.2816 42.0863 42.2007C42.2439 42.1197 42.38 42.0024 42.4833 41.8585C42.5866 41.7145 42.6542 41.5481 42.6804 41.3728C42.7067 41.1976 42.6909 41.0186 42.6342 40.8507L35.8535 20.7592Z" fill="white"/>
<defs>
<linearGradient id="paint0_linear_412_3160" x1="31.7282" y1="31.6781" x2="30.0441" y2="32.2475" gradientUnits="userSpaceOnUse">
<stop stop-opacity="0.3"/>
<stop offset="0.071" stop-opacity="0.2"/>
<stop offset="0.321" stop-opacity="0.1"/>
<stop offset="0.623" stop-opacity="0.05"/>
<stop offset="1" stop-opacity="0"/>
</linearGradient>
</defs>
</svg>
