<svg width="55" height="62" viewBox="0 0 55 62" fill="none" xmlns="http://www.w3.org/2000/svg">
<path d="M53.66 14.286C51.3529 10.6729 46.3919 9.17189 39.7073 10.0334C39.4712 10.0611 39.2209 10.1029 38.9848 10.1306C38.8876 9.90853 38.7904 9.68597 38.6791 9.46394C35.8026 3.36292 31.8697 0 27.5894 0C23.3091 0 19.3626 3.36292 16.4996 9.46394C16.4025 9.68597 16.2912 9.90853 16.194 10.1306C15.9438 10.0893 15.7076 10.0611 15.4715 10.0334C8.77333 9.15778 3.82585 10.6729 1.51876 14.286C-0.787785 17.8992 -0.0793734 23.0269 3.50611 28.7246C3.97893 29.4753 4.493 30.2256 5.04887 30.9622C4.493 31.7124 3.97893 32.449 3.50611 33.1993C-0.0793734 38.8969 -0.787785 44.0388 1.51876 47.6384C3.39483 50.5844 7.03623 52.1271 11.9414 52.1271C13.1172 52.1206 14.2913 52.0419 15.4574 51.8905C15.6935 51.8628 15.9438 51.821 16.1799 51.7933C16.2776 52.0159 16.3748 52.2379 16.4861 52.4604C19.3626 58.5609 23.2955 61.9244 27.5753 61.9244C31.8556 61.9244 35.8026 58.5609 38.665 52.4604C38.7622 52.2379 38.8735 52.0159 38.9707 51.7933C39.2209 51.8351 39.457 51.8628 39.6937 51.8905C40.8587 52.0484 42.0334 52.1271 43.2092 52.1271C48.1149 52.1271 51.7557 50.5844 53.6318 47.6384C55.9389 44.0252 55.2299 38.8969 51.645 33.1993C51.1722 32.449 50.6581 31.6988 50.1022 30.9622C50.6581 30.2114 51.1722 29.4753 51.645 28.7246C55.2717 23.0133 55.9807 17.8851 53.66 14.286ZM19.0152 10.6452C21.3635 5.64232 24.4903 2.77936 27.5894 2.77936C30.6885 2.77936 33.8153 5.64232 36.1636 10.6452C36.1652 10.6555 36.1701 10.6653 36.1777 10.6729C33.2257 11.3829 30.3465 12.3644 27.5753 13.6048C24.8073 12.3584 21.927 11.3764 18.9734 10.6729C19.0011 10.6729 19.0011 10.6587 19.0152 10.6452ZM40.1106 30.9622C40.1112 33.1857 39.9907 35.4081 39.7491 37.6185C38.0169 39.0164 36.2076 40.3154 34.3293 41.5097C32.1618 42.9015 29.9057 44.1506 27.5753 45.2482C25.2497 44.1419 22.9937 42.8934 20.8218 41.5097C18.9457 40.3121 17.1364 39.0131 15.402 37.6185C14.92 33.1938 14.92 28.73 15.402 24.3053C19.1476 21.2952 23.2336 18.7346 27.5753 16.6762C29.9014 17.7819 32.1569 19.0305 34.3293 20.4142C36.2054 21.6117 38.0147 22.9107 39.7491 24.3053C39.9907 26.5163 40.1112 28.7382 40.1106 30.9622ZM42.7646 26.918C44.1255 28.1856 45.4066 29.5361 46.6003 30.9622C45.4066 32.3877 44.1255 33.7383 42.7646 35.0058C42.8482 33.6721 42.89 32.3242 42.89 30.9622C42.89 29.6002 42.8482 28.2523 42.7646 26.918ZM39.1791 41.5656C38.7405 43.9715 38.1037 46.3372 37.2754 48.6388C35.117 48.1514 32.9988 47.501 30.9387 46.6933C32.5781 45.8318 34.2181 44.8867 35.8439 43.8585C36.9838 43.1219 38.0956 42.3576 39.1791 41.5656ZM24.24 46.6933C22.1837 47.5113 20.0645 48.1622 17.9034 48.6388C17.075 46.3372 16.4383 43.9715 15.9997 41.5656C17.0696 42.3576 18.1814 43.1219 19.3349 43.8444C20.9607 44.8867 22.6007 45.8318 24.24 46.6933ZM12.4142 35.0058C11.0533 33.7383 9.7727 32.3877 8.57845 30.9622C9.7727 29.5361 11.0533 28.1856 12.4142 26.918C12.3306 28.2523 12.2888 29.6002 12.2888 30.9622C12.2888 32.3242 12.3306 33.6721 12.4142 35.0058ZM15.9997 20.3588C16.4383 17.9524 17.075 15.5867 17.9034 13.2856C20.0618 13.7725 22.1805 14.4228 24.24 15.2311C22.6007 16.0926 20.9607 17.0377 19.3349 18.0658C18.1949 18.8025 17.0832 19.5668 15.9997 20.3588ZM35.8303 18.0658C34.2181 17.0377 32.5781 16.0785 30.9246 15.2311C32.9809 14.4131 35.1002 13.7622 37.2618 13.2856C38.0896 15.5867 38.7264 17.9524 39.1655 20.3588C38.0956 19.5668 36.9838 18.8025 35.8303 18.0658ZM5.855 27.2377C2.90844 22.5682 2.18591 18.3856 3.85353 15.7729C5.18784 13.6884 8.07849 12.5625 11.9832 12.5625C13.0287 12.5668 14.0731 12.6369 15.1099 12.7709H15.1376C14.0134 16.04 13.2312 19.4164 12.8034 22.8461C10.6619 24.6326 8.66802 26.5896 6.84135 28.6969C6.49393 28.2246 6.16062 27.7382 5.855 27.2377ZM15.0964 49.1393C14.0595 49.274 13.0151 49.3434 11.9696 49.3478C8.06437 49.3478 5.17373 48.236 3.83996 46.1374C2.17234 43.5247 2.89487 39.3421 5.84088 34.6725C6.1465 34.1861 6.48035 33.6856 6.82777 33.1993C8.6539 35.3071 10.6478 37.2635 12.7893 39.05C13.2176 42.4803 13.9998 45.8568 15.1241 49.1252C15.1241 49.1393 15.1099 49.1393 15.0964 49.1393ZM36.1636 51.2792C33.8153 56.2821 30.6885 59.145 27.5894 59.145C24.4903 59.145 21.3635 56.2821 19.0152 51.2792C19.0135 51.2689 19.0087 51.2591 19.0011 51.2515C21.953 50.5415 24.8323 49.56 27.6035 48.3191C30.3715 49.566 33.2518 50.548 36.2054 51.2515C36.1777 51.2515 36.1777 51.2651 36.1636 51.2792ZM49.3238 34.6866C52.2703 39.3557 52.9929 43.5388 51.3252 46.1515C49.6576 48.7637 45.5581 49.8619 40.0824 49.1393H40.0547C41.1789 45.8703 41.9617 42.4938 42.3895 39.0641C44.531 37.2776 46.5249 35.3207 48.351 33.2134C48.6848 33.6998 49.0182 34.1861 49.3238 34.6866ZM42.3754 22.8602C41.9476 19.43 41.1654 16.0535 40.0411 12.7851H40.0688C45.544 12.0761 49.6435 13.1602 51.3111 15.7729C52.9787 18.3856 52.2562 22.5682 49.3102 27.2377C49.0046 27.7241 48.6707 28.2246 48.3233 28.711C46.5053 26.5999 44.5158 24.6429 42.3754 22.8602Z" fill="url(#paint0_linear_200_6299)"/>
<path d="M27.5893 25.459C24.5499 25.459 22.0859 27.923 22.0859 30.9623C22.0859 34.0017 24.5499 36.4651 27.5893 36.4651C30.6287 36.4651 33.0926 34.0017 33.0926 30.9623C33.0905 27.9235 30.6276 25.4612 27.5893 25.459ZM27.5893 33.6858C26.0851 33.6858 24.8653 32.4666 24.8653 30.9623C24.8653 29.4581 26.0851 28.2383 27.5893 28.2383C29.0935 28.2383 30.3133 29.4581 30.3133 30.9623C30.3106 32.4655 29.0924 33.6836 27.5893 33.6858Z" fill="url(#paint1_linear_200_6299)"/>
<defs>
<linearGradient id="paint0_linear_200_6299" x1="27.5936" y1="-2.39025" x2="27.5936" y2="64.9827" gradientUnits="userSpaceOnUse">
<stop stop-color="#00EFD1"/>
<stop offset="1" stop-color="#00ACEA"/>
</linearGradient>
<linearGradient id="paint1_linear_200_6299" x1="27.5893" y1="-2.39011" x2="27.5893" y2="64.9829" gradientUnits="userSpaceOnUse">
<stop stop-color="#00EFD1"/>
<stop offset="1" stop-color="#00ACEA"/>
</linearGradient>
</defs>
</svg>
