<svg xmlns="http://www.w3.org/2000/svg" width="54" height="61" viewBox="0 0 54 61" fill="none">
<path d="M10.6075 18.7344V44.9703C10.6075 47.0194 11.838 48.6269 13.9468 48.6269H16.6998C16.6053 48.6269 16.3932 49.3221 16.3932 49.6635V57.0942C16.3932 59.0362 18.2552 60.6109 20.2503 60.6109C22.2463 60.6109 24.1074 59.0362 24.1074 57.0942V49.6635C24.1074 49.3221 23.7352 48.6269 23.6436 48.6269H30.3588C30.2672 48.6269 29.893 49.3221 29.893 49.6635V57.0942C29.893 59.0362 31.7512 60.6109 33.7463 60.6109C35.7462 60.6109 37.6072 59.0362 37.6072 57.0942V49.6635C37.6072 49.3221 37.396 48.6269 37.3015 48.6269H40.0584C42.1673 48.6269 43.3929 47.0194 43.3929 44.9703V18.7344H10.3867H10.6075Z" fill="#57C927"/>
<path d="M3.8571 19.1621C1.86008 19.1621 0 20.7377 0 22.6788V37.736C0 39.678 1.86008 41.2527 3.8571 41.2527C5.85314 41.2527 7.71419 39.678 7.71419 37.736V22.6798C7.71419 20.7377 5.85314 19.1621 3.8571 19.1621Z" fill="#57C927"/>
<path d="M35.3003 5.0693L35.9734 4.08188L36.6474 3.10604L38.1488 0.912315C38.3368 0.64039 38.2587 0.277823 37.9819 0.0994323C37.7081 -0.0828155 37.3291 -0.00663787 37.1498 0.263359L34.8577 3.60264L34.1682 4.60838C31.9899 3.78489 29.5629 3.32589 26.9989 3.32589C24.4406 3.32589 22.0087 3.78585 19.8304 4.60838L19.1448 3.6036L18.467 2.61715L16.8566 0.265287C16.6705 -0.00567358 16.2964 -0.0770298 16.0187 0.101361C15.7438 0.280716 15.6677 0.643283 15.8509 0.914244L17.3513 3.10893L18.0253 4.08574L18.7022 5.07026C13.5877 7.38934 10.127 11.9851 10.127 16.8064H43.8717C43.8717 11.9851 40.4119 7.38934 35.3003 5.0693ZM19.7678 12.1249C18.7659 12.1249 17.9588 11.3371 17.9588 10.3641C17.9588 9.39118 18.7659 8.60722 19.7678 8.60722C20.7668 8.60722 21.5758 9.39118 21.5758 10.3641C21.5758 11.3371 20.7677 12.1249 19.7678 12.1249ZM34.2319 12.1249C33.231 12.1249 32.4219 11.3371 32.4219 10.3641C32.4219 9.39118 33.231 8.60722 34.2319 8.60722C35.2309 8.60722 36.0399 9.39118 36.0399 10.3641C36.0399 11.3371 35.2309 12.1249 34.2319 12.1249Z" fill="#57C927"/>
<path d="M4.02874 27.0226C2.52543 27.0226 0.964274 25.6041 0 23.3545V37.7366C0 39.6787 1.86008 41.2533 3.8571 41.2533C5.85314 41.2533 7.71419 39.6787 7.71419 37.7366V24.1047C6.74992 25.9117 5.35558 27.0226 4.02874 27.0226Z" fill="#1CB71C"/>
<path d="M50.1423 19.1621C48.1452 19.1621 46.2852 20.7377 46.2852 22.6788V37.736C46.2852 39.678 48.1452 41.2527 50.1423 41.2527C52.1383 41.2527 53.9993 39.678 53.9993 37.736V22.6798C53.9993 20.7377 52.1383 19.1621 50.1423 19.1621Z" fill="#57C927"/>
<path d="M50.3139 27.0226C48.8106 27.0226 47.2494 25.6041 46.2852 23.3545V37.7366C46.2852 39.6787 48.1452 41.2533 50.1423 41.2533C52.1383 41.2533 53.9993 39.6787 53.9993 37.7366V24.1047C53.0351 25.9117 51.6407 27.0226 50.3139 27.0226Z" fill="#1CB71C"/>
<path d="M26.9981 21.6163C19.3707 21.6163 12.534 20.734 10.6055 19.4814V44.9711C10.6055 47.0201 11.8359 48.6276 13.9447 48.6276H16.6978C16.6033 48.6276 16.3911 49.3228 16.3911 49.6642V57.0949C16.3911 59.0369 18.2531 60.6116 20.2482 60.6116C22.2443 60.6116 24.1053 59.0369 24.1053 57.0949V49.6642C24.1053 49.3228 23.7331 48.6276 23.6415 48.6276H30.3567C30.2651 48.6276 29.8909 49.3228 29.8909 49.6642V57.0949C29.8909 59.0369 31.7491 60.6116 33.7442 60.6116C35.7441 60.6116 37.6051 59.0369 37.6051 57.0949V49.6642C37.6051 49.3228 37.394 48.6276 37.2995 48.6276H40.0563C42.1652 48.6276 43.3908 47.0201 43.3908 44.9711V19.4805C41.4622 20.7331 34.6265 21.6163 26.9981 21.6163Z" fill="#1CB71C"/>
<path d="M36.0399 10.3627C36.0399 11.3357 35.2309 12.1235 34.2319 12.1235C33.231 12.1235 32.4219 11.3357 32.4219 10.3627C32.4219 9.83524 32.664 9.3695 33.041 9.04743C31.1346 8.72922 29.1068 8.55469 26.9989 8.55469C24.891 8.55469 22.864 8.72922 20.9567 9.04743C21.3347 9.36854 21.5767 9.83524 21.5767 10.3627C21.5767 11.3357 20.7677 12.1235 19.7687 12.1235C18.7668 12.1235 17.9598 11.3357 17.9598 10.3627C17.9598 10.1139 18.0147 9.87767 18.1102 9.66264C15.2193 10.4225 12.7353 11.5314 10.8608 12.8939C10.3883 14.1349 10.127 15.8417 10.127 16.806H43.8717C43.8717 15.8417 43.6104 14.1359 43.1389 12.8958C41.2653 11.5314 38.7804 10.4206 35.8914 9.66071C35.9859 9.87574 36.0399 10.1149 36.0399 10.3627Z" fill="#1CB71C"/>
<path d="M27.0001 31.6786C20.5038 31.6786 14.4645 30.3971 10.6074 28.2969V44.9711C10.6074 47.0202 11.8378 48.6276 13.9467 48.6276H16.6997C16.6052 48.6276 16.3931 49.3229 16.3931 49.6642V57.0949C16.3931 59.037 18.2551 60.6116 20.2502 60.6116C22.2462 60.6116 24.1073 59.037 24.1073 57.0949V49.6642C24.1073 49.3229 23.735 48.6276 23.6434 48.6276H30.3586C30.267 48.6276 29.8929 49.3229 29.8929 49.6642V57.0949C29.8929 59.037 31.7511 60.6116 33.7461 60.6116C35.746 60.6116 37.6071 59.037 37.6071 57.0949V49.6642C37.6071 49.3229 37.3959 48.6276 37.3014 48.6276H40.0583C42.1671 48.6276 43.3927 47.0202 43.3927 44.9711V28.2969C39.5356 30.398 33.4964 31.6786 27.0001 31.6786Z" fill="#049E42"/>
</svg>