<svg width="52" height="61" viewBox="0 0 52 61" fill="none" xmlns="http://www.w3.org/2000/svg">
<path d="M34.5407 9.86443C36.5574 7.30749 38.0859 3.69096 37.5329 0C34.2358 0.225238 30.3857 2.29742 28.1378 4.99832C26.0882 7.44655 24.4043 11.0856 25.0629 14.6209C28.6659 14.7315 32.3845 12.6094 34.5407 9.86443Z" fill="white"/>
<path d="M50.2379 20.287C47.1229 16.3593 42.7422 14.083 38.6059 14.083C33.1469 14.083 30.8364 16.7093 27.0454 16.7093C23.1337 16.7093 20.1629 14.0909 15.4408 14.0909C10.8011 14.0909 5.86122 16.94 2.73049 21.8101C-1.67078 28.6707 -0.920227 41.5637 6.21737 52.5481C8.76924 56.4797 12.1766 60.8963 16.6358 60.9367C20.6044 60.9762 21.7239 58.3794 27.1013 58.3498C32.4768 58.3183 33.4982 60.9702 37.4589 60.9249C41.921 60.8894 45.5178 55.9937 48.0687 52.0621C49.8975 49.2465 50.5803 47.8258 52 44.6455C41.6748 40.6991 40.0196 25.9488 50.2379 20.287Z" fill="#1B546B"/>
<path d="M43.9703 27.8965C36.1637 34.2407 25.1271 38.2049 12.8774 38.2049C8.48833 38.2049 4.25428 37.6946 0.269531 36.7508C0.943799 41.8991 2.86551 47.4316 6.19955 52.5552C8.75235 56.4839 12.161 60.8973 16.6217 60.9377C20.5918 60.9771 21.7116 58.3823 27.091 58.3527C32.4685 58.3212 33.4902 60.9712 37.4524 60.9259C41.9161 60.8904 45.5141 55.9983 48.066 52.0696C49.8954 49.256 50.5785 47.8365 51.9987 44.6585C44.9753 41.9789 41.9681 34.3116 43.9703 27.8965Z" fill="white"/>
</svg>
