<svg width="507" height="78" viewBox="0 0 507 78" fill="none" xmlns="http://www.w3.org/2000/svg">
<path d="M26.1797 38.9998C26.1797 31.8202 31.9999 26 39.1795 26C46.3591 26 52.1793 31.8204 52.1793 38.9998C52.1793 46.1796 46.3589 51.9996 39.1795 51.9996C31.9998 51.9996 26.1797 46.1794 26.1797 38.9998Z" fill="#00BCFF"/>
<path d="M0.183594 65.0011C0.183594 57.8216 6.00383 52.0013 13.1834 52.0013L20.1112 48.3438L26.1832 52.0013V65.0011C26.1832 72.1809 20.363 78.001 13.1834 78.001C6.00383 78.001 0.183594 72.1807 0.183594 65.0011Z" fill="#00CF7F"/>
<path d="M26.1832 0L19.1094 12.2894L26.1832 25.9996H39.0007C46.1804 25.9996 52.0005 20.1794 52.0005 12.9998C52.0005 5.82023 46.1803 0 39.0007 0H26.1832Z" fill="#FF7361"/>
<path d="M0 12.9998C0 20.1794 5.82023 25.9996 12.9998 25.9996L19.8959 28.6632L26.182 25.9996V0H12.9997C5.82023 0 0 5.82023 0 12.9998Z" fill="#FF4D12"/>
<path d="M0.183594 39C0.183594 46.1797 6.00383 51.9998 13.1834 51.9998H26.1832V26H13.1834C6.00383 26 0.183594 31.8204 0.183594 39Z" fill="#B659FF"/>
<path d="M193.015 0H141.003C133.269 0 127 6.26944 127 14.0032V63.3477C127 71.0815 133.269 77.3509 141.003 77.3509H193.015C200.749 77.3509 207.018 71.0815 207.018 63.3477V14.0032C207.018 6.26944 200.749 0 193.015 0Z" fill="#470137"/>
<path d="M168.136 21.8846L158.294 38.7951L168.899 56.7992C169.116 57.166 169.023 57.346 168.626 57.346H162.011C161.847 57.3633 161.682 57.3309 161.537 57.253C161.392 57.1751 161.274 57.0553 161.198 56.9093L153.732 43.2161H153.676L146.407 56.9093C146.341 57.0396 146.239 57.1491 146.115 57.2261C145.99 57.3031 145.847 57.3445 145.701 57.346H139.339C138.976 57.346 138.906 57.166 139.122 56.7992L149.552 39.2886L139.616 21.7746C139.399 21.4845 139.473 21.3378 139.833 21.3378H146.461C146.603 21.3277 146.745 21.3584 146.87 21.4263C146.995 21.4942 147.099 21.5966 147.168 21.7213L154.169 35.251H154.223L161.188 21.7213C161.256 21.5971 161.359 21.4951 161.483 21.4272C161.608 21.3593 161.749 21.3283 161.891 21.3378H167.919C168.319 21.3378 168.389 21.5212 168.136 21.8846Z" fill="#FF61F6"/>
<path d="M184.306 58.013C180.438 58.013 177.461 56.916 175.15 54.7255C172.84 52.535 171.68 49.2976 171.68 45.01C171.68 41.1136 172.922 37.9128 175.407 35.4078C176.679 34.0917 178.208 33.0514 179.899 32.3517C181.589 31.6519 183.406 31.3076 185.236 31.3402C186.055 31.3256 186.873 31.413 187.67 31.6003V20.3177C187.664 20.2755 187.668 20.2324 187.681 20.1918C187.695 20.1513 187.717 20.1144 187.747 20.0841C187.777 20.0537 187.814 20.0307 187.854 20.0169C187.895 20.003 187.938 19.9987 187.98 20.0043H194.075C194.245 20.0043 194.332 20.1077 194.332 20.3177V51.9082C194.332 53.2419 194.908 54.3788 194.998 55.3524C195.017 55.4487 195.001 55.5485 194.953 55.6344C194.906 55.7203 194.83 55.7868 194.738 55.8225C191.748 57.2828 187.827 58.013 184.306 58.013ZM187.683 52.8484V36.7215C187.467 36.3414 186.32 36.008 185.146 36.008C184.175 35.9828 183.21 36.1747 182.322 36.5699C181.435 36.965 180.646 37.5533 180.015 38.2918C178.477 40.0928 177.648 42.392 177.681 44.7599C177.681 47.6806 178.681 49.6811 179.985 51.0714C180.601 51.778 181.36 52.346 182.212 52.7379C183.063 53.1299 183.989 53.3368 184.926 53.3452C186.17 53.3452 187.387 53.1585 187.683 52.8484Z" fill="#FF61F6"/>
<path d="M291.167 0H342.833C350.667 0 357 6.33328 357 14.1667V63.8334C357 71.6667 350.667 78.0002 342.833 78.0002H291.167C283.333 78 277 71.6667 277 63.8333V14.1667C277 6.33328 283.333 0 291.167 0Z" fill="#001834"/>
<path d="M295 54.7007V20.4007C295 20.1674 295.1 20.034 295.333 20.034C295.9 20.034 296.433 20.034 297.2 20.0007C298 19.9674 298.833 19.9674 299.733 19.934C300.633 19.9005 301.6 19.9007 302.633 19.8673C303.667 19.834 304.667 19.834 305.667 19.834C308.4 19.834 310.667 20.1673 312.533 20.8673C314.2 21.434 315.733 22.3673 317 23.6005C318.067 24.6673 318.9 25.9673 319.433 27.4005C319.933 28.8005 320.2 30.2338 320.2 31.7338C320.2 34.6005 319.533 36.9671 318.2 38.8338C316.867 40.7005 315 42.1005 312.833 42.9006C310.567 43.7338 308.067 44.0338 305.333 44.0338C304.533 44.0338 304 44.0338 303.667 44.0005C303.333 43.9673 302.867 43.9673 302.233 43.9673V54.6673C302.267 54.9005 302.1 55.1005 301.867 55.134C301.833 55.134 301.8 55.134 301.733 55.134H295.4C295.133 55.134 295 55.0007 295 54.7007ZM302.267 26.4674V37.6674C302.733 37.7007 303.167 37.7341 303.567 37.7341H305.333C307.635 37.7341 310.293 37.1932 311.9 35.3676C313.283 33.7963 313.287 30.6804 312.167 28.9676C310.837 26.9343 308.179 26.3452 305.9 26.4009C305.033 26.4009 304.267 26.4009 303.633 26.4341C302.967 26.4007 302.5 26.434 302.267 26.4674Z" fill="#00A9FF"/>
<path d="M341.003 35.6348C340.003 35.1016 338.936 34.7348 337.803 34.5016C336.57 34.2348 335.336 34.0683 334.07 34.0683C333.403 34.035 332.703 34.135 332.07 34.3016C331.637 34.4016 331.27 34.6348 331.037 34.9683C330.87 35.235 330.77 35.5683 330.77 35.8683C330.77 36.1683 330.903 36.4683 331.103 36.735C331.403 37.1017 331.803 37.4017 332.236 37.635C333.003 38.035 333.803 38.4017 334.603 38.735C336.403 39.335 338.136 40.1683 339.736 41.1683C340.836 41.8683 341.736 42.8016 342.37 43.935C342.903 45.0017 343.17 46.1683 343.136 47.3683C343.17 48.935 342.703 50.5016 341.836 51.8016C340.903 53.1348 339.603 54.1683 338.103 54.7683C336.47 55.4683 334.47 55.835 332.07 55.835C330.537 55.835 329.037 55.7017 327.537 55.4017C326.37 55.2017 325.203 54.835 324.137 54.335C323.903 54.2017 323.737 53.9683 323.77 53.7017V47.9017C323.77 47.8017 323.803 47.6684 323.903 47.6017C324.003 47.535 324.103 47.5684 324.203 47.635C325.503 48.4017 326.87 48.935 328.336 49.2683C329.603 49.6016 330.936 49.7683 332.27 49.7683C333.536 49.7683 334.436 49.6016 335.036 49.3016C335.57 49.0683 335.936 48.5016 335.936 47.9016C335.936 47.4348 335.67 47.0016 335.136 46.5683C334.603 46.135 333.503 45.635 331.87 45.0016C330.17 44.4016 328.603 43.6016 327.136 42.6016C326.103 41.8683 325.236 40.9016 324.603 39.7683C324.07 38.7016 323.803 37.535 323.836 36.3683C323.836 34.935 324.236 33.5683 324.97 32.335C325.803 31.0017 327.036 29.935 328.47 29.2683C330.036 28.4683 332.003 28.1016 334.37 28.1016C335.736 28.1016 337.136 28.2016 338.503 28.4016C339.503 28.5348 340.47 28.8016 341.37 29.1683C341.503 29.2016 341.636 29.335 341.703 29.4683C341.736 29.6016 341.77 29.735 341.77 29.8683V35.3016C341.77 35.4348 341.703 35.5683 341.603 35.6348C341.303 35.7016 341.136 35.7016 341.003 35.6348Z" fill="#00A9FF"/>
<path d="M441.167 0H492.833C500.667 0 507 6.33328 507 14.1667V63.8334C507 71.6667 500.667 78.0002 492.833 78.0002H441.167C433.333 78 427 71.6667 427 63.8333V14.1667C427 6.33328 433.333 0 441.167 0Z" fill="#390000"/>
<path d="M465.768 46.7983H453.368L450.834 54.6316C450.768 54.9316 450.501 55.1316 450.201 55.0983H443.934C443.568 55.0983 443.468 54.8983 443.568 54.4983L454.301 23.5983C454.401 23.265 454.501 22.8983 454.634 22.4983C454.768 21.7983 454.834 21.065 454.834 20.3316C454.801 20.1648 454.934 19.9983 455.101 19.9648H455.201H463.734C464.001 19.9648 464.134 20.0648 464.168 20.2316L476.334 54.5648C476.434 54.9316 476.334 55.0981 476.001 55.0981H469.034C468.801 55.1314 468.568 54.9648 468.501 54.7314L465.768 46.7983ZM455.301 40.0316H463.768L459.501 26.1316L455.301 40.0316Z" fill="#FF9A00"/>
<path d="M483.602 25.6657C482.502 25.699 481.435 25.2657 480.635 24.499C479.868 23.6657 479.469 22.5657 479.502 21.4323C479.469 20.299 479.902 19.2323 480.702 18.4655C481.502 17.6988 482.569 17.2988 483.669 17.2988C484.969 17.2988 485.969 17.6988 486.702 18.4655C487.435 19.2655 487.835 20.3323 487.802 21.4323C487.835 22.5655 487.435 23.6655 486.635 24.499C485.869 25.299 484.735 25.7323 483.602 25.6657Z" fill="#FF9A00"/>
<path d="M479.867 54.5983V28.9316C479.867 28.5983 480 28.4648 480.3 28.4648H486.9C487.2 28.4648 487.334 28.6316 487.334 28.9316V54.5983C487.334 54.965 487.2 55.1316 486.9 55.1316H480.367C480.034 55.1316 479.867 54.9316 479.867 54.5983Z" fill="#FF9A00"/>
</svg>
