<svg width="53" height="59" viewBox="0 0 53 59" fill="none" xmlns="http://www.w3.org/2000/svg">
<path d="M41.1963 11.035L40.6822 11.5643L40.8923 11.7683L41.1851 11.7728L41.1963 11.035ZM41.1963 11.035L41.1851 11.7728L41.1853 11.7728L41.1858 11.7728L41.1881 11.7728L41.197 11.773L41.2319 11.7735L41.3647 11.7755L41.8403 11.783C42.2348 11.7892 42.763 11.7977 43.2978 11.8067C43.8327 11.8158 44.3737 11.8254 44.7939 11.8338C45.0042 11.838 45.1832 11.8419 45.3158 11.8453C45.3434 11.846 45.3679 11.8467 45.3896 11.8473C45.5903 13.2145 47.0962 23.4012 48.596 33.5439L50.7951 48.4144L51.5189 53.3083L51.6953 54.5012M41.1963 11.035L40.6822 11.5643L40.6821 11.5642L40.6816 11.5637L40.6797 11.5619L40.6722 11.5546L40.6429 11.5261L40.5315 11.4179L40.1312 11.029C39.7985 10.7057 39.3512 10.271 38.8931 9.82547C37.9914 8.94845 37.0385 8.02053 36.8449 7.82743C36.8405 7.82581 36.7948 7.80059 36.6667 7.79674C36.5152 7.79218 36.3601 7.82251 36.2884 7.8436L36.2883 7.84365C36.2911 7.84283 35.6499 8.04138 34.5439 8.38377L33.8379 8.60233L33.6205 7.89595C33.4465 7.3307 33.1918 6.64341 32.8328 5.95857L32.8327 5.95855C31.6838 3.767 30.0839 2.72692 28.223 2.72397H28.223H28.2229H28.2229H28.2229H28.2229H28.2229H28.2228H28.2228H28.2228H28.2228H28.2227H28.2227H28.2227H28.2227H28.2226H28.2226H28.2226H28.2226H28.2225H28.2225H28.2225H28.2225H28.2224H28.2224H28.2224H28.2224H28.2223H28.2223H28.2223H28.2223H28.2222H28.2222H28.2222H28.2222H28.2221H28.2221H28.2221H28.2221H28.222H28.222H28.222H28.2219H28.2219H28.2219H28.2219H28.2218H28.2218H28.2218H28.2218H28.2217H28.2217H28.2217H28.2216H28.2216H28.2216H28.2216H28.2215H28.2215H28.2215H28.2214H28.2214H28.2214H28.2214H28.2213H28.2213H28.2213H28.2213H28.2212H28.2212H28.2212H28.2211H28.2211H28.2211H28.2211H28.221H28.221H28.221H28.221H28.2209H28.2209H28.2209H28.2209H28.2208H28.2208H28.2208H28.2208H28.2207H28.2207H28.2207H28.2206H28.2206H28.2206H28.2206H28.2205H28.2205H28.2205H28.2205H28.2204H28.2204H28.2204H28.2204H28.2203H28.2203H28.2203H28.2203H28.2202H28.2202H28.2202H28.2202H28.2201H28.2201H28.2201H28.22H28.22H28.22H28.22H28.2199H28.2199H28.2199H28.2199H28.2198H28.2198H28.2198H28.2198H28.2197H28.2197H28.2197H28.2196H28.2196H28.2196H28.2196H28.2195H28.2195H28.2195H28.2194H28.2194H28.2194H28.2194H28.2193H28.2193H28.2193H28.2193H28.2192H28.2192H28.2192H28.2192H28.2191H28.2191H28.2191H28.219H28.219H28.219H28.219H28.2189H28.2189H28.2189H28.2189H28.2188H28.2188H28.2188H28.2187H28.2187H28.2187H28.2187H28.2186H28.2186H28.2186H28.2186H28.2185H28.2185H28.2185H28.2185H28.2184H28.2184H28.2184H28.2184H28.2184H28.2183H28.2183H28.2183H28.2183H28.2182H28.2182H28.2182H28.2182H28.2181H28.2181H28.2181H28.2181H28.2181H28.218H28.218H28.218H28.218H28.2179H28.2179H28.2179H28.2179H28.2178H28.2178H28.2178H28.2178H28.2178H28.2177H28.2177H28.2177H28.2177H28.2177H28.2176H28.2176H28.2176H28.2176H28.2176H28.2175H28.2175H28.2175H28.2175H28.2175H28.2174H28.2174H28.2174H28.2174H28.2174H28.2173H28.2173H28.2173H28.2173H28.2173H28.2172H28.2172H28.2172H28.2172H28.2172H28.2172H28.2171H28.2171H28.2171H28.2171H28.2171H28.217H28.217H28.217H28.217H28.217H28.217H28.2169H28.2169H28.2169H28.2169H28.2169H28.2169H28.2168H28.2168H28.2168H28.2168H28.2168H28.2167H28.2167H28.2167H28.2167H28.2167H28.2167H28.2167H28.2166H28.2166H28.2166H28.2166H28.2166H28.2166H28.2165H28.2165H28.2165H28.2165H28.2165H28.2165H28.2164H28.2164H28.2164H28.2164H28.2164H28.2164H28.2164H28.2163H28.2163H28.2163H28.2163H28.2163H28.2163H28.2162H28.2162H28.2162H28.2162H28.2162H28.2162H28.2162H28.2161H28.2161H28.2161H28.2161H28.2161H28.2161H28.216H28.216H28.216H28.216H28.216C28.1034 2.72397 27.9864 2.73452 27.8264 2.7491L27.4395 2.78435L27.1915 2.48534C27.1292 2.41018 27.075 2.3466 27.0215 2.28939L27.0214 2.28929C26.2158 1.42703 25.194 1.00459 23.9228 1.04188L23.9223 1.0419C21.4355 1.11317 18.7958 2.92593 16.5617 6.47434L16.5617 6.47438C14.9935 8.96487 13.8097 12.0886 13.4775 14.463L13.4126 14.927L12.965 15.0656L8.96368 16.3048L7.80781 16.6628L7.49253 16.7605L7.40708 16.787L7.38335 16.7943L7.37651 16.7965L7.37453 16.7971L7.37429 16.7972L51.6953 54.5012M51.6953 54.5012L36.8472 58.1918L1.59052 52.095L1.68525 51.3625L2.17546 47.5725C2.58186 44.431 3.12542 40.23 3.67409 35.9923C4.77197 27.5129 5.88894 18.8971 5.97002 18.3145C6.02544 17.9163 6.06375 17.6683 6.1113 17.488C6.15515 17.3218 6.19155 17.2771 6.2068 17.2602C6.22718 17.2377 6.28404 17.1858 6.47827 17.1034C6.67839 17.0185 6.95337 16.9292 7.37392 16.7973L51.6953 54.5012ZM13.7845 14.8117L14.0479 13.5799C14.5571 11.1993 15.7981 8.25342 17.4821 5.87353C19.1382 3.53304 21.3754 1.5305 23.9346 1.45689L23.9404 1.45673C24.7307 1.44019 25.4453 1.61504 26.0702 2.02629L27.1209 2.71782L26.0046 3.29749C25.3212 3.65233 24.6447 4.17037 23.9982 4.86374L13.7845 14.8117ZM13.7845 14.8117L14.9878 14.4391M13.7845 14.8117L14.9878 14.4391M14.9878 14.4391L19.9385 12.906L20.3622 12.7748M14.9878 14.4391L20.3622 12.7748M20.3622 12.7748L20.4451 12.339M20.3622 12.7748L20.4451 12.339M20.4451 12.339C20.976 9.54758 22.3071 6.67788 23.9982 4.86378L20.4451 12.339ZM28.0444 10.3961L28.5575 10.2372L28.564 9.70017C28.5833 8.10844 28.4175 5.64071 27.5537 3.8408L27.2519 3.21191L26.6071 3.47796C25.636 3.8786 24.8454 4.5645 24.3022 5.14715L24.3022 5.14717C22.842 6.71355 21.6899 9.05436 21.0843 11.3711L20.7486 12.6552L22.0164 12.2626L28.0444 10.3961ZM28.9772 9.11715L28.9915 10.1029L29.9332 9.81123L32.7353 8.94364L33.4392 8.72577L33.2223 8.02157C32.9872 7.25814 32.5822 6.20326 31.9291 5.2719C31.2762 4.34062 30.3252 3.46483 28.9894 3.21173L27.684 2.96441L28.164 4.20325C28.7873 5.81222 28.9567 7.71062 28.9772 9.11715Z" stroke="url(#paint0_linear_3224_1950)" stroke-opacity="0.99" stroke-width="1.47573"/>
<path d="M41.1963 11.033L40.6823 11.5623L40.8923 11.7663L41.1851 11.7708L41.1963 11.033ZM41.1963 11.033L40.6822 11.5623L40.6821 11.5622L40.6816 11.5617L40.6797 11.5599L40.6722 11.5526L40.643 11.5241L40.5315 11.4159L40.1312 11.027C39.7985 10.7037 39.3512 10.269 38.8932 9.82348C38.4462 9.38882 37.9868 8.94165 37.6134 8.57764L37.6143 57.9993L51.6954 54.4992L51.519 53.3064L50.7952 48.4124L48.5961 33.5419C47.0962 23.3985 45.5902 13.2114 45.3897 11.8453C45.368 11.8447 45.3434 11.844 45.3158 11.8433C45.1832 11.8399 45.0042 11.836 44.794 11.8318C44.3737 11.8234 43.8328 11.8138 43.2978 11.8047C42.763 11.7957 42.2348 11.7872 41.8403 11.781L41.3647 11.7736L41.232 11.7715L41.1971 11.771L41.1881 11.7708L41.1859 11.7708L41.1853 11.7708L41.1852 11.7708L41.1963 11.033Z" stroke="url(#paint1_linear_3224_1950)" stroke-opacity="0.99" stroke-width="1.47573"/>
<path d="M25.8821 24.9874C25.6999 24.9285 25.4907 24.866 25.2587 24.8051C24.4023 24.5804 23.2123 24.3712 21.9081 24.4536L21.9546 25.19L21.9081 24.4536C19.9828 24.5752 18.8529 25.2617 18.2469 26.1502C17.6653 27.003 17.67 27.8959 17.6916 28.2392C17.7613 29.3432 18.5376 30.1307 19.347 30.7514C19.766 31.0727 20.2436 31.3855 20.7288 31.6976C20.809 31.7492 20.8895 31.8008 20.9702 31.8526C21.3857 32.119 21.808 32.3899 22.2327 32.6832C24.2465 34.0738 26.1295 35.8447 26.3329 39.0668C26.4999 41.7116 25.7969 43.8794 24.5455 45.4107C23.2966 46.9391 21.4618 47.8838 19.2582 48.0229C16.5428 48.1943 14.4485 47.4798 13.0357 46.7288C12.328 46.3525 11.7915 45.9671 11.4356 45.6796C11.3465 45.6076 11.2688 45.5418 11.2028 45.484L12.0797 41.7529C12.3878 41.9451 12.761 42.1641 13.1772 42.3809C14.3168 42.9743 15.9032 43.618 17.3901 43.5241L17.3901 43.5241C18.439 43.4578 19.2048 42.985 19.6846 42.3375C20.1475 41.7128 20.3213 40.9584 20.2812 40.3223L20.2812 40.3223C20.2037 39.0956 19.6308 38.2053 18.8915 37.4826C18.3547 36.9578 17.6825 36.4809 17.0375 36.0235C16.8384 35.8823 16.6419 35.7429 16.4529 35.6046C15.6155 34.9919 14.8338 34.3433 14.232 33.4872C13.6392 32.6439 13.1996 31.5677 13.1051 30.0716C12.9429 27.5029 13.7059 24.9376 15.418 22.96C17.1234 20.9902 19.8171 19.5502 23.6189 19.3101L25.8821 24.9874ZM25.8821 24.9874L27.3152 19.6266C27.1899 19.5907 27.0438 19.5529 26.8769 19.516C26.1672 19.3591 25.0788 19.218 23.6189 19.3101L25.8821 24.9874Z" stroke="url(#paint2_linear_3224_1950)" stroke-opacity="0.99" stroke-width="1.47573"/>
<defs>
<linearGradient id="paint0_linear_3224_1950" x1="26.6457" y1="0.301758" x2="26.6457" y2="58.9454" gradientUnits="userSpaceOnUse">
<stop stop-color="#8BB43F"/>
<stop offset="1" stop-color="#B4E52C"/>
</linearGradient>
<linearGradient id="paint1_linear_3224_1950" x1="44.6994" y1="7.07422" x2="44.6994" y2="58.943" gradientUnits="userSpaceOnUse">
<stop stop-color="#8BB43F"/>
<stop offset="1" stop-color="#B4E52C"/>
</linearGradient>
<linearGradient id="paint2_linear_3224_1950" x1="19.2952" y1="18.543" x2="19.2952" y2="48.7865" gradientUnits="userSpaceOnUse">
<stop stop-color="#8BB43F"/>
<stop offset="1" stop-color="#B4E52C"/>
</linearGradient>
</defs>
</svg>
