<svg width="60" height="56" viewBox="0 0 60 56" fill="none" xmlns="http://www.w3.org/2000/svg">
<path d="M26.3375 41.9311C25.0897 41.9311 24.0752 40.9176 24.0752 39.6697C24.0752 38.4219 25.0897 37.4084 26.3375 37.4084C27.5853 37.4084 28.5998 38.4219 28.5998 39.6697C28.5998 40.9176 27.5853 41.9311 26.3375 41.9311ZM26.3375 39.3127C26.1404 39.3127 25.9795 39.4726 25.9795 39.6697C25.9795 40.064 26.6955 40.064 26.6955 39.6697C26.6955 39.4726 26.5346 39.3127 26.3375 39.3127ZM34.8417 41.9311C33.5939 41.9311 32.5804 40.9176 32.5804 39.6697C32.5804 38.4219 33.5939 37.4084 34.8417 37.4084C36.0896 37.4084 37.1031 38.4219 37.1031 39.6697C37.1031 40.9176 36.0896 41.9311 34.8417 41.9311ZM34.8417 39.3127C34.6446 39.3127 34.4847 39.4726 34.4847 39.6697C34.4847 40.064 35.1988 40.064 35.1988 39.6697C35.1988 39.4726 35.0389 39.3127 34.8417 39.3127ZM41.9642 20.2158C41.5421 19.6653 40.9005 19.3501 40.2069 19.3501H18.5727L18.009 17.2422C17.7235 16.172 16.7509 15.4253 15.6435 15.4253H14.2246C13.6983 15.4253 13.2724 15.8512 13.2724 16.3774C13.2724 16.9037 13.6983 17.3296 14.2246 17.3296H15.6435C15.8899 17.3296 16.1056 17.496 16.1698 17.7341L20.7176 34.7379C21.0505 35.9839 22.1839 36.8542 23.4736 36.8542H38.7377C39.264 36.8542 39.6899 36.4283 39.6899 35.902C39.6899 35.3758 39.264 34.9499 38.7377 34.9499H23.4736C23.045 34.9499 22.6675 34.6598 22.5568 34.2469L22.2096 32.9489H25.3612H34.3452H36.5415C38.2654 32.9489 39.781 31.7848 40.2273 30.1185L42.3492 22.1377C42.5277 21.4664 42.3864 20.7663 41.9642 20.2158ZM40.4542 21.3762C40.4895 21.4218 40.5435 21.5176 40.5081 21.6487L39.5642 25.1978H36.2199L36.7503 21.2544H40.2069C40.3408 21.2544 40.4189 21.3307 40.4542 21.3762ZM34.2995 25.1978H30.8007V21.2544H34.8306L34.2995 25.1978ZM28.8964 21.2544V25.1978H25.4009L24.8665 21.2544H28.8964ZM22.9447 21.2544L23.479 25.1978H20.1413L19.0848 21.2544H22.9447ZM23.7369 27.1021L24.2711 31.0446H21.7079L20.6516 27.1021H23.7369ZM25.6591 27.1021H28.8964V31.0446H26.1934L25.6591 27.1021ZM30.8007 31.0446V27.1021H34.043L33.5121 31.0446H30.8007ZM36.5415 31.0446H35.4332L35.9636 27.1021H39.0578L38.3863 29.6276C38.1631 30.4625 37.4044 31.0446 36.5415 31.0446ZM16.2627 5.05154C16.2627 4.55851 15.8637 4.15955 15.3707 4.15955H5.57585C5.08282 4.15955 4.68385 4.5585 4.68385 5.05154C4.68385 5.54458 5.08281 5.94354 5.57585 5.94354H15.3707C15.8637 5.94354 16.2627 5.54458 16.2627 5.05154ZM43.1618 5.05143C43.1618 5.57729 42.7355 6.00358 42.2097 6.00358C41.6838 6.00358 41.2575 5.57729 41.2575 5.05143C41.2575 4.52558 41.6838 4.09928 42.2097 4.09928C42.7355 4.09929 43.1618 4.52558 43.1618 5.05143ZM46.1377 4.09929C45.6119 4.09929 45.1856 4.52558 45.1856 5.05144C45.1856 5.5773 45.6119 6.00359 46.1377 6.00359C46.6636 6.00359 47.0899 5.5773 47.0899 5.05144C47.0899 4.52558 46.6636 4.09929 46.1377 4.09929ZM50.0658 4.09929C49.54 4.09929 49.1137 4.52558 49.1137 5.05144C49.1137 5.5773 49.54 6.00359 50.0658 6.00359C50.5917 6.00359 51.018 5.5773 51.018 5.05144C51.018 4.52558 50.5917 4.09929 50.0658 4.09929ZM58.4688 45.7062L55.5485 43.2442C55.5505 43.1855 55.5596 43.1279 55.5596 43.069V5.87143C55.5596 3.01217 53.226 0.678711 50.3668 0.678711H5.32944C2.47023 0.678711 0.136719 3.01218 0.136719 5.87143V43.069C0.136719 45.9282 2.47024 48.2617 5.32944 48.2617H45.3013L45.3024 51.8282C45.3024 52.5962 45.7338 53.275 46.4293 53.6004C47.1192 53.9222 47.9207 53.8217 48.5102 53.3327L50.2936 51.8505L51.2867 53.9835C51.5935 54.6493 52.144 55.1551 52.8321 55.4062C53.1389 55.5178 53.4588 55.5736 53.775 55.5736C54.1692 55.5736 54.5635 55.488 54.9316 55.3169C55.5956 55.0082 56.1014 54.4578 56.3525 53.7697C56.6035 53.0797 56.5719 52.334 56.2613 51.672L55.2701 49.5371L57.5519 49.1298C58.307 48.9941 58.8983 48.4492 59.0973 47.7072C59.2963 46.967 59.0546 46.199 58.4688 45.7062ZM2.03671 5.87143C2.03671 4.06364 3.51242 2.58793 5.32944 2.58793H50.3668C52.1838 2.58793 53.6596 4.06364 53.6596 5.87143V7.51315H2.03671V5.87143ZM45.2986 38.8087L45.3008 46.3525H5.32944C3.51242 46.3525 2.03671 44.8768 2.03671 43.069V9.42238H53.6596V41.6517L48.514 37.3135C47.9244 36.8152 47.1248 36.7147 46.4293 37.0364C45.7319 37.36 45.2986 38.0388 45.2986 38.8087ZM57.2154 47.2553L53.7173 47.8801C53.4272 47.9322 53.1762 48.1163 53.0404 48.3785C52.9028 48.6407 52.8972 48.9513 53.0218 49.2191L54.5356 52.4772C54.6304 52.6781 54.6397 52.9068 54.5635 53.1169C54.4854 53.3271 54.331 53.4963 54.1301 53.5911C53.9256 53.6842 53.695 53.6953 53.4867 53.6172C53.2747 53.5409 53.1073 53.3866 53.0125 53.182L51.4988 49.9276C51.3741 49.6598 51.1324 49.4645 50.8442 49.3995C50.7753 49.3846 50.7047 49.3772 50.6359 49.3772C50.4164 49.3772 50.2007 49.4534 50.0277 49.5966L47.2066 51.8282L47.2866 38.7678L57.2414 47.1605L57.2154 47.2553Z" fill="url(#paint0_linear_3224_1391)"/>
<defs>
<linearGradient id="paint0_linear_3224_1391" x1="29.6513" y1="0.678711" x2="29.6513" y2="55.5736" gradientUnits="userSpaceOnUse">
<stop stop-color="#3A85C6"/>
<stop offset="1" stop-color="#60A2F4"/>
</linearGradient>
</defs>
</svg>
