<svg width="51" height="52" viewBox="0 0 51 52" fill="none" xmlns="http://www.w3.org/2000/svg">
<path d="M46.1603 7.82262C47.219 7.82262 48.0755 6.96602 48.0755 5.9074C48.0755 4.84878 47.219 3.99219 46.1603 3.99219C45.1017 3.99219 44.2451 4.84878 44.2451 5.9074C44.2451 6.96602 45.1098 7.82262 46.1603 7.82262ZM46.1603 5.35789C46.4674 5.35789 46.7179 5.6084 46.7179 5.91548C46.7179 6.22256 46.4674 6.47308 46.1603 6.47308C45.8452 6.47308 45.6027 6.23064 45.6027 5.91548C45.6027 5.60032 45.8533 5.35789 46.1603 5.35789Z" fill="url(#paint0_linear_3224_831)"/>
<path d="M48.2862 0.896484H8.9152C7.4202 0.896484 6.19996 2.11673 6.19996 3.61172V7.75731H3.50088C2.00589 7.75731 0.785645 8.97755 0.785645 10.4726V44.5181C0.785645 46.0131 2.00589 47.2333 3.50088 47.2333H21.5459V51.1607C21.5459 51.5325 21.853 51.8395 22.2247 51.8395H34.9767C35.3484 51.8395 35.6555 51.5325 35.6555 51.1607V47.2333H42.8719C44.3669 47.2333 45.5871 46.0131 45.5871 44.5181V40.3725H48.2862C49.7812 40.3725 51.0014 39.1523 51.0014 37.6573V3.61172C51.0014 2.11673 49.7812 0.896484 48.2862 0.896484ZM7.55758 3.61172C7.55758 2.86018 8.17174 2.2541 8.9152 2.2541H48.2862C49.0377 2.2541 49.6438 2.86827 49.6438 3.61172V9.56747H23.8813L20.8509 6.42394C20.6166 6.1815 20.2933 6.04413 19.962 6.04413H13.2871C12.6082 6.04413 12.0507 6.60172 12.0507 7.28053V9.56747H7.55758V3.61172ZM3.50088 45.8838C2.74934 45.8838 2.14326 45.2696 2.14326 44.5262V10.4726C2.14326 9.72101 2.75743 9.11493 3.50088 9.11493H6.19996V37.6654C6.19996 39.1604 7.4202 40.3806 8.9152 40.3806H23.6551C23.9217 40.8978 24.043 41.4796 23.9945 42.0776H22.9439C22.1682 42.0776 21.5459 42.7079 21.5459 43.4756V45.8838H3.50088ZM27.93 31.6692C28.0673 31.4268 28.3178 31.2732 28.6007 31.2732C29.0209 31.2732 29.3603 31.6126 29.3603 32.0328C29.3603 32.3076 29.2148 32.5581 28.9805 32.6955C28.7219 32.849 28.4148 32.8329 28.0997 32.6551C28.0593 32.6308 28.0188 32.5985 28.0027 32.5581C27.7441 32.146 27.8491 31.8227 27.93 31.6692ZM27.9219 30.0449C27.4289 30.2146 27.0087 30.5459 26.7501 31.0146C26.3622 31.7096 26.4107 32.5581 26.8633 33.2854C27.0087 33.5117 27.2027 33.6975 27.437 33.8349C27.8087 34.045 28.2128 34.1582 28.6088 34.1582C28.9805 34.1582 29.3441 34.0612 29.6674 33.8753C30.3139 33.4955 30.7179 32.7925 30.7179 32.0409C30.7179 31.1116 30.1118 30.3277 29.2795 30.0449V26.5539L35.2837 37.3906C35.2757 37.3987 35.2676 37.4148 35.2433 37.4229C33.118 37.9724 31.7281 39.9604 31.8412 42.0776H25.3683C25.4895 39.9523 24.0914 37.9643 21.9257 37.3583L27.9219 26.5539V30.0449ZM34.2978 50.4819H22.9035L22.9439 43.4272H34.2574C34.2817 43.4272 34.2978 43.4433 34.2978 43.4676V50.4819ZM44.2295 44.5181C44.2295 45.2696 43.6153 45.8757 42.8719 45.8757H35.6555V43.4676C35.6555 42.6918 35.0251 42.0695 34.2574 42.0695H33.2069C33.1584 41.4715 33.2877 40.8897 33.5463 40.3725H44.2295V44.5181ZM48.2862 39.023H34.8635C35.0817 38.9018 35.3161 38.7967 35.5746 38.7321C36.0029 38.6189 36.3504 38.3199 36.5282 37.9159C36.6979 37.5199 36.6737 37.0754 36.4636 36.6956L29.5138 24.178C29.3361 23.8467 28.9886 23.6366 28.6088 23.6366C28.2209 23.6447 27.8734 23.8386 27.6875 24.17L20.7297 36.6956C20.5196 37.0754 20.5035 37.528 20.6732 37.9239C20.8429 38.328 21.1903 38.6189 21.6186 38.7321C21.8772 38.7967 22.1035 38.9018 22.3298 39.023H8.9152C8.16366 39.023 7.55758 38.4088 7.55758 37.6654V10.9251H12.1638C12.8426 10.9251 13.4002 10.3675 13.4002 9.68869V7.40174H19.9055L22.9359 10.5453C23.1702 10.7877 23.4935 10.9251 23.8248 10.9251H49.6438V37.6573C49.6438 38.4088 49.0377 39.023 48.2862 39.023Z" fill="url(#paint1_linear_3224_831)"/>
<path d="M41.5383 7.82262C42.5969 7.82262 43.4535 6.96602 43.4535 5.9074C43.4535 4.84878 42.5969 3.99219 41.5383 3.99219C40.4796 3.99219 39.623 4.84878 39.623 5.9074C39.623 6.96602 40.4796 7.82262 41.5383 7.82262ZM41.5383 5.35789C41.8453 5.35789 42.0959 5.6084 42.0959 5.91548C42.0959 6.22256 41.8453 6.47308 41.5383 6.47308C41.2231 6.47308 40.9807 6.23064 40.9807 5.91548C40.9807 5.60032 41.2312 5.35789 41.5383 5.35789Z" fill="url(#paint2_linear_3224_831)"/>
<path d="M36.9074 7.82262C37.966 7.82262 38.8226 6.96602 38.8226 5.9074C38.8226 4.84878 37.966 3.99219 36.9074 3.99219C35.8488 3.99219 34.9922 4.84878 34.9922 5.9074C34.9922 6.96602 35.8488 7.82262 36.9074 7.82262ZM36.9074 5.35789C37.2145 5.35789 37.465 5.6084 37.465 5.91548C37.465 6.22256 37.2145 6.47308 36.9074 6.47308C36.5922 6.47308 36.3498 6.23064 36.3498 5.91548C36.3498 5.60032 36.6003 5.35789 36.9074 5.35789Z" fill="url(#paint3_linear_3224_831)"/>
<path d="M41.6825 16.8413C41.2865 17.2372 41.036 17.7383 40.939 18.2716H31.4438V17.2049C31.4438 16.4776 30.8539 15.8877 30.1266 15.8877H27.0639C26.3366 15.8877 25.7466 16.4776 25.7466 17.2049V18.2716H16.2595C16.1706 17.7463 15.9201 17.2453 15.516 16.8332C14.4897 15.823 12.7361 15.8392 11.7341 16.8413C11.225 17.3504 10.9502 18.0211 10.9502 18.7322C10.9502 19.4514 11.233 20.1303 11.7341 20.6232C12.2432 21.1485 12.922 21.4151 13.625 21.4151C14.0695 21.4151 14.522 21.3101 14.9503 21.0919C15.4109 20.8576 15.7908 20.4697 16.017 19.9929C16.0736 19.8717 16.1221 19.7504 16.1625 19.6292H22.7486C19.1686 21.3747 16.4696 24.6557 15.5322 28.6154H14.4816C13.7543 28.6154 13.1644 29.2053 13.1644 29.9326V32.9953C13.1644 33.7226 13.7543 34.3125 14.4816 34.3125H17.5443C18.2716 34.3125 18.8616 33.7226 18.8616 32.9953V29.9326C18.8616 29.2053 18.2716 28.6154 17.5443 28.6154H16.9302C18.0615 24.3486 21.4798 21.003 25.7709 19.9686V20.2596C25.7709 20.9869 26.3608 21.5768 27.0881 21.5768H30.1508C30.8781 21.5768 31.468 20.9869 31.468 20.2596V19.9686C35.751 21.003 39.1693 24.3486 40.3087 28.6154H39.7511C39.0238 28.6154 38.4339 29.2053 38.4339 29.9326V32.9953C38.4339 33.7226 39.0238 34.3125 39.7511 34.3125H42.8139C43.5412 34.3125 44.1311 33.7226 44.1311 32.9953V29.9326C44.1311 29.2053 43.5412 28.6154 42.8139 28.6154H41.7067C40.7613 24.6557 38.0622 21.3667 34.4904 19.6292H41.0926C41.2219 20.001 41.432 20.3404 41.7148 20.6232C42.2239 21.1485 42.9027 21.4151 43.6058 21.4151C44.0503 21.4151 44.5028 21.3101 44.9311 21.0919C45.3917 20.8576 45.7715 20.4697 45.9978 19.9929C46.5231 18.8858 46.3372 17.6817 45.5049 16.8332C44.4462 15.8311 42.6926 15.8392 41.6825 16.8413ZM14.7806 19.4191C14.6836 19.6131 14.522 19.7828 14.3281 19.8797C13.625 20.2353 13.0189 20.009 12.6876 19.6616C12.4371 19.4191 12.2997 19.0878 12.2997 18.7322C12.2997 18.3847 12.4371 18.0534 12.6876 17.7948C12.9381 17.5443 13.2695 17.4069 13.625 17.4069C13.9725 17.4069 14.3119 17.5443 14.5544 17.7867C14.9746 18.2231 15.0554 18.8292 14.7806 19.4191ZM17.5282 32.9549L14.5059 32.9953L14.4655 29.973H17.4878L17.5282 32.9549ZM42.7896 32.9549L39.7673 32.9953L39.7269 29.973H42.7492L42.7896 32.9549ZM27.1123 20.2676L27.0962 19.2494C27.1123 19.1767 27.1123 19.104 27.1043 19.0232V19.0151C27.1043 18.9908 27.1204 18.9747 27.1204 18.9504C27.1204 18.91 27.1043 18.8777 27.0962 18.8454L27.0719 17.2534H30.0943L30.1185 18.8454C30.1104 18.8858 30.0943 18.9181 30.0943 18.9585C30.0943 18.9827 30.1023 18.9989 30.1104 19.0232V19.0312C30.0943 19.1363 30.1023 19.2333 30.1266 19.3222L30.1427 20.2353L27.1123 20.2676ZM44.7372 19.4191C44.6402 19.6131 44.4786 19.7828 44.2846 19.8797C43.5816 20.2353 42.9755 20.009 42.6442 19.6616C42.3936 19.4191 42.2563 19.0878 42.2563 18.7322C42.2563 18.3847 42.3936 18.0534 42.6442 17.7948C42.8947 17.5443 43.226 17.4069 43.5816 17.4069C43.929 17.4069 44.2684 17.5443 44.5109 17.7867C44.9311 18.2231 45.0119 18.8292 44.7372 19.4191Z" fill="url(#paint4_linear_3224_831)"/>
<defs>
<linearGradient id="paint0_linear_3224_831" x1="46.1603" y1="3.99219" x2="46.1603" y2="7.82262" gradientUnits="userSpaceOnUse">
<stop stop-color="#BD6E04"/>
<stop offset="1" stop-color="#E8AD5E"/>
</linearGradient>
<linearGradient id="paint1_linear_3224_831" x1="25.8935" y1="0.896484" x2="25.8935" y2="51.8395" gradientUnits="userSpaceOnUse">
<stop stop-color="#BD6E04"/>
<stop offset="1" stop-color="#E8AD5E"/>
</linearGradient>
<linearGradient id="paint2_linear_3224_831" x1="41.5383" y1="3.99219" x2="41.5383" y2="7.82262" gradientUnits="userSpaceOnUse">
<stop stop-color="#BD6E04"/>
<stop offset="1" stop-color="#E8AD5E"/>
</linearGradient>
<linearGradient id="paint3_linear_3224_831" x1="36.9074" y1="3.99219" x2="36.9074" y2="7.82262" gradientUnits="userSpaceOnUse">
<stop stop-color="#BD6E04"/>
<stop offset="1" stop-color="#E8AD5E"/>
</linearGradient>
<linearGradient id="paint4_linear_3224_831" x1="28.6212" y1="15.8877" x2="28.6212" y2="34.3125" gradientUnits="userSpaceOnUse">
<stop stop-color="#BD6E04"/>
<stop offset="1" stop-color="#E8AD5E"/>
</linearGradient>
</defs>
</svg>
