<svg width="55" height="55" viewBox="0 0 55 55" fill="none" xmlns="http://www.w3.org/2000/svg">
<path d="M50.7112 43.8842H4.94266C2.56948 43.8842 0.704834 42.0195 0.704834 39.6464V13.4566C0.704834 11.0834 2.56948 9.21875 4.94266 9.21875H5.28169C5.79023 9.21875 6.12925 9.55778 6.12925 10.0663C6.12925 10.5749 5.79023 10.9139 5.28169 10.9139H4.94266C3.5018 10.9139 2.39997 12.0157 2.39997 13.4566V39.6464C2.39997 41.0872 3.5018 42.189 4.94266 42.189H50.7112C52.1521 42.189 53.2539 41.0872 53.2539 39.6464V13.4566C53.2539 12.0157 52.1521 10.9139 50.7112 10.9139H24.6062C24.0976 10.9139 23.7586 10.5749 23.7586 10.0663C23.7586 9.55778 24.0976 9.21875 24.6062 9.21875H50.7112C53.0844 9.21875 54.949 11.0834 54.949 13.4566V39.6464C54.949 42.0195 53.0844 43.8842 50.7112 43.8842Z" fill="url(#paint0_linear_3224_1665)"/>
<path d="M54.1007 38.7127H1.55167C1.04313 38.7127 0.704102 38.3737 0.704102 37.8651C0.704102 37.3566 1.04313 37.0176 1.55167 37.0176H54.1007C54.6093 37.0176 54.9483 37.3566 54.9483 37.8651C54.9483 38.3737 54.6093 38.7127 54.1007 38.7127Z" fill="url(#paint1_linear_3224_1665)"/>
<path d="M33.6739 49.3899H21.9774C21.4689 49.3899 21.1299 49.0508 21.1299 48.5423V43.0331C21.1299 42.5246 21.4689 42.1855 21.9774 42.1855H33.6739C34.1824 42.1855 34.5214 42.5246 34.5214 43.0331V48.5423C34.5214 49.0508 34.1824 49.3899 33.6739 49.3899ZM22.825 47.6947H32.8263V43.8807H22.825V47.6947Z" fill="url(#paint2_linear_3224_1665)"/>
<path d="M37.3195 54.9863H18.334C17.1474 54.9863 16.2151 54.054 16.2151 52.8674V49.8162C16.2151 48.6296 17.1474 47.6973 18.334 47.6973H37.3195C38.5061 47.6973 39.4384 48.6296 39.4384 49.8162V52.8674C39.4384 54.054 38.5061 54.9863 37.3195 54.9863ZM18.334 49.3924C18.1645 49.3924 17.9102 49.6467 17.9102 49.8162V52.8674C17.9102 53.0369 17.995 53.2912 18.334 53.2912H37.3195C37.489 53.2912 37.7432 53.2064 37.7432 52.8674V49.8162C37.7432 49.6467 37.6585 49.3924 37.3195 49.3924H18.334Z" fill="url(#paint3_linear_3224_1665)"/>
<path d="M29.0975 41.3387H26.5548C26.0463 41.3387 25.7073 40.9997 25.7073 40.4911C25.7073 39.9826 26.0463 39.6436 26.5548 39.6436H29.0975C29.6061 39.6436 29.9451 39.9826 29.9451 40.4911C29.9451 40.9997 29.6061 41.3387 29.0975 41.3387Z" fill="url(#paint4_linear_3224_1665)"/>
<path d="M14.9457 21.5884C14.0981 21.5884 13.3353 21.5036 12.5725 21.3341C12.1487 21.2494 11.8944 20.8256 11.9792 20.4018C12.1487 19.4695 11.8944 18.961 11.6402 18.7914C11.4706 18.7067 10.9621 18.961 10.4536 19.639C10.1993 19.978 9.69076 20.0628 9.35173 19.8933C8.08038 19.0457 7.0633 17.9439 6.3005 16.6725C6.04623 16.3335 6.21574 15.825 6.55476 15.5707C7.31757 14.9774 7.48709 14.4689 7.48709 14.2993C7.40233 14.1298 6.89379 13.8756 5.96147 13.8756C5.53769 13.8756 5.1139 13.6213 5.02915 13.1975C4.77488 11.6719 4.77488 10.1463 5.1139 8.79017C5.19866 8.36638 5.62244 8.11211 6.04623 8.19687C6.80903 8.19687 7.40233 7.9426 7.48709 7.77309C7.57184 7.60358 7.31757 7.01028 6.63952 6.50174C6.3005 6.24747 6.21574 5.73893 6.47001 5.39991C7.31757 4.12856 8.41941 3.11148 9.69076 2.34867C10.0298 2.0944 10.5383 2.26391 10.7926 2.60294C11.3011 3.36575 11.8944 3.53526 12.0639 3.53526C12.2335 3.36575 12.5725 2.77245 12.4877 1.84013C12.4877 1.41635 12.742 0.992566 13.1658 0.907809C14.6914 0.65354 16.217 0.65354 17.5731 0.992566C17.9969 1.07732 18.2512 1.5011 18.1664 1.92489C17.9969 2.85721 18.2512 3.36575 18.5054 3.53526C18.675 3.62002 19.1835 3.36575 19.692 2.6877C19.9463 2.34867 20.4548 2.26391 20.7939 2.43343C22.0652 3.28099 23.0823 4.38283 23.8451 5.65418C24.0994 5.9932 23.9299 6.50174 23.5908 6.75601C22.828 7.34931 22.6585 7.85785 22.6585 8.02736C22.7433 8.19687 23.2518 8.45114 24.0994 8.36638C24.5232 8.28163 24.9469 8.62065 25.0317 9.04444C25.286 10.5701 25.286 12.0957 24.9469 13.4518C24.8622 13.8756 24.4384 14.1298 24.0146 14.0451C23.0823 13.8756 22.5738 14.1298 22.4042 14.3841C22.2347 14.8079 22.7433 15.4012 23.2518 15.7402C23.5908 15.9945 23.6756 16.503 23.5061 16.842C22.6585 18.1134 21.5567 19.1305 20.2853 19.8933C19.9463 20.1475 19.4378 19.978 19.1835 19.639C18.7597 18.961 18.1664 18.6219 17.8274 18.7914C17.6579 18.8762 17.4036 19.3847 17.4884 20.3171C17.4884 20.7408 17.2341 21.1646 16.8103 21.2494C16.3018 21.5036 15.6237 21.5884 14.9457 21.5884ZM13.6743 19.8085C14.4371 19.8933 15.1999 19.978 15.9627 19.8085C16.0475 18.6219 16.6408 17.6896 17.4036 17.3506C18.3359 17.0116 19.353 17.3506 20.2006 18.1981C20.8786 17.7744 21.3872 17.2658 21.8957 16.6725C21.0481 15.825 20.7939 14.7231 21.1329 13.7908C21.5567 12.9432 22.489 12.4347 23.6756 12.4347C23.7603 11.6719 23.8451 10.9091 23.7603 10.1463C22.5738 10.1463 21.6414 9.55298 21.3024 8.70541C20.9634 7.85785 21.3024 6.84077 22.15 5.9932C21.7262 5.31515 21.2176 4.80661 20.6244 4.29807C19.7768 5.14564 18.675 5.48466 17.8274 5.06088C16.9798 4.6371 16.556 3.70478 16.556 2.51818C15.7932 2.43343 15.0304 2.34867 14.2676 2.51818C14.1829 3.78953 13.6743 4.72185 12.742 5.06088C11.8944 5.39991 10.8773 5.06088 10.0298 4.21331C9.35173 4.6371 8.84319 5.14564 8.33465 5.73893C9.18222 6.5865 9.52124 7.68833 9.09746 8.5359C8.67368 9.38346 7.74136 9.80725 6.55476 9.80725C6.47001 10.5701 6.38525 11.3329 6.55476 12.0957C7.74136 12.1804 8.67368 12.689 9.0127 13.5365C9.35173 14.3841 9.0127 15.4012 8.16514 16.2487C8.58892 16.9268 9.09746 17.4353 9.69076 17.9439C10.5383 17.0963 11.6402 16.7573 12.4877 17.1811C13.1658 17.6896 13.6743 18.6219 13.6743 19.8085Z" fill="url(#paint5_linear_3224_1665)"/>
<path d="M15.0288 16.9287C11.8928 16.9287 9.3501 14.386 9.3501 11.25C9.3501 8.11399 11.8928 5.57129 15.0288 5.57129C18.1648 5.57129 20.7075 8.11399 20.7075 11.25C20.7075 14.386 18.1648 16.9287 15.0288 16.9287ZM15.0288 7.26642C12.8251 7.26642 11.0452 9.04631 11.0452 11.25C11.0452 13.4536 12.8251 15.2335 15.0288 15.2335C17.2325 15.2335 19.0123 13.4536 19.0123 11.25C19.0123 9.04631 17.2325 7.26642 15.0288 7.26642Z" fill="url(#paint6_linear_3224_1665)"/>
<path d="M48.3396 34.896H30.456C28.7609 34.896 27.4895 33.6246 27.4895 31.9295V16.5885C27.4895 14.8934 28.7609 13.6221 30.456 13.6221H48.4244C50.1195 13.6221 51.3909 14.8934 51.3909 16.5885V32.0142C51.3061 33.6246 49.95 34.896 48.3396 34.896ZM30.456 15.3172C29.7779 15.3172 29.1846 15.9105 29.1846 16.5885V31.9295C29.1846 32.6075 29.7779 33.2008 30.456 33.2008H48.3396C49.0177 33.2008 49.611 32.6923 49.6957 31.9295V16.5885C49.6957 15.9105 49.1024 15.3172 48.4244 15.3172H30.456Z" fill="url(#paint7_linear_3224_1665)"/>
<path d="M50.4578 20.9969H28.3363C27.8278 20.9969 27.4888 20.6579 27.4888 20.1493C27.4888 19.6408 27.8278 19.3018 28.3363 19.3018H50.4578C50.9663 19.3018 51.3054 19.6408 51.3054 20.1493C51.3054 20.6579 50.9663 20.9969 50.4578 20.9969Z" fill="url(#paint8_linear_3224_1665)"/>
<path d="M40.3736 18.2H31.2199C30.7113 18.2 30.3723 17.861 30.3723 17.3524C30.3723 16.8439 30.7113 16.5049 31.2199 16.5049H40.3736C40.8821 16.5049 41.2212 16.8439 41.2212 17.3524C41.2212 17.861 40.8821 18.2 40.3736 18.2Z" fill="url(#paint9_linear_3224_1665)"/>
<path d="M43.932 18.2H42.9997C42.4911 18.2 42.1521 17.861 42.1521 17.3524C42.1521 16.8439 42.4911 16.5049 42.9997 16.5049H43.932C44.4405 16.5049 44.7796 16.8439 44.7796 17.3524C44.7796 17.861 44.4405 18.2 43.932 18.2Z" fill="url(#paint10_linear_3224_1665)"/>
<path d="M47.5787 18.2H46.6464C46.1379 18.2 45.7988 17.861 45.7988 17.3524C45.7988 16.8439 46.1379 16.5049 46.6464 16.5049H47.5787C48.0873 16.5049 48.4263 16.8439 48.4263 17.3524C48.4263 17.861 48.0873 18.2 47.5787 18.2Z" fill="url(#paint11_linear_3224_1665)"/>
<path d="M36.3031 30.2341C36.0488 30.2341 35.8793 30.1493 35.7098 29.9798L33.2518 27.5218C33.0823 27.3523 32.9976 27.1828 32.9976 26.9286C32.9976 26.6743 33.0823 26.5048 33.2518 26.3353L35.7945 23.8773C36.1336 23.5383 36.6421 23.5383 36.9811 23.8773C37.3201 24.2163 37.3201 24.7249 36.9811 25.0639L35.0317 26.9286L36.8964 28.7932C37.2354 29.1322 37.2354 29.6408 36.8964 29.9798C36.7268 30.1493 36.5573 30.2341 36.3031 30.2341Z" fill="url(#paint12_linear_3224_1665)"/>
<path d="M42.4906 30.2351C42.2364 30.2351 42.0668 30.1503 41.8973 29.9808C41.5583 29.6418 41.5583 29.1333 41.8973 28.7942L44.3553 26.3363C44.6943 25.9973 45.2028 25.9973 45.5419 26.3363C45.8809 26.6753 45.8809 27.1839 45.5419 27.5229L43.0839 29.9808C42.9144 30.1503 42.7449 30.2351 42.4906 30.2351Z" fill="url(#paint13_linear_3224_1665)"/>
<path d="M44.9493 27.7761C44.7798 27.7761 44.5256 27.6914 44.356 27.5218L41.8134 25.0639C41.4743 24.7249 41.4743 24.2163 41.8134 23.8773C42.1524 23.5383 42.6609 23.5383 42.9999 23.8773L45.5426 26.3353C45.8817 26.6743 45.8817 27.1828 45.5426 27.5218C45.3731 27.6914 45.2036 27.7761 44.9493 27.7761Z" fill="url(#paint14_linear_3224_1665)"/>
<path d="M38.5061 31.0833C38.4214 31.0833 38.3366 31.0833 38.2519 31.0833C37.8281 30.9986 37.5738 30.49 37.6586 30.0662L39.4385 23.4552C39.5232 23.0315 40.0318 22.7772 40.4555 22.8619C40.8793 22.9467 41.1336 23.4552 41.0488 23.879L39.3537 30.49C39.1842 30.8291 38.8452 31.0833 38.5061 31.0833Z" fill="url(#paint15_linear_3224_1665)"/>
<path d="M21.8101 34.8994H8.24902C6.21487 34.8994 4.60449 33.289 4.60449 31.2549C4.60449 29.2207 6.21487 27.6104 8.24902 27.6104H21.8101C23.8442 27.6104 25.4546 29.2207 25.4546 31.2549C25.4546 33.289 23.8442 34.8994 21.8101 34.8994ZM8.24902 29.3055C7.23194 29.3055 6.29962 30.2378 6.29962 31.2549C6.29962 32.272 7.23194 33.2043 8.24902 33.2043H21.8101C22.8271 33.2043 23.7595 32.272 23.7595 31.2549C23.7595 30.2378 22.8271 29.3055 21.8101 29.3055H8.24902Z" fill="url(#paint16_linear_3224_1665)"/>
<path d="M16.9781 32.1014H9.43472C8.92618 32.1014 8.58716 31.7624 8.58716 31.2538C8.58716 30.7453 8.92618 30.4062 9.43472 30.4062H16.9781C17.4866 30.4062 17.8256 30.7453 17.8256 31.2538C17.8256 31.7624 17.4866 32.1014 16.9781 32.1014Z" fill="url(#paint17_linear_3224_1665)"/>
<defs>
<linearGradient id="paint0_linear_3224_1665" x1="27.8269" y1="9.21875" x2="27.8269" y2="43.8842" gradientUnits="userSpaceOnUse">
<stop stop-color="#9D2A52"/>
<stop offset="1" stop-color="#C84D78"/>
</linearGradient>
<linearGradient id="paint1_linear_3224_1665" x1="27.8262" y1="37.0176" x2="27.8262" y2="38.7127" gradientUnits="userSpaceOnUse">
<stop stop-color="#9D2A52"/>
<stop offset="1" stop-color="#C84D78"/>
</linearGradient>
<linearGradient id="paint2_linear_3224_1665" x1="27.8257" y1="42.1855" x2="27.8257" y2="49.3899" gradientUnits="userSpaceOnUse">
<stop stop-color="#9D2A52"/>
<stop offset="1" stop-color="#C84D78"/>
</linearGradient>
<linearGradient id="paint3_linear_3224_1665" x1="27.8267" y1="47.6973" x2="27.8267" y2="54.9863" gradientUnits="userSpaceOnUse">
<stop stop-color="#9D2A52"/>
<stop offset="1" stop-color="#C84D78"/>
</linearGradient>
<linearGradient id="paint4_linear_3224_1665" x1="27.8262" y1="39.6436" x2="27.8262" y2="41.3387" gradientUnits="userSpaceOnUse">
<stop stop-color="#9D2A52"/>
<stop offset="1" stop-color="#C84D78"/>
</linearGradient>
<linearGradient id="paint5_linear_3224_1665" x1="15.0304" y1="0.726562" x2="15.0304" y2="21.5884" gradientUnits="userSpaceOnUse">
<stop stop-color="#9D2A52"/>
<stop offset="1" stop-color="#C84D78"/>
</linearGradient>
<linearGradient id="paint6_linear_3224_1665" x1="15.0288" y1="5.57129" x2="15.0288" y2="16.9287" gradientUnits="userSpaceOnUse">
<stop stop-color="#9D2A52"/>
<stop offset="1" stop-color="#C84D78"/>
</linearGradient>
<linearGradient id="paint7_linear_3224_1665" x1="39.4402" y1="13.6221" x2="39.4402" y2="34.896" gradientUnits="userSpaceOnUse">
<stop stop-color="#9D2A52"/>
<stop offset="1" stop-color="#C84D78"/>
</linearGradient>
<linearGradient id="paint8_linear_3224_1665" x1="39.3971" y1="19.3018" x2="39.3971" y2="20.9969" gradientUnits="userSpaceOnUse">
<stop stop-color="#9D2A52"/>
<stop offset="1" stop-color="#C84D78"/>
</linearGradient>
<linearGradient id="paint9_linear_3224_1665" x1="35.7967" y1="16.5049" x2="35.7967" y2="18.2" gradientUnits="userSpaceOnUse">
<stop stop-color="#9D2A52"/>
<stop offset="1" stop-color="#C84D78"/>
</linearGradient>
<linearGradient id="paint10_linear_3224_1665" x1="43.4658" y1="16.5049" x2="43.4658" y2="18.2" gradientUnits="userSpaceOnUse">
<stop stop-color="#9D2A52"/>
<stop offset="1" stop-color="#C84D78"/>
</linearGradient>
<linearGradient id="paint11_linear_3224_1665" x1="47.1126" y1="16.5049" x2="47.1126" y2="18.2" gradientUnits="userSpaceOnUse">
<stop stop-color="#9D2A52"/>
<stop offset="1" stop-color="#C84D78"/>
</linearGradient>
<linearGradient id="paint12_linear_3224_1665" x1="35.1165" y1="23.623" x2="35.1165" y2="30.2341" gradientUnits="userSpaceOnUse">
<stop stop-color="#9D2A52"/>
<stop offset="1" stop-color="#C84D78"/>
</linearGradient>
<linearGradient id="paint13_linear_3224_1665" x1="43.7196" y1="26.082" x2="43.7196" y2="30.2351" gradientUnits="userSpaceOnUse">
<stop stop-color="#9D2A52"/>
<stop offset="1" stop-color="#C84D78"/>
</linearGradient>
<linearGradient id="paint14_linear_3224_1665" x1="43.678" y1="23.623" x2="43.678" y2="27.7761" gradientUnits="userSpaceOnUse">
<stop stop-color="#9D2A52"/>
<stop offset="1" stop-color="#C84D78"/>
</linearGradient>
<linearGradient id="paint15_linear_3224_1665" x1="39.3537" y1="22.8457" x2="39.3537" y2="31.0833" gradientUnits="userSpaceOnUse">
<stop stop-color="#9D2A52"/>
<stop offset="1" stop-color="#C84D78"/>
</linearGradient>
<linearGradient id="paint16_linear_3224_1665" x1="15.0295" y1="27.6104" x2="15.0295" y2="34.8994" gradientUnits="userSpaceOnUse">
<stop stop-color="#9D2A52"/>
<stop offset="1" stop-color="#C84D78"/>
</linearGradient>
<linearGradient id="paint17_linear_3224_1665" x1="13.2064" y1="30.4062" x2="13.2064" y2="32.1014" gradientUnits="userSpaceOnUse">
<stop stop-color="#9D2A52"/>
<stop offset="1" stop-color="#C84D78"/>
</linearGradient>
</defs>
</svg>
