<svg width="50" height="52" viewBox="0 0 50 52" fill="none" xmlns="http://www.w3.org/2000/svg">
<path d="M25.132 5.33145H20.0068C19.5353 5.33145 19.1526 4.94877 19.1526 4.47725C19.1526 4.00573 19.5353 3.62305 20.0068 3.62305H25.132C25.6035 3.62305 25.9862 4.00573 25.9862 4.47725C25.9862 4.94877 25.6035 5.33145 25.132 5.33145Z" fill="url(#paint0_linear_3224_1783)"/>
<path d="M31.9682 51.4571H13.1758C10.8199 51.4571 8.90479 49.5402 8.90479 47.1861V35.2273C8.90479 34.7557 9.28747 34.3731 9.75899 34.3731C10.2305 34.3731 10.6132 34.7557 10.6132 35.2273V47.1861C10.6132 48.5989 11.7629 49.7487 13.1758 49.7487H31.9682C33.381 49.7487 34.5308 48.5989 34.5308 47.1861V18.1433C34.5308 17.6717 34.9135 17.2891 35.385 17.2891C35.8565 17.2891 36.2392 17.6717 36.2392 18.1433V47.1861C36.2392 49.5402 34.3241 51.4571 31.9682 51.4571Z" fill="url(#paint1_linear_3224_1783)"/>
<path d="M35.383 7.0338C34.9115 7.0338 34.5288 6.65111 34.5288 6.1796V4.4712C34.5288 3.05835 33.3791 1.9086 31.9662 1.9086H13.1738C11.761 1.9086 10.6112 3.05835 10.6112 4.4712V6.1796C10.6112 6.65111 10.2286 7.0338 9.75703 7.0338C9.28551 7.0338 8.90283 6.65111 8.90283 6.1796V4.4712C8.90283 2.11702 10.8179 0.200195 13.1738 0.200195H31.9662C34.3221 0.200195 36.2372 2.11702 36.2372 4.4712V6.1796C36.2372 6.65111 35.8546 7.0338 35.383 7.0338Z" fill="url(#paint2_linear_3224_1783)"/>
<path d="M21.7156 41.2055H14.882C14.4105 41.2055 14.0278 40.8228 14.0278 40.3513C14.0278 39.8798 14.4105 39.4971 14.882 39.4971H21.7156C22.1872 39.4971 22.5698 39.8798 22.5698 40.3513C22.5698 40.8228 22.1872 41.2055 21.7156 41.2055Z" fill="url(#paint3_linear_3224_1783)"/>
<path d="M26.8416 44.6215H14.8828C14.4112 44.6215 14.0286 44.2388 14.0286 43.7673C14.0286 43.2958 14.4112 42.9131 14.8828 42.9131H26.8416C27.3131 42.9131 27.6958 43.2958 27.6958 43.7673C27.6958 44.2388 27.3131 44.6215 26.8416 44.6215Z" fill="url(#paint4_linear_3224_1783)"/>
<path d="M30.2576 37.7885H14.882C14.4105 37.7885 14.0278 37.4058 14.0278 36.9343C14.0278 36.4628 14.4105 36.0801 14.882 36.0801H30.2576C30.7292 36.0801 31.1118 36.4628 31.1118 36.9343C31.1118 37.4058 30.7292 37.7885 30.2576 37.7885Z" fill="url(#paint5_linear_3224_1783)"/>
<path d="M12.3208 22.4072C9.96492 22.4072 8.0498 20.4904 8.0498 18.1362C8.0498 15.7821 9.96492 13.8652 12.3208 13.8652C14.6767 13.8652 16.5918 15.7821 16.5918 18.1362C16.5918 20.4904 14.6767 22.4072 12.3208 22.4072ZM12.3208 15.5736C10.908 15.5736 9.7582 16.7234 9.7582 18.1362C9.7582 19.5491 10.908 20.6988 12.3208 20.6988C13.7337 20.6988 14.8834 19.5491 14.8834 18.1362C14.8834 16.7234 13.7337 15.5736 12.3208 15.5736Z" fill="url(#paint6_linear_3224_1783)"/>
<path d="M12.3195 32.667C9.32295 32.667 6.44772 31.536 4.22338 29.486C3.99445 29.2741 3.89878 28.9546 3.97395 28.654C4.62998 25.9872 7.00807 24.125 9.75689 24.125H14.8821C17.6309 24.125 20.009 25.9872 20.6667 28.6523C20.7419 28.9546 20.6445 29.2741 20.4173 29.4842C18.1913 31.536 15.316 32.667 12.3195 32.667ZM5.78144 28.5788C9.475 31.6556 15.164 31.6556 18.8575 28.5788C18.2425 26.9404 16.6725 25.8334 14.8821 25.8334H9.75689C7.96648 25.8334 6.39646 26.9404 5.78144 28.5788Z" fill="url(#paint7_linear_3224_1783)"/>
<path d="M12.3223 32.6676C5.72961 32.6676 0.363525 27.3032 0.363525 20.7088C0.363525 14.1144 5.72961 8.75 12.3223 8.75C18.915 8.75 24.2811 14.1144 24.2811 20.7088C24.2811 27.3032 18.915 32.6676 12.3223 32.6676ZM12.3223 10.4584C6.66923 10.4584 2.07193 15.0557 2.07193 20.7088C2.07193 26.3619 6.66923 30.9592 12.3223 30.9592C17.9754 30.9592 22.5727 26.3619 22.5727 20.7088C22.5727 15.0557 17.9754 10.4584 12.3223 10.4584Z" fill="url(#paint8_linear_3224_1783)"/>
<path d="M4.63228 37.7059C4.16076 37.7059 3.77808 37.4087 3.77808 36.9371V36.7663C3.77808 36.2948 4.16076 35.9121 4.63228 35.9121C5.10379 35.9121 5.48648 36.2948 5.48648 36.7663C5.48648 37.2378 5.10379 37.7059 4.63228 37.7059Z" fill="url(#paint9_linear_3224_1783)"/>
<path d="M4.63032 41.121C4.1588 41.121 3.77612 40.8237 3.77612 40.3522V40.1813C3.77612 39.7098 4.1588 39.3271 4.63032 39.3271C5.10184 39.3271 5.48452 39.7098 5.48452 40.1813C5.48452 40.6529 5.10184 41.121 4.63032 41.121Z" fill="url(#paint10_linear_3224_1783)"/>
<path d="M4.63032 44.5409C4.1588 44.5409 3.77612 44.2436 3.77612 43.7721V43.6013C3.77612 43.1298 4.1588 42.7471 4.63032 42.7471C5.10184 42.7471 5.48452 43.1298 5.48452 43.6013C5.48452 44.0728 5.10184 44.5409 4.63032 44.5409Z" fill="url(#paint11_linear_3224_1783)"/>
<path d="M38.5258 44.6227H37.0908C36.6193 44.6227 36.2366 44.24 36.2366 43.7685C36.2366 43.297 36.6193 42.9143 37.0908 42.9143H37.8373L38.2559 40.9752C38.3242 40.6541 38.572 40.4029 38.8897 40.3261C39.6961 40.1313 40.4819 39.8033 41.2251 39.3506C41.5002 39.1797 41.8538 39.1848 42.1288 39.3591L43.8202 40.4405L44.8674 39.3847L43.786 37.7071C43.6083 37.432 43.6049 37.0784 43.774 36.7999C44.2268 36.0568 44.5548 35.2709 44.7478 34.4645C44.8247 34.1468 45.0741 33.9008 45.3936 33.829L47.3395 33.3968V31.9327L45.3936 31.5005C45.0741 31.4287 44.8247 31.1827 44.7478 30.8649C44.5548 30.0586 44.2251 29.2727 43.774 28.5295C43.6032 28.2511 43.6066 27.8991 43.7843 27.6241L44.8674 25.9311L43.8219 24.8855L42.1288 25.9687C41.8555 26.1446 41.5019 26.148 41.2251 25.9772C40.4802 25.5245 39.6944 25.1965 38.8897 25.0017C38.5702 24.9248 38.3242 24.672 38.2559 24.3525L37.8373 22.4135H37.0908C36.6193 22.4135 36.2366 22.0308 36.2366 21.5593C36.2366 21.0878 36.6193 20.7051 37.0908 20.7051H38.5258C38.9273 20.7051 39.2758 20.987 39.3595 21.3799L39.8157 23.4864C40.4409 23.676 41.0543 23.9322 41.6454 24.2517L43.4802 23.078C43.8185 22.8645 44.2609 22.9089 44.5445 23.1942L46.5621 25.2101C46.8457 25.4937 46.8936 25.9362 46.6766 26.2745L45.5029 28.1093C45.8224 28.7021 46.0787 29.3154 46.2683 29.9424L48.3782 30.4105C48.7694 30.4976 49.0479 30.8444 49.0479 31.2442V34.0801C49.0479 34.4799 48.7694 34.8284 48.3782 34.9138L46.2683 35.3819C46.0787 36.0089 45.8224 36.6222 45.5029 37.2133L46.6749 39.0311C46.8936 39.3676 46.8474 39.8118 46.5638 40.0954L44.5462 42.1284C44.2626 42.4137 43.8202 42.4633 43.4802 42.2463L41.6454 41.0726C41.0526 41.3921 40.4409 41.6484 39.8157 41.838L39.3595 43.9444C39.2758 44.3408 38.9273 44.6227 38.5258 44.6227Z" fill="url(#paint12_linear_3224_1783)"/>
<path d="M38.8906 37.3912C38.5695 37.3912 38.262 37.2084 38.1167 36.8974C37.9186 36.4703 38.1031 35.9612 38.5302 35.7631C39.7312 35.2027 40.5085 33.9863 40.5085 32.6623C40.5085 30.7779 38.9761 29.2455 37.0917 29.2455C36.6287 29.2455 36.1828 29.3361 35.7643 29.5137C35.332 29.6999 34.8298 29.4966 34.6453 29.061C34.4608 28.6271 34.6641 28.1265 35.098 27.942C35.7267 27.6738 36.3998 27.5371 37.0917 27.5371C39.9174 27.5371 42.2169 29.8366 42.2169 32.6623C42.2169 34.6492 41.0518 36.4738 39.2511 37.3109C39.1332 37.3655 39.0119 37.3912 38.8906 37.3912Z" fill="url(#paint13_linear_3224_1783)"/>
<path d="M41.3625 15.5836H31.1121C29.2277 15.5836 27.6953 14.0512 27.6953 12.1668C27.6953 10.2824 29.2277 8.75 31.1121 8.75H41.3625C43.2469 8.75 44.7793 10.2824 44.7793 12.1668C44.7793 14.0512 43.2469 15.5836 41.3625 15.5836ZM31.1121 10.4584C30.1691 10.4584 29.4037 11.2255 29.4037 12.1668C29.4037 13.1081 30.1691 13.8752 31.1121 13.8752H41.3625C42.3056 13.8752 43.0709 13.1081 43.0709 12.1668C43.0709 11.2255 42.3056 10.4584 41.3625 10.4584H31.1121Z" fill="url(#paint14_linear_3224_1783)"/>
<defs>
<linearGradient id="paint0_linear_3224_1783" x1="22.5694" y1="3.62305" x2="22.5694" y2="5.33145" gradientUnits="userSpaceOnUse">
<stop stop-color="#4556EC"/>
<stop offset="1" stop-color="#6472ED"/>
</linearGradient>
<linearGradient id="paint1_linear_3224_1783" x1="22.572" y1="17.2891" x2="22.572" y2="51.4571" gradientUnits="userSpaceOnUse">
<stop stop-color="#4556EC"/>
<stop offset="1" stop-color="#6472ED"/>
</linearGradient>
<linearGradient id="paint2_linear_3224_1783" x1="22.57" y1="0.200195" x2="22.57" y2="7.0338" gradientUnits="userSpaceOnUse">
<stop stop-color="#4556EC"/>
<stop offset="1" stop-color="#6472ED"/>
</linearGradient>
<linearGradient id="paint3_linear_3224_1783" x1="18.2988" y1="39.4971" x2="18.2988" y2="41.2055" gradientUnits="userSpaceOnUse">
<stop stop-color="#4556EC"/>
<stop offset="1" stop-color="#6472ED"/>
</linearGradient>
<linearGradient id="paint4_linear_3224_1783" x1="20.8622" y1="42.9131" x2="20.8622" y2="44.6215" gradientUnits="userSpaceOnUse">
<stop stop-color="#4556EC"/>
<stop offset="1" stop-color="#6472ED"/>
</linearGradient>
<linearGradient id="paint5_linear_3224_1783" x1="22.5698" y1="36.0801" x2="22.5698" y2="37.7885" gradientUnits="userSpaceOnUse">
<stop stop-color="#4556EC"/>
<stop offset="1" stop-color="#6472ED"/>
</linearGradient>
<linearGradient id="paint6_linear_3224_1783" x1="12.3208" y1="13.8652" x2="12.3208" y2="22.4072" gradientUnits="userSpaceOnUse">
<stop stop-color="#4556EC"/>
<stop offset="1" stop-color="#6472ED"/>
</linearGradient>
<linearGradient id="paint7_linear_3224_1783" x1="12.3202" y1="24.125" x2="12.3202" y2="32.667" gradientUnits="userSpaceOnUse">
<stop stop-color="#4556EC"/>
<stop offset="1" stop-color="#6472ED"/>
</linearGradient>
<linearGradient id="paint8_linear_3224_1783" x1="12.3223" y1="8.75" x2="12.3223" y2="32.6676" gradientUnits="userSpaceOnUse">
<stop stop-color="#4556EC"/>
<stop offset="1" stop-color="#6472ED"/>
</linearGradient>
<linearGradient id="paint9_linear_3224_1783" x1="4.63228" y1="35.9121" x2="4.63228" y2="37.7059" gradientUnits="userSpaceOnUse">
<stop stop-color="#4556EC"/>
<stop offset="1" stop-color="#6472ED"/>
</linearGradient>
<linearGradient id="paint10_linear_3224_1783" x1="4.63032" y1="39.3271" x2="4.63032" y2="41.121" gradientUnits="userSpaceOnUse">
<stop stop-color="#4556EC"/>
<stop offset="1" stop-color="#6472ED"/>
</linearGradient>
<linearGradient id="paint11_linear_3224_1783" x1="4.63032" y1="42.7471" x2="4.63032" y2="44.5409" gradientUnits="userSpaceOnUse">
<stop stop-color="#4556EC"/>
<stop offset="1" stop-color="#6472ED"/>
</linearGradient>
<linearGradient id="paint12_linear_3224_1783" x1="42.6422" y1="20.7051" x2="42.6422" y2="44.6227" gradientUnits="userSpaceOnUse">
<stop stop-color="#4556EC"/>
<stop offset="1" stop-color="#6472ED"/>
</linearGradient>
<linearGradient id="paint13_linear_3224_1783" x1="38.397" y1="27.5371" x2="38.397" y2="37.3912" gradientUnits="userSpaceOnUse">
<stop stop-color="#4556EC"/>
<stop offset="1" stop-color="#6472ED"/>
</linearGradient>
<linearGradient id="paint14_linear_3224_1783" x1="36.2373" y1="8.75" x2="36.2373" y2="15.5836" gradientUnits="userSpaceOnUse">
<stop stop-color="#4556EC"/>
<stop offset="1" stop-color="#6472ED"/>
</linearGradient>
</defs>
</svg>
