<svg width="54" height="51" viewBox="0 0 54 51" fill="none" xmlns="http://www.w3.org/2000/svg">
<path d="M11.4652 11.9001C14.0691 9.39007 17.6378 7.83625 21.5138 7.51183C26.9094 7.0252 31.2465 7.60574 34.4309 9.21932L33.6967 10.7304C33.4491 11.2512 33.5089 11.8489 33.8504 12.3099C34.1406 12.6941 34.5931 12.916 35.0627 12.916C35.1481 12.916 35.242 12.9075 35.3359 12.8904L43.8819 11.3708H43.8904C44.3685 11.2768 44.7698 10.9695 44.9832 10.5341C45.1966 10.0901 45.1881 9.59497 44.9576 9.15956L40.8938 1.53562C40.6206 1.02337 40.0827 0.716023 39.5192 0.733098C38.9387 0.750173 38.4179 1.08313 38.1703 1.62099L37.8288 2.37229C27.7034 -0.564594 14.8716 1.15997 9.36497 10.2182C9.0064 10.8073 9.143 11.5415 9.68086 11.9769C10.2102 12.4038 10.9615 12.3782 11.4652 11.9001ZM38.0337 4.19076C38.435 4.31883 38.8789 4.12246 39.0497 3.73828L39.5619 2.61134L43.3696 9.76572L35.3359 11.1915L36.2835 9.24493C36.4714 8.85221 36.3348 8.37411 35.9506 8.15214C33.1418 6.50441 29.4792 5.66774 25.0227 5.66774C23.853 5.66774 22.6322 5.7275 21.3601 5.83849C18.0134 6.11169 14.8546 7.23863 12.2592 9.06565C18.0817 2.34668 29.2401 1.41609 38.0337 4.19076Z" fill="url(#paint0_linear_3224_2120)"/>
<path d="M52.2476 19.4382C51.9402 18.8235 51.2487 18.5418 50.5998 18.7638C49.951 18.9858 49.5753 19.6346 49.7034 20.3176C50.4291 23.8606 49.8315 27.711 48.0215 31.1516C45.5371 35.9667 42.7283 39.3219 39.6548 41.1404L38.7755 39.7147C38.4681 39.228 37.9303 38.9548 37.3583 38.9975C36.7863 39.0487 36.2911 39.4073 36.0776 39.9366L32.7822 47.9618V47.9704C32.6029 48.4229 32.6456 48.9266 32.9103 49.3449C33.1664 49.7632 33.5932 50.0194 34.0884 50.0621L42.7027 50.7109C42.7454 50.7109 42.7881 50.7194 42.8222 50.7194C43.3515 50.7194 43.8382 50.4462 44.1199 49.9852C44.4187 49.49 44.4102 48.8668 44.0943 48.3716L43.6418 47.6801C51.539 40.6965 56.9517 28.9404 52.2476 19.4382ZM41.9856 46.8776C41.6611 47.1508 41.5928 47.6203 41.8233 47.9789L42.4978 49.0205L34.4128 48.4058L37.5119 40.8587L38.6474 42.7028C38.8779 43.0784 39.356 43.2065 39.7487 43.0101C43.4028 41.1319 46.6897 37.401 49.5156 31.9285C51.0779 28.9489 51.8122 25.6876 51.667 22.5203C54.2283 31.015 49.0375 40.9441 41.9856 46.8776Z" fill="url(#paint1_linear_3224_2120)"/>
<path d="M22.2564 48.3559C18.8926 47.024 15.9899 44.4286 14.0946 41.0393C11.4138 36.3351 10.1332 32.1518 10.2783 28.5831L11.9602 28.6258C12.4981 28.6258 13.0615 28.327 13.3347 27.8233C13.6079 27.3196 13.5738 26.7134 13.2494 26.2354L8.31472 19.098C8.31472 19.098 8.31472 19.0895 8.30619 19.0895C8.02445 18.6882 7.5805 18.4577 7.09387 18.4492C6.5987 18.4236 6.15475 18.6541 5.8474 19.0468L0.60541 25.9109C0.255375 26.3719 0.195613 26.9781 0.443199 27.4904C0.699322 28.0111 1.22011 28.3441 1.81773 28.3526H2.64586C4.1826 38.7854 11.0809 49.7389 21.6161 50.9769C21.6673 50.9854 21.7271 50.9854 21.7783 50.9854C22.393 50.9854 22.9308 50.5756 23.0845 49.9609C23.2382 49.2779 22.8967 48.612 22.2564 48.3559ZM4.19968 27.3964C4.14845 26.9781 3.78988 26.6622 3.36301 26.6622H2.12508L7.04265 20.225L11.6785 26.9354L9.51851 26.8842C9.07456 26.85 8.70745 27.2001 8.66476 27.6355C8.24643 31.7249 9.57827 36.5144 12.6261 41.8674C14.2653 44.8043 16.6046 47.1948 19.3366 48.7998C10.8162 46.3069 5.32662 36.54 4.19968 27.3964Z" fill="url(#paint2_linear_3224_2120)"/>
<path d="M25.9438 34.5824L26.8658 34.2751L38.5365 35.385C38.6133 35.3935 38.6816 35.3935 38.7499 35.3935C39.4415 35.3935 40.0903 35.0862 40.5343 34.5398C40.9953 33.9592 41.1404 33.1994 40.9099 32.4993L40.1928 30.3137C42.6003 29.1099 43.8383 26.284 42.9674 23.6545C42.0966 21.025 39.4244 19.4882 36.7778 19.9578L35.8387 17.0892C35.6082 16.3977 35.0362 15.8684 34.3105 15.672C33.5677 15.4756 32.7823 15.6635 32.2017 16.1757L23.485 24.0131L18.8321 25.5498C16.2282 26.4121 14.7512 29.6137 15.6647 32.4054C16.1001 33.7116 17.0221 34.7703 18.2515 35.3935C18.9431 35.7435 19.6602 35.9399 20.3517 35.9997L22.6312 42.9235C22.7849 43.4016 23.1179 43.7858 23.5618 44.0078C23.8265 44.1444 24.1082 44.2041 24.3985 44.2041C24.5949 44.2041 24.7912 44.17 24.9876 44.1102L26.917 43.4699C27.3866 43.3163 27.7708 42.9918 28.0013 42.5479C28.2318 42.1039 28.266 41.5917 28.1123 41.1221L25.9438 34.5824ZM41.3795 24.1838C41.9515 25.9169 41.2087 27.7696 39.7061 28.6745L37.3669 21.5714C39.1085 21.4006 40.8075 22.4507 41.3795 24.1838ZM33.3201 17.4393C33.5421 17.2429 33.7811 17.277 33.8836 17.3027C33.986 17.3283 34.1739 17.4051 34.2422 17.6271L35.7021 22.0666C35.7106 22.1007 35.7277 22.1263 35.7362 22.1605L39.3134 33.0372C39.3817 33.2506 39.2793 33.4214 39.2195 33.4982C39.1597 33.575 38.989 33.7543 38.6902 33.7202L27.3951 32.6359L26.6182 30.271L24.8851 25.012L33.3201 17.4393ZM17.2612 31.8846C16.638 29.9808 17.6368 27.7183 19.3614 27.1463L23.3825 25.823L24.0485 27.8379L25.7133 32.8835L24.629 33.2421L22.8959 33.8141L21.6921 34.2153C21.4531 34.2922 21.214 34.3349 20.9664 34.3434C20.181 34.3946 19.4724 34.1214 19.0028 33.8909C18.1747 33.4811 17.5515 32.764 17.2612 31.8846ZM26.4987 41.7966C26.4816 41.8222 26.456 41.8649 26.3963 41.882H26.3877L24.4583 42.5223C24.3985 42.5393 24.3473 42.5308 24.3217 42.5137C24.2875 42.4967 24.2534 42.4625 24.2277 42.4027L22.0678 35.8545C22.119 35.8375 22.1617 35.8289 22.2129 35.8118L24.3473 35.1032L26.5072 41.6515C26.5329 41.7197 26.5158 41.771 26.4987 41.7966Z" fill="url(#paint3_linear_3224_2120)"/>
<defs>
<linearGradient id="paint0_linear_3224_2120" x1="27.1485" y1="-3.28036" x2="27.1485" y2="47.5345" gradientUnits="userSpaceOnUse">
<stop stop-color="#FF61A3"/>
<stop offset="1" stop-color="#821DFE"/>
</linearGradient>
<linearGradient id="paint1_linear_3224_2120" x1="43.337" y1="-3.28076" x2="43.337" y2="47.5341" gradientUnits="userSpaceOnUse">
<stop stop-color="#FF61A3"/>
<stop offset="1" stop-color="#821DFE"/>
</linearGradient>
<linearGradient id="paint2_linear_3224_2120" x1="11.6947" y1="-3.27946" x2="11.6947" y2="47.5354" gradientUnits="userSpaceOnUse">
<stop stop-color="#FF61A3"/>
<stop offset="1" stop-color="#821DFE"/>
</linearGradient>
<linearGradient id="paint3_linear_3224_2120" x1="29.3203" y1="-3.28198" x2="29.3203" y2="47.5329" gradientUnits="userSpaceOnUse">
<stop stop-color="#FF61A3"/>
<stop offset="1" stop-color="#821DFE"/>
</linearGradient>
</defs>
</svg>
