<svg width="238" height="165" viewBox="0 0 238 165" fill="none" xmlns="http://www.w3.org/2000/svg">
<g filter="url(#filter0_d_5015_2783)">
<rect x="8" y="8" width="221.762" height="148.232" rx="10.0633" fill="#111616"/>
</g>
<path fill-rule="evenodd" clip-rule="evenodd" d="M30.4321 85.6615C30.4321 89.5726 40.5923 92.7477 53.1272 92.7477V99.8306C40.5923 99.8306 30.4321 96.6588 30.4321 92.7477V85.6615ZM75.8295 85.6615V92.746C75.8295 94.4162 73.9731 95.9481 70.8819 97.1598L53.1254 92.746V85.6615L70.8812 90.0739C73.9727 88.8636 75.8305 87.3316 75.8291 85.6618M53.1272 64.4023C65.6637 64.4023 75.8295 67.5799 75.8295 71.4886V78.5783C75.8295 80.2426 73.9731 81.7804 70.8829 82.9869L53.1275 78.5783V85.6615C40.592 85.6615 30.4321 82.4884 30.4321 78.5787V71.4883C30.4321 67.5799 40.5923 64.4023 53.1272 64.4023ZM95.4706 72.6198C99.0217 72.6198 101.149 73.8059 102.897 75.5258L100.261 78.5655C98.8075 77.2474 97.3273 76.4407 95.4447 76.4407C92.2688 76.4407 89.9844 79.0769 89.9844 82.3046V82.3605C89.9844 85.5882 92.2156 88.279 95.4447 88.279C97.5972 88.279 98.9136 87.4191 100.393 86.0723L103.029 88.7344C101.095 90.8077 98.9426 92.0999 95.3113 92.0999C89.7674 92.0999 85.6521 87.8212 85.6521 82.412V82.3605C85.6521 77.0077 89.6869 72.6198 95.4706 72.6198ZM143.515 77.0854C148.33 77.0854 150.537 80.8258 150.537 84.9166V84.9694C150.537 85.373 150.511 85.6155 150.484 85.9932H140.449C140.851 87.8485 142.143 88.8159 143.974 88.8159C145.347 88.8159 146.34 88.384 147.47 87.3358L149.813 89.4091C148.465 91.0779 146.528 92.0999 143.919 92.0999C139.587 92.0999 136.383 89.0602 136.383 84.6478V84.5918C136.383 80.4755 139.317 77.0854 143.515 77.0854ZM111.881 77.1929C116.348 77.1929 118.314 79.506 118.314 83.4102V91.7755H114.355V90.2162C113.361 91.3187 111.99 92.0453 109.997 92.0453C107.282 92.0453 105.048 90.4847 105.048 87.6333V87.5769C105.048 84.4284 107.441 82.9749 110.857 82.9749C112.312 82.9749 113.361 83.2177 114.385 83.5667V83.3269C114.385 81.634 113.336 80.6907 111.289 80.6907C109.73 80.6907 108.627 80.9879 107.309 81.4705L106.286 78.3503C107.873 77.6482 109.434 77.1929 111.881 77.1929ZM125.924 72.133V82.6034L130.715 77.3552H135.61L130.122 83.0301L135.798 91.7758H131.119L127.351 85.8847L125.924 87.3911V91.7758H121.837V72.133H125.924ZM161.704 72.9414C166.195 72.9414 168.913 75.6049 168.913 79.4559V79.5077C168.912 83.8652 165.522 86.1255 161.298 86.1255H158.153V91.7755H154.009V72.9414H161.704ZM176.121 72.9414V80.395H183.763V72.9414H187.905V91.7755H183.763V84.2114H176.121V91.7755H171.979V72.9414H176.121ZM200.119 72.9414C204.61 72.9414 207.33 75.6049 207.33 79.4559V79.5077C207.331 83.8652 203.941 86.1255 199.718 86.1255H196.568V91.7755H192.424V72.9414H200.119ZM111.829 85.4262C110.081 85.4262 109.002 86.1255 109.002 87.4177V87.4709C109.002 88.572 109.918 89.2181 111.235 89.2181C113.144 89.2181 114.438 88.1729 114.438 86.6897V85.9645C113.74 85.6387 112.823 85.4262 111.829 85.4262ZM143.516 80.3691C141.822 80.3691 140.716 81.5794 140.394 83.4347H146.557C146.313 81.6039 145.237 80.3691 143.516 80.3691M161.352 76.6832H158.152V82.4438H161.434C163.505 82.4438 164.715 81.2017 164.715 79.591V79.5333C164.715 77.6779 163.426 76.6832 161.352 76.6832ZM199.77 76.6829H196.568V82.4435H199.849C201.922 82.4435 203.133 81.2014 203.133 79.5906V79.5329C203.133 77.6776 201.842 76.6829 199.77 76.6829Z" fill="#D33C44"/>
<defs>
<filter id="filter0_d_5015_2783" x="0.200954" y="0.200954" width="237.36" height="163.831" filterUnits="userSpaceOnUse" color-interpolation-filters="sRGB">
<feFlood flood-opacity="0" result="BackgroundImageFix"/>
<feColorMatrix in="SourceAlpha" type="matrix" values="0 0 0 0 0 0 0 0 0 0 0 0 0 0 0 0 0 0 127 0" result="hardAlpha"/>
<feOffset/>
<feGaussianBlur stdDeviation="3.89952"/>
<feComposite in2="hardAlpha" operator="out"/>
<feColorMatrix type="matrix" values="0 0 0 0 0.223529 0 0 0 0 0.419608 0 0 0 0 0.858824 0 0 0 1 0"/>
<feBlend mode="normal" in2="BackgroundImageFix" result="effect1_dropShadow_5015_2783"/>
<feBlend mode="normal" in="SourceGraphic" in2="effect1_dropShadow_5015_2783" result="shape"/>
</filter>
</defs>
</svg>
