<svg width="238" height="165" viewBox="0 0 238 165" fill="none" xmlns="http://www.w3.org/2000/svg">
<g filter="url(#filter0_d_5015_2780)">
<rect x="8" y="8" width="221.762" height="148.232" rx="10.0633" fill="#111616"/>
</g>
<path d="M82.0071 121.419C80.3326 121.419 79.8456 120.444 79.8456 118.983C79.8456 118.497 79.907 117.947 79.9823 117.369C80.3489 114.842 81.2444 113.397 83.4059 113.397C84.8676 113.397 85.5806 114.051 85.5806 115.238V115.817H87.0306C87.0469 115.817 87.0469 115.284 87.0469 115.163C87.0469 113.428 85.9961 111.782 83.4082 111.782C79.8914 111.782 78.4453 113.693 77.9125 117.438C77.8342 117.925 77.7934 118.417 77.7905 118.91C77.7905 121.118 78.6589 123.126 81.764 123.126C84.1235 123.126 85.5247 121.975 86.3464 120.559L84.9608 119.627C84.063 121.042 83.0882 121.419 82.0071 121.419ZM91.5221 114.447C88.7051 114.447 87.4881 115.892 87.0772 118.769C87.0306 119.105 87.0003 119.455 87.0003 119.774C87.0003 121.631 87.8679 123.108 90.2725 123.108C93.0895 123.108 94.3228 121.601 94.7337 118.769C94.7795 118.404 94.8098 118.069 94.8098 117.735C94.8106 115.847 93.9128 114.447 91.5221 114.447ZM92.6941 118.77C92.3897 120.856 91.7357 121.495 90.5016 121.495C89.5129 121.495 89.0259 121.084 89.0259 119.851C89.0259 119.547 89.057 119.182 89.1176 118.77C89.422 116.7 90.0309 116.061 91.279 116.061C92.2841 116.061 92.7858 116.472 92.7858 117.72C92.7858 118.024 92.7552 118.374 92.6941 118.77ZM101.891 111.934L101.419 114.728C101.389 114.971 101.405 114.89 101.496 115.119C101.055 114.784 100.263 114.563 99.7301 114.563C97.2027 114.563 95.7876 115.707 95.331 118.903C95.2704 119.284 95.2548 119.605 95.2548 119.924C95.2548 122.254 96.6249 123.122 98.4664 123.122C99.2439 123.122 100.004 123.139 100.598 122.637L100.749 123.584H102.211L103.916 111.934H101.891ZM100.445 121.053C99.9116 121.375 99.3024 121.548 98.68 121.556C97.5686 121.556 97.2641 120.977 97.2641 120.049C97.2641 119.699 97.3099 119.289 97.3713 118.846C97.7208 116.426 98.4975 115.999 99.5025 115.999C100.156 115.999 100.658 116.106 101.131 116.365L100.445 121.053ZM108.361 114.447C105.575 114.447 104.267 115.77 103.825 118.769C103.778 119.135 103.748 119.485 103.748 119.82C103.748 121.875 104.799 123.108 107.112 123.108C108.908 123.108 110.249 122.362 110.964 120.992L109.426 120.368C108.985 121.037 108.392 121.494 107.341 121.494C106.215 121.494 105.758 121.191 105.758 120.186C105.758 119.988 105.773 119.7 105.804 119.7H111.299C111.376 118.923 111.466 118.374 111.466 117.919C111.466 116.397 110.888 114.447 108.361 114.447ZM109.411 118.147H106.062C106.398 117.37 106.96 116.168 108.117 116.168C109.015 116.168 109.457 116.693 109.457 117.591C109.456 117.743 109.442 118.147 109.411 118.147ZM117.324 114.264L117.507 112.71H113.213L113.031 114.264H114.158L112.941 122.03H111.813L111.631 123.584H115.924L116.107 122.03H114.98L116.197 114.264H117.324ZM126.048 116.594L126.596 115.04H125.12L124.055 115.26C123.461 114.88 122.654 114.595 121.893 114.595C119.715 114.595 117.859 115.647 117.859 118.038C117.859 118.708 118.102 119.249 118.391 119.615C117.935 119.858 117.539 120.265 117.539 120.814C117.539 121.057 117.63 121.307 117.813 121.534C116.899 122.083 116.338 122.993 116.338 124.058C116.338 126.113 118.484 126.552 120.128 126.552C122.198 126.552 124.664 126.079 124.664 123.445C124.664 122.548 124.101 121.846 122.473 121.542L119.534 120.993C119.2 120.931 119.124 120.825 119.124 120.673C119.124 120.444 119.262 120.323 119.489 120.323L119.688 120.354C120.084 120.444 120.54 120.491 121.012 120.491C123.128 120.491 125.015 119.577 125.015 117.203C125.015 116.867 124.955 116.64 124.803 116.274C125.061 116.396 125.397 116.594 125.533 116.594L126.048 116.594ZM121.862 122.895C122.44 123.002 122.637 123.215 122.637 123.595C122.637 124.829 121.313 124.981 120.355 124.981C118.893 124.981 118.345 124.631 118.345 123.854C118.345 123.169 118.543 122.85 119 122.362L121.862 122.895ZM121.237 118.907C120.354 118.907 119.867 118.588 119.867 117.826C119.867 116.7 120.522 116.045 121.663 116.045C122.577 116.045 123.019 116.426 123.019 117.171C123.019 118.298 122.379 118.907 121.237 118.907ZM131.456 114.447C130.603 114.447 129.843 114.866 128.898 115.61L128.761 115.04H127.086L125.914 123.584H127.939L128.822 117.105C129.416 116.74 130.146 116.209 130.771 116.209C131.531 116.209 131.806 116.577 131.806 117.276C131.806 117.444 131.79 117.94 131.759 118.123L131.015 123.584H133.039L133.784 118.079C133.815 117.821 133.846 117.397 133.846 117.154C133.846 115.706 133.16 114.447 131.456 114.447ZM137.692 121.443L137.707 121.234L138.589 115.04H135.225L135.013 116.594H136.489C136.367 116.594 136.29 116.73 136.276 116.852L135.667 120.977C135.637 121.236 135.622 121.495 135.622 121.755C135.622 122.821 136.2 123.584 137.386 123.584H138.422L138.65 122.03H137.996C137.767 122.03 137.692 121.626 137.692 121.443ZM139 111.934H137.021C136.899 111.934 136.899 111.485 136.885 111.638L136.61 113.826C136.594 113.964 136.594 114.264 136.716 114.264H138.696C138.818 114.264 138.818 113.732 138.833 113.593L139.107 111.904C139.123 111.752 139.123 111.934 139 111.934ZM143.129 121.495C142.627 121.495 142.384 121.282 142.384 120.826L142.399 120.795L143.038 116.594H145.352L146.052 115.04H143.251L143.722 111.622L141.592 112.303L141.211 115.04H139.978L139.765 116.594H141.196C141.059 117.37 140.922 116.866 140.907 117.019L140.359 120.703C140.328 120.871 140.328 120.993 140.328 121.144C140.328 122.59 141.394 123.132 142.674 123.132C143.861 123.132 144.82 122.785 145.566 122.16L144.622 120.998C144.149 121.287 143.83 121.495 143.129 121.495ZM150.558 114.447C147.772 114.447 146.463 115.77 146.021 118.769C145.976 119.135 145.945 119.485 145.945 119.82C145.945 121.875 146.995 123.108 149.309 123.108C151.106 123.108 152.446 122.362 153.161 120.992L151.624 120.368C151.182 121.037 150.588 121.494 149.537 121.494C148.412 121.494 147.955 121.191 147.955 120.186C147.955 119.988 147.971 119.7 148.001 119.7H153.496C153.572 118.923 153.664 118.374 153.664 117.919C153.664 116.397 153.085 114.447 150.558 114.447ZM151.609 118.147H148.26C148.595 117.37 149.157 116.168 150.315 116.168C151.213 116.168 151.655 116.693 151.655 117.591C151.654 117.743 151.639 118.147 151.609 118.147ZM159.266 114.447C158.535 114.447 157.85 114.866 157.165 115.519L157.043 115.04H155.37L154.197 123.584H156.237L157.135 116.968C157.668 116.649 158.277 116.376 158.855 116.376C159.221 116.376 159.571 116.318 159.905 116.364L160.165 114.598C159.859 114.538 159.555 114.447 159.266 114.447ZM107.568 105.814C102.96 103.823 98.6481 98.7604 98.638 93.5808C98.6256 87.9336 102.205 83.1392 106.656 79.9882C106.121 82.0099 105.829 83.8591 107.154 85.6672C107.767 86.4943 108.604 87.1277 109.567 87.4921C110.53 87.8565 111.577 87.9364 112.583 87.7223C117.346 86.68 117.564 81.4444 114.741 78.3944C111.949 75.3739 109.249 71.962 110.311 67.5816C110.843 65.3859 112.192 63.3293 113.9 61.859C112.587 65.309 116.318 68.7116 118.776 70.4063C123.04 73.3468 127.718 75.5689 131.638 79.0158C135.762 82.6382 138.808 87.5367 138.193 93.2173C137.526 99.3748 132.633 103.657 127.145 105.82C138.742 103.26 150.726 94.2588 150.971 81.3963C151.175 70.8149 143.916 62.6714 134.924 58.009L134.454 57.7527C134.701 58.3516 134.781 58.8611 134.772 59.317C134.856 58.9765 134.906 58.6287 134.923 58.2785C134.921 58.7022 134.865 59.1239 134.758 59.5337L134.772 59.317C134.638 59.8787 134.414 60.4147 134.106 60.9037L134.239 60.7616C132.444 63.737 127.588 64.3832 125.189 61.3021C121.332 56.3462 125.269 51.0027 125.82 45.7547C126.51 39.177 122.385 32.7919 117.27 28.9707C120.087 33.5275 116.377 39.556 113.407 42.926C110.528 46.1935 107.027 48.9212 103.849 51.8896C100.434 55.0779 97.1523 58.4362 94.3461 62.1782C88.7339 69.6677 85.2979 79.0872 87.8228 88.4314C90.3463 97.7686 98.4346 103.713 107.568 105.814Z" fill="#DC2323"/>
<defs>
<filter id="filter0_d_5015_2780" x="0.200954" y="0.200954" width="237.36" height="163.831" filterUnits="userSpaceOnUse" color-interpolation-filters="sRGB">
<feFlood flood-opacity="0" result="BackgroundImageFix"/>
<feColorMatrix in="SourceAlpha" type="matrix" values="0 0 0 0 0 0 0 0 0 0 0 0 0 0 0 0 0 0 127 0" result="hardAlpha"/>
<feOffset/>
<feGaussianBlur stdDeviation="3.89952"/>
<feComposite in2="hardAlpha" operator="out"/>
<feColorMatrix type="matrix" values="0 0 0 0 0.223529 0 0 0 0 0.419608 0 0 0 0 0.858824 0 0 0 1 0"/>
<feBlend mode="normal" in2="BackgroundImageFix" result="effect1_dropShadow_5015_2780"/>
<feBlend mode="normal" in="SourceGraphic" in2="effect1_dropShadow_5015_2780" result="shape"/>
</filter>
</defs>
</svg>
