<svg width="238" height="165" viewBox="0 0 238 165" fill="none" xmlns="http://www.w3.org/2000/svg">
<g filter="url(#filter0_d_5015_2777)">
<rect x="8" y="8" width="221.762" height="148.232" rx="10.0633" fill="#111616"/>
</g>
<path d="M165.18 50.2224C165.215 50.3495 165.233 50.4806 165.233 50.6124V71.097C165.233 71.6322 164.947 72.1265 164.482 72.3927L147.289 82.292V101.912C147.289 102.174 147.22 102.432 147.089 102.66C146.958 102.887 146.77 103.076 146.543 103.208L110.653 123.868C110.571 123.915 110.482 123.944 110.392 123.976C110.358 123.987 110.327 124.008 110.291 124.017C110.04 124.083 109.777 124.083 109.526 124.017C109.484 124.007 109.447 123.984 109.408 123.969C109.326 123.939 109.24 123.913 109.162 123.868L73.2796 103.208C73.0516 103.077 72.8622 102.888 72.7304 102.66C72.5986 102.433 72.5291 102.175 72.5289 101.912V40.4581C72.5289 40.3234 72.5478 40.1926 72.5811 40.0659C72.5923 40.0228 72.6184 39.9837 72.6336 39.9406C72.6615 39.8624 72.6879 39.782 72.7288 39.7092C72.7567 39.6607 72.7976 39.6216 72.8313 39.5767C72.8744 39.5169 72.9135 39.4554 72.9638 39.4029C73.0069 39.3601 73.0631 39.3283 73.1116 39.291C73.1659 39.2461 73.2141 39.1975 73.2756 39.162H73.2774L91.2192 28.8321C91.4465 28.7015 91.704 28.6328 91.9661 28.6328C92.2282 28.6328 92.4857 28.7015 92.713 28.8321L110.655 39.162H110.658C110.718 39.1997 110.769 39.2461 110.823 39.2891C110.871 39.3264 110.926 39.3601 110.968 39.4014C111.021 39.4554 111.058 39.5173 111.103 39.5767C111.135 39.6216 111.178 39.6607 111.204 39.7092C111.246 39.7838 111.271 39.8624 111.301 39.941C111.316 39.9837 111.342 40.0228 111.353 40.0677C111.387 40.1948 111.405 40.3263 111.405 40.4581V78.841L126.356 70.2322V50.6106C126.356 50.4802 126.375 50.3473 126.409 50.2224C126.422 50.1775 126.446 50.1384 126.461 50.0956C126.491 50.0171 126.517 49.9363 126.558 49.8639C126.586 49.8154 126.627 49.7762 126.659 49.7313C126.703 49.6716 126.741 49.61 126.793 49.5575C126.836 49.5148 126.89 49.4829 126.939 49.4456C126.995 49.4007 127.043 49.3522 127.103 49.3167H127.105L145.049 38.9868C145.276 38.8558 145.533 38.7869 145.795 38.7869C146.058 38.7869 146.315 38.8558 146.542 38.9868L164.484 49.3167C164.547 49.354 164.596 49.4007 164.652 49.4435C164.698 49.4811 164.753 49.5148 164.796 49.5557C164.848 49.61 164.885 49.6716 164.93 49.7313C164.964 49.7762 165.005 49.8154 165.031 49.8639C165.074 49.9363 165.098 50.0171 165.128 50.0956C165.145 50.1384 165.169 50.1775 165.18 50.2224ZM162.242 70.2326V53.1983L155.963 56.8127L147.289 61.8071V78.8414L162.244 70.2326H162.242ZM144.3 101.048V84.0013L135.768 88.8744L111.404 102.78V119.986L144.3 101.048ZM75.5197 43.0436V101.048L108.412 119.984V102.782L91.229 93.0565L91.2236 93.0529L91.2163 93.0493C91.1584 93.0156 91.1095 92.9671 91.0555 92.9262C91.0085 92.8885 90.9545 92.8588 90.9136 92.8175L90.91 92.8121C90.8614 92.7654 90.8278 92.7075 90.7868 92.6553C90.7492 92.6046 90.7046 92.5619 90.6746 92.5097L90.6728 92.5039C90.6391 92.4482 90.6185 92.3808 90.5942 92.3174C90.5699 92.2613 90.5384 92.2088 90.5232 92.1494V92.1476C90.5047 92.0766 90.5011 92.0017 90.4935 91.9289C90.4863 91.8731 90.4711 91.817 90.4711 91.7609V51.6528L81.7986 46.6562L75.5197 43.0458V43.0436ZM91.9681 31.8529L77.0189 40.4581L91.9645 49.0629L106.911 40.4559L91.9645 31.8529H91.9681ZM99.7422 85.5551L108.414 80.5629V43.0436L102.136 46.6584L93.4615 51.6524V89.1713L99.7422 85.5551ZM145.795 42.0076L130.848 50.6124L145.795 59.2175L160.74 50.6106L145.795 42.0076ZM144.3 61.8071L135.626 56.8127L129.347 53.1983V70.2326L138.019 75.2252L144.3 78.8414L144.3 61.8071ZM109.906 100.194L131.83 87.6779L142.79 81.4233L127.853 72.824L110.657 82.7244L94.9831 91.7478L109.906 100.194Z" fill="#FF2D20"/>
<defs>
<filter id="filter0_d_5015_2777" x="0.200954" y="0.200954" width="237.36" height="163.831" filterUnits="userSpaceOnUse" color-interpolation-filters="sRGB">
<feFlood flood-opacity="0" result="BackgroundImageFix"/>
<feColorMatrix in="SourceAlpha" type="matrix" values="0 0 0 0 0 0 0 0 0 0 0 0 0 0 0 0 0 0 127 0" result="hardAlpha"/>
<feOffset/>
<feGaussianBlur stdDeviation="3.89952"/>
<feComposite in2="hardAlpha" operator="out"/>
<feColorMatrix type="matrix" values="0 0 0 0 0.223529 0 0 0 0 0.419608 0 0 0 0 0.858824 0 0 0 1 0"/>
<feBlend mode="normal" in2="BackgroundImageFix" result="effect1_dropShadow_5015_2777"/>
<feBlend mode="normal" in="SourceGraphic" in2="effect1_dropShadow_5015_2777" result="shape"/>
</filter>
</defs>
</svg>
