<svg width="238" height="165" viewBox="0 0 238 165" fill="none" xmlns="http://www.w3.org/2000/svg">
<g filter="url(#filter0_d_5015_2816)">
<rect x="8" y="8" width="221.762" height="148.232" rx="10.0633" fill="#111616"/>
</g>
<path d="M26.5062 94.6799L26.7433 94.348L37.9566 73.0711L37.9803 72.8458L33.0374 63.5609C32.623 62.7832 31.4571 62.9798 31.3213 63.8505L26.5062 94.6799Z" fill="#FFC24A"/>
<path d="M26.6462 94.428L26.8255 94.0783L37.9214 73.0243L32.9907 63.7017C32.5809 62.9321 31.5402 63.1283 31.4058 63.9898L26.6462 94.428Z" fill="#FFA712"/>
<g filter="url(#filter1_i_5015_2816)">
<path d="M26.6462 94.428L26.8255 94.0783L37.9214 73.0243L32.9907 63.7017C32.5809 62.9321 31.5402 63.1283 31.4058 63.9898L26.6462 94.428Z" fill="#FDA512"/>
</g>
<path d="M41.5837 79.8674L45.2642 76.0982L41.5826 69.07C41.2332 68.4047 40.2574 68.4027 39.9116 69.07L37.9446 72.8211V73.1405L41.5837 79.8674Z" fill="#F4BD62"/>
<path d="M41.5182 79.7127L45.0964 76.0482L41.5182 69.2349C41.1785 68.5881 40.353 68.5203 40.0169 69.169L38.0395 72.9783L37.9803 73.1731L41.5182 79.7127Z" fill="#FFA50E"/>
<g filter="url(#filter2_i_5015_2816)">
<path d="M41.5182 79.7127L45.0964 76.0482L41.5182 69.2349C41.1785 68.5881 40.353 68.5203 40.0169 69.169L38.0395 72.9783L37.9803 73.1731L41.5182 79.7127Z" fill="#FCA412"/>
</g>
<path d="M26.5062 94.6785L26.6137 94.5704L27.0041 94.4118L41.3526 80.1165L41.5345 79.6216L37.9551 72.8008L26.5062 94.6785Z" fill="#F6820C"/>
<path d="M42.0435 101.889L55.0293 94.647L51.321 71.8086C51.205 71.094 50.3284 70.8116 49.8169 71.3239L26.5062 94.6798L39.4175 101.889C39.8189 102.113 40.2708 102.23 40.7304 102.23C41.1901 102.23 41.6421 102.113 42.0435 101.889Z" fill="#FDE068"/>
<path d="M54.9129 94.5847L51.2328 71.9198C51.1177 71.2106 50.3887 70.9172 49.8811 71.4257L26.6503 94.6339L39.4199 101.771C39.8181 101.994 40.2666 102.11 40.7228 102.111C41.1789 102.111 41.6275 101.994 42.0258 101.772L54.9129 94.5847Z" fill="#FCCA3F"/>
<path d="M42.0434 101.678C41.642 101.901 41.19 102.019 40.7304 102.019C40.2708 102.019 39.8189 101.901 39.4175 101.677L26.6102 94.5718L26.5063 94.6816L39.4175 101.89C39.8189 102.114 40.2708 102.232 40.7305 102.232C41.1901 102.232 41.6421 102.115 42.0435 101.891L55.0293 94.6488L54.9975 94.4531L42.0434 101.678Z" fill="#EEAB37"/>
<path d="M85.2532 70.6452V73.7192H75.5025V80.4951H83.1048V83.569H75.5025V93.6172H71.7345V70.6452H85.2532ZM90.6623 72.992C89.9792 72.992 89.4063 72.7606 88.9436 72.2979C88.4808 71.8351 88.2495 71.2622 88.2495 70.5791C88.2495 69.896 88.4808 69.3231 88.9436 68.8603C89.4063 68.3976 89.9792 68.1662 90.6623 68.1662C91.3234 68.1662 91.8853 68.3976 92.3481 68.8603C92.8108 69.3231 93.0422 69.896 93.0422 70.5791C93.0422 71.2622 92.8108 71.8351 92.3481 72.2979C91.8853 72.7606 91.3234 72.992 90.6623 72.992ZM92.5133 75.4049V93.6172H88.7453V75.4049H92.5133ZM101.229 78.0491C101.779 77.1236 102.507 76.4075 103.41 75.9007C104.336 75.3718 105.426 75.1074 106.682 75.1074V79.0077H105.724C104.247 79.0077 103.124 79.3823 102.352 80.1315C101.603 80.8807 101.229 82.1808 101.229 84.0318V93.6172H97.4605V75.4049H101.229V78.0491ZM126.838 84.0648C126.838 84.7479 126.794 85.3649 126.706 85.9158H112.79C112.9 87.3701 113.44 88.538 114.41 89.4194C115.379 90.3009 116.569 90.7416 117.98 90.7416C120.007 90.7416 121.439 89.8932 122.276 88.1965H126.342C125.791 89.8712 124.788 91.2484 123.334 92.3281C121.902 93.3858 120.117 93.9147 117.98 93.9147C116.239 93.9147 114.674 93.529 113.286 92.7578C111.92 91.9645 110.84 90.8628 110.047 89.4525C109.276 88.0202 108.89 86.3675 108.89 84.4945C108.89 82.6215 109.264 80.9798 110.014 79.5696C110.785 78.1373 111.854 77.0355 113.22 76.2643C114.608 75.493 116.195 75.1074 117.98 75.1074C119.698 75.1074 121.23 75.482 122.574 76.2312C123.918 76.9804 124.965 78.0381 125.714 79.4043C126.463 80.7485 126.838 82.302 126.838 84.0648ZM122.904 82.8749C122.882 81.4867 122.387 80.3739 121.417 79.5365C120.447 78.6992 119.247 78.2805 117.814 78.2805C116.514 78.2805 115.401 78.6992 114.476 79.5365C113.55 80.3518 113 81.4646 112.823 82.8749H122.904ZM134.314 78.1152C134.953 77.2338 135.823 76.5177 136.925 75.9668C138.049 75.3939 139.294 75.1074 140.66 75.1074C142.269 75.1074 143.723 75.493 145.023 76.2643C146.323 77.0355 147.348 78.1373 148.097 79.5696C148.846 80.9798 149.221 82.5995 149.221 84.4284C149.221 86.2573 148.846 87.899 148.097 89.3533C147.348 90.7856 146.312 91.9094 144.99 92.7248C143.69 93.518 142.247 93.9147 140.66 93.9147C139.25 93.9147 137.994 93.6392 136.892 93.0883C135.812 92.5374 134.953 91.8323 134.314 90.9729V93.6172H130.546V69.1578H134.314V78.1152ZM145.387 84.4284C145.387 83.1724 145.122 82.0926 144.594 81.1892C144.087 80.2637 143.404 79.5696 142.544 79.1068C141.707 78.6221 140.803 78.3797 139.834 78.3797C138.886 78.3797 137.983 78.6221 137.124 79.1068C136.286 79.5916 135.603 80.2968 135.074 81.2222C134.567 82.1477 134.314 83.2385 134.314 84.4945C134.314 85.7505 134.567 86.8523 135.074 87.7998C135.603 88.7253 136.286 89.4304 137.124 89.9152C137.983 90.4 138.886 90.6424 139.834 90.6424C140.803 90.6424 141.707 90.4 142.544 89.9152C143.404 89.4084 144.087 88.6812 144.594 87.7337C145.122 86.7862 145.387 85.6844 145.387 84.4284ZM151.691 84.4284C151.691 82.5995 152.066 80.9798 152.815 79.5696C153.586 78.1593 154.622 77.0686 155.922 76.2973C157.244 75.504 158.698 75.1074 160.285 75.1074C161.717 75.1074 162.962 75.3939 164.02 75.9668C165.1 76.5177 165.959 77.2118 166.598 78.0491V75.4049H170.399V93.6172H166.598V90.9068C165.959 91.7662 165.089 92.4824 163.987 93.0553C162.885 93.6282 161.629 93.9147 160.219 93.9147C158.654 93.9147 157.222 93.518 155.922 92.7248C154.622 91.9094 153.586 90.7856 152.815 89.3533C152.066 87.899 151.691 86.2573 151.691 84.4284ZM166.598 84.4945C166.598 83.2385 166.334 82.1477 165.805 81.2222C165.298 80.2968 164.626 79.5916 163.789 79.1068C162.951 78.6221 162.048 78.3797 161.078 78.3797C160.109 78.3797 159.205 78.6221 158.368 79.1068C157.531 79.5696 156.847 80.2637 156.319 81.1892C155.812 82.0926 155.558 83.1724 155.558 84.4284C155.558 85.6844 155.812 86.7862 156.319 87.7337C156.847 88.6812 157.531 89.4084 158.368 89.9152C159.227 90.4 160.131 90.6424 161.078 90.6424C162.048 90.6424 162.951 90.4 163.789 89.9152C164.626 89.4304 165.298 88.7253 165.805 87.7998C166.334 86.8523 166.598 85.7505 166.598 84.4945ZM181.959 93.9147C180.527 93.9147 179.238 93.6613 178.092 93.1544C176.968 92.6256 176.076 91.9205 175.415 91.039C174.754 90.1356 174.401 89.133 174.357 88.0312H178.257C178.323 88.8024 178.687 89.4525 179.348 89.9813C180.031 90.4882 180.879 90.7416 181.893 90.7416C182.951 90.7416 183.766 90.5432 184.339 90.1466C184.934 89.7279 185.231 89.1991 185.231 88.56C185.231 87.8769 184.901 87.3701 184.24 87.0396C183.601 86.7091 182.576 86.3455 181.166 85.9488C179.8 85.5742 178.687 85.2107 177.827 84.8581C176.968 84.5055 176.219 83.9657 175.58 83.2385C174.963 82.5113 174.654 81.5528 174.654 80.3629C174.654 79.3933 174.941 78.5119 175.514 77.7186C176.087 76.9033 176.902 76.2643 177.96 75.8015C179.039 75.3388 180.273 75.1074 181.662 75.1074C183.733 75.1074 185.397 75.6363 186.653 76.694C187.931 77.7296 188.614 79.1509 188.702 80.9578H184.934C184.868 80.1425 184.537 79.4925 183.942 79.0077C183.347 78.5229 182.543 78.2805 181.529 78.2805C180.538 78.2805 179.778 78.4678 179.249 78.8424C178.72 79.217 178.455 79.7128 178.455 80.3298C178.455 80.8146 178.632 81.2222 178.984 81.5528C179.337 81.8833 179.767 82.1477 180.273 82.346C180.78 82.5223 181.529 82.7537 182.521 83.0402C183.843 83.3927 184.923 83.7563 185.76 84.1309C186.62 84.4835 187.358 85.0123 187.975 85.7175C188.592 86.4226 188.911 87.3591 188.933 88.527C188.933 89.5627 188.647 90.4882 188.074 91.3035C187.501 92.1188 186.686 92.7578 185.628 93.2205C184.592 93.6833 183.369 93.9147 181.959 93.9147ZM209.697 84.0648C209.697 84.7479 209.653 85.3649 209.564 85.9158H195.649C195.759 87.3701 196.299 88.538 197.269 89.4194C198.238 90.3009 199.428 90.7416 200.838 90.7416C202.866 90.7416 204.298 89.8932 205.135 88.1965H209.201C208.65 89.8712 207.647 91.2484 206.193 92.3281C204.761 93.3858 202.976 93.9147 200.838 93.9147C199.098 93.9147 197.533 93.529 196.145 92.7578C194.779 91.9645 193.699 90.8628 192.906 89.4525C192.134 88.0202 191.749 86.3675 191.749 84.4945C191.749 82.6215 192.123 80.9798 192.873 79.5696C193.644 78.1373 194.713 77.0355 196.079 76.2643C197.467 75.493 199.054 75.1074 200.838 75.1074C202.557 75.1074 204.089 75.482 205.433 76.2312C206.777 76.9804 207.824 78.0381 208.573 79.4043C209.322 80.7485 209.697 82.302 209.697 84.0648ZM205.763 82.8749C205.741 81.4867 205.246 80.3739 204.276 79.5365C203.306 78.6992 202.105 78.2805 200.673 78.2805C199.373 78.2805 198.26 78.6992 197.335 79.5365C196.409 80.3518 195.858 81.4646 195.682 82.8749H205.763Z" fill="white"/>
<defs>
<filter id="filter0_d_5015_2816" x="0.200954" y="0.200954" width="237.36" height="163.831" filterUnits="userSpaceOnUse" color-interpolation-filters="sRGB">
<feFlood flood-opacity="0" result="BackgroundImageFix"/>
<feColorMatrix in="SourceAlpha" type="matrix" values="0 0 0 0 0 0 0 0 0 0 0 0 0 0 0 0 0 0 127 0" result="hardAlpha"/>
<feOffset/>
<feGaussianBlur stdDeviation="3.89952"/>
<feComposite in2="hardAlpha" operator="out"/>
<feColorMatrix type="matrix" values="0 0 0 0 0.223529 0 0 0 0 0.419608 0 0 0 0 0.858824 0 0 0 1 0"/>
<feBlend mode="normal" in2="BackgroundImageFix" result="effect1_dropShadow_5015_2816"/>
<feBlend mode="normal" in="SourceGraphic" in2="effect1_dropShadow_5015_2816" result="shape"/>
</filter>
<filter id="filter1_i_5015_2816" x="26.6462" y="63.2207" width="11.2751" height="31.207" filterUnits="userSpaceOnUse" color-interpolation-filters="sRGB">
<feFlood flood-opacity="0" result="BackgroundImageFix"/>
<feBlend mode="normal" in="SourceGraphic" in2="BackgroundImageFix" result="shape"/>
<feColorMatrix in="SourceAlpha" type="matrix" values="0 0 0 0 0 0 0 0 0 0 0 0 0 0 0 0 0 0 127 0" result="hardAlpha"/>
<feOffset/>
<feGaussianBlur stdDeviation="1.95443"/>
<feComposite in2="hardAlpha" operator="arithmetic" k2="-1" k3="1"/>
<feColorMatrix type="matrix" values="0 0 0 0 0 0 0 0 0 0 0 0 0 0 0 0 0 0 0.06 0"/>
<feBlend mode="normal" in2="shape" result="effect1_innerShadow_5015_2816"/>
</filter>
<filter id="filter2_i_5015_2816" x="37.9803" y="67.9331" width="7.22777" height="11.7798" filterUnits="userSpaceOnUse" color-interpolation-filters="sRGB">
<feFlood flood-opacity="0" result="BackgroundImageFix"/>
<feBlend mode="normal" in="SourceGraphic" in2="BackgroundImageFix" result="shape"/>
<feColorMatrix in="SourceAlpha" type="matrix" values="0 0 0 0 0 0 0 0 0 0 0 0 0 0 0 0 0 0 127 0" result="hardAlpha"/>
<feOffset dx="0.111682" dy="-1.00514"/>
<feGaussianBlur stdDeviation="0.390886"/>
<feComposite in2="hardAlpha" operator="arithmetic" k2="-1" k3="1"/>
<feColorMatrix type="matrix" values="0 0 0 0 0 0 0 0 0 0 0 0 0 0 0 0 0 0 0.09 0"/>
<feBlend mode="normal" in2="shape" result="effect1_innerShadow_5015_2816"/>
</filter>
</defs>
</svg>
