<svg width="238" height="165" viewBox="0 0 238 165" fill="none" xmlns="http://www.w3.org/2000/svg">
<g filter="url(#filter0_d_5001_2668)">
<rect x="8.2384" y="8.35547" width="221.762" height="148.232" rx="10.0633" fill="#111616"/>
</g>
<path d="M156.46 80.6985C161.493 75.1969 165.005 69.6953 166.293 64.896C167.346 60.9161 166.995 57.2874 165.356 54.361C161.142 47.1035 150.373 46.05 137.848 48.7423C133.868 36.5685 127.664 28.0234 119.119 28.0234C111.276 28.0234 104.604 35.9832 100.39 48.8594C98.8685 48.5082 97.4639 48.2741 95.9422 48.04C84.4707 46.4012 76.1597 48.6253 72.8822 54.478C71.2434 57.4044 70.8922 61.0332 71.9457 65.0131C73.2333 69.9294 76.745 75.314 81.7784 80.8156C76.745 86.3172 73.2333 91.8188 71.9457 96.6181C70.8922 100.598 71.2434 104.227 72.8822 107.153C75.5744 111.718 81.1931 114.059 89.0359 114.059C91.1429 114.059 93.484 113.825 95.9422 113.474C97.3468 113.24 98.8685 113.006 100.39 112.655C104.487 125.531 111.276 133.491 119.119 133.491C127.664 133.491 133.868 124.829 137.731 112.655C141.828 113.591 145.691 114.059 149.32 114.059C156.694 114.059 162.43 111.952 165.356 107.036C166.995 104.227 167.346 100.598 166.293 96.6181C165.005 91.5847 161.493 86.3172 156.46 80.6985ZM78.9691 103.524C78.2667 102.237 78.1497 100.481 78.735 98.374C79.6714 94.9793 82.3637 90.5312 86.6947 85.6149C89.6211 88.3072 93.0158 90.9995 96.5274 93.5747C96.9957 97.9057 97.5809 102.003 98.5174 105.866C88.4506 107.973 81.0761 107.153 78.9691 103.524ZM91.6111 80.6985C92.8987 79.528 94.4204 78.2404 95.9422 77.0698C95.9422 78.2404 95.9422 79.528 95.9422 80.6985C95.9422 81.9862 95.9422 83.1567 95.9422 84.3273C94.4204 83.0397 93.0158 81.8691 91.6111 80.6985ZM96.5274 67.8224C92.8987 70.3976 89.6211 73.0899 86.6947 75.7822C82.2466 70.9829 79.6714 66.5348 78.735 63.0231C78.1497 60.9161 78.2667 59.1603 78.9691 57.8727C80.2567 55.5315 83.8854 54.361 88.8018 54.361C91.6111 54.361 94.8887 54.7122 98.5174 55.5315C97.698 59.3944 96.9957 63.4913 96.5274 67.8224ZM133.868 62.5549C132.815 61.9696 131.761 61.2673 130.708 60.682C129.654 60.2138 128.601 59.6285 127.547 59.0432C129.303 58.3409 131.176 57.7556 132.815 57.1703C133.166 59.0432 133.517 60.7991 133.868 62.5549ZM108.467 47.3376C111.511 39.612 115.49 35.0468 119.119 35.0468C122.748 35.0468 126.728 39.612 129.771 47.2206C130.239 48.2741 130.591 49.4446 131.059 50.6152C127.196 51.7858 123.216 53.3075 119.236 55.0633C115.256 53.3075 111.159 51.7858 107.297 50.6152C107.648 49.3276 107.999 48.2741 108.467 47.3376ZM105.424 57.2874C107.18 57.7556 108.818 58.4579 110.691 59.0432C109.638 59.6285 108.584 60.2138 107.531 60.7991C106.477 61.3843 105.424 62.0867 104.37 62.6719C104.721 60.7991 105.073 59.0432 105.424 57.2874ZM104.37 98.8422C105.424 99.4275 106.477 100.13 107.531 100.715C108.584 101.3 109.638 101.886 110.691 102.471C108.935 103.173 107.18 103.759 105.424 104.227C105.073 102.354 104.721 100.598 104.37 98.8422ZM129.771 114.411C126.728 122.019 122.748 126.584 119.119 126.584C115.49 126.584 111.511 122.019 108.467 114.294C107.999 113.24 107.648 112.069 107.297 110.899C111.159 109.728 115.139 108.207 119.236 106.451C123.216 108.207 127.196 109.728 131.059 110.899C130.591 112.069 130.239 113.24 129.771 114.411ZM132.815 104.11C131.059 103.524 129.303 102.939 127.547 102.237C128.601 101.652 129.654 101.066 130.708 100.481C131.761 100.013 132.815 99.3104 133.868 98.7251C133.517 100.598 133.166 102.354 132.815 104.11ZM134.922 89.8289C132.581 91.4677 130.005 93.1065 127.196 94.6282C124.504 96.1499 121.694 97.5546 119.119 98.8422C116.427 97.5546 113.735 96.1499 111.042 94.6282C108.233 93.1065 105.775 91.4677 103.317 89.8289C103.083 86.9025 102.966 83.859 102.966 80.8156C102.966 77.7721 103.083 74.7287 103.317 71.8023C105.775 70.1635 108.233 68.6418 111.042 67.003C113.735 65.4813 116.427 64.0766 119.119 62.789C121.811 64.0766 124.504 65.4813 127.196 67.003C130.005 68.5247 132.464 70.1635 134.922 71.8023C135.156 74.7287 135.273 77.7721 135.273 80.8156C135.273 83.859 135.156 86.7854 134.922 89.8289ZM149.32 54.361C154.353 54.361 157.982 55.6486 159.386 57.9897C160.089 59.2773 160.206 61.0332 159.621 63.1402C158.684 66.5348 155.992 70.9829 151.661 75.8993C148.734 73.207 145.34 70.5147 141.711 67.9395C141.243 63.7254 140.54 59.5114 139.721 55.6486C143.233 54.7122 146.51 54.361 149.32 54.361ZM142.179 77.1869C143.701 78.3574 145.106 79.528 146.51 80.6985C145.223 81.8691 143.701 83.1567 142.179 84.3273C142.179 83.0397 142.296 81.8691 142.296 80.6985C142.296 79.528 142.296 78.3574 142.179 77.1869ZM159.269 103.524C157.162 107.153 149.788 108.09 139.604 105.983C140.54 102.003 141.126 97.9057 141.594 93.6917C145.223 91.1165 148.5 88.4242 151.544 85.7319C155.992 90.5312 158.567 94.9793 159.503 98.491C160.089 100.598 159.972 102.354 159.269 103.524Z" fill="url(#paint0_linear_5001_2668)"/>
<path d="M119.119 70.1621C113.266 70.1621 108.584 74.8443 108.584 80.6971C108.584 86.5499 113.266 91.2322 119.119 91.2322C124.972 91.2322 129.654 86.5499 129.654 80.6971C129.654 74.8443 124.972 70.1621 119.119 70.1621ZM119.119 84.2088C117.129 84.2088 115.608 82.6871 115.608 80.6971C115.608 78.7072 117.129 77.1855 119.119 77.1855C121.109 77.1855 122.631 78.7072 122.631 80.6971C122.631 82.6871 121.109 84.2088 119.119 84.2088Z" fill="url(#paint1_linear_5001_2668)"/>
<defs>
<filter id="filter0_d_5001_2668" x="0.439357" y="0.556423" width="237.36" height="163.831" filterUnits="userSpaceOnUse" color-interpolation-filters="sRGB">
<feFlood flood-opacity="0" result="BackgroundImageFix"/>
<feColorMatrix in="SourceAlpha" type="matrix" values="0 0 0 0 0 0 0 0 0 0 0 0 0 0 0 0 0 0 127 0" result="hardAlpha"/>
<feOffset/>
<feGaussianBlur stdDeviation="3.89952"/>
<feComposite in2="hardAlpha" operator="out"/>
<feColorMatrix type="matrix" values="0 0 0 0 0.223529 0 0 0 0 0.419608 0 0 0 0 0.858824 0 0 0 1 0"/>
<feBlend mode="normal" in2="BackgroundImageFix" result="effect1_dropShadow_5001_2668"/>
<feBlend mode="normal" in="SourceGraphic" in2="effect1_dropShadow_5001_2668" result="shape"/>
</filter>
<linearGradient id="paint0_linear_5001_2668" x1="119.119" y1="28.6672" x2="119.119" y2="132.857" gradientUnits="userSpaceOnUse">
<stop stop-color="#00EFD1"/>
<stop offset="1" stop-color="#00ACEA"/>
</linearGradient>
<linearGradient id="paint1_linear_5001_2668" x1="119.119" y1="28.6658" x2="119.119" y2="132.856" gradientUnits="userSpaceOnUse">
<stop stop-color="#00EFD1"/>
<stop offset="1" stop-color="#00ACEA"/>
</linearGradient>
</defs>
</svg>
