<svg width="238" height="165" viewBox="0 0 238 165" fill="none" xmlns="http://www.w3.org/2000/svg">
<g filter="url(#filter0_d_5015_2675)">
<rect x="8.20483" y="8.55078" width="221.762" height="148.232" rx="10.0633" fill="#111616"/>
</g>
<path d="M119.086 126.858C118.762 126.858 118.443 126.772 118.163 126.61L107.054 120.179C106.632 119.935 106.324 119.532 106.198 119.06C106.072 118.589 106.139 118.086 106.384 117.664C106.628 117.241 107.031 116.933 107.502 116.807C107.974 116.682 108.477 116.748 108.899 116.993L119.086 122.887L152.229 103.701V61.6313L119.086 42.4448L85.942 61.6313V103.701L88.9252 105.427C91.8346 107.436 95.2962 108.49 98.8312 108.445C100.642 108.445 102.514 108.445 102.514 101.079V66.0943C102.514 65.606 102.708 65.1376 103.053 64.7923C103.398 64.447 103.867 64.253 104.355 64.253C104.843 64.253 105.312 64.447 105.657 64.7923C106.002 65.1376 106.196 65.606 106.196 66.0943V101.079C106.196 106.819 105.305 112.127 98.8312 112.127C94.6382 112.158 90.5328 110.927 87.0479 108.596L83.1782 106.355C82.8987 106.194 82.6665 105.961 82.5052 105.682C82.3439 105.402 82.2591 105.085 82.2594 104.762V60.5704C82.2591 60.2475 82.3439 59.9303 82.5052 59.6506C82.6665 59.3709 82.8986 59.1387 83.1782 58.9772L118.163 38.7228C118.443 38.5602 118.762 38.4746 119.086 38.4746C119.41 38.4746 119.728 38.5602 120.008 38.7228L154.993 58.9772C155.273 59.1387 155.505 59.3709 155.666 59.6506C155.827 59.9303 155.912 60.2475 155.912 60.5704V104.762C155.912 105.085 155.827 105.402 155.666 105.682C155.505 105.961 155.273 106.194 154.993 106.355L120.008 126.61C119.728 126.772 119.41 126.858 119.086 126.858Z" fill="#388E3C"/>
<path d="M126.451 101.08C118.329 101.08 111.72 96.1245 111.72 90.0323C111.72 89.5439 111.914 89.0756 112.26 88.7303C112.605 88.385 113.073 88.191 113.562 88.191C114.05 88.191 114.518 88.385 114.864 88.7303C115.209 89.0756 115.403 89.5439 115.403 90.0323C115.403 94.0243 120.463 97.3975 126.451 97.3975C132.439 97.3975 137.499 94.0243 137.499 90.0323C137.499 87.4176 132.962 84.5083 126.451 84.5083C118.19 84.5083 111.72 80.4661 111.72 75.3018C111.72 69.2096 118.329 64.2539 126.451 64.2539C134.573 64.2539 141.181 69.2096 141.181 75.3018C141.181 75.7901 140.987 76.2585 140.642 76.6038C140.297 76.9491 139.828 77.1431 139.34 77.1431C138.852 77.1431 138.383 76.9491 138.038 76.6038C137.693 76.2585 137.499 75.7901 137.499 75.3018C137.499 71.3098 132.439 67.9365 126.451 67.9365C120.463 67.9365 115.403 71.3098 115.403 75.3018C115.403 77.9164 119.94 80.8257 126.451 80.8257C134.712 80.8257 141.181 84.868 141.181 90.0323C141.181 96.1245 134.573 101.08 126.451 101.08Z" fill="#388E3C"/>
<path d="M119.086 126.858C118.762 126.858 118.443 126.772 118.163 126.61L107.054 120.179C106.632 119.935 106.324 119.532 106.198 119.06C106.072 118.589 106.139 118.086 106.384 117.664C106.628 117.241 107.031 116.933 107.502 116.807C107.974 116.682 108.477 116.748 108.899 116.993L119.086 122.887L152.229 103.701V61.6313L119.086 42.4448L85.942 61.6313V103.701L88.9252 105.427C91.8346 107.436 95.2962 108.49 98.8312 108.445C100.642 108.445 102.514 108.445 102.514 101.079V66.0943C102.514 65.606 102.708 65.1376 103.053 64.7923C103.398 64.447 103.867 64.253 104.355 64.253C104.843 64.253 105.312 64.447 105.657 64.7923C106.002 65.1376 106.196 65.606 106.196 66.0943V101.079C106.196 106.819 105.305 112.127 98.8312 112.127C94.6382 112.158 90.5328 110.927 87.0479 108.596L83.1782 106.355C82.8987 106.194 82.6665 105.961 82.5052 105.682C82.3439 105.402 82.2591 105.085 82.2594 104.762V60.5704C82.2591 60.2475 82.3439 59.9303 82.5052 59.6506C82.6665 59.3709 82.8986 59.1387 83.1782 58.9772L118.163 38.7228C118.443 38.5602 118.762 38.4746 119.086 38.4746C119.41 38.4746 119.728 38.5602 120.008 38.7228L154.993 58.9772C155.273 59.1387 155.505 59.3709 155.666 59.6506C155.827 59.9303 155.912 60.2475 155.912 60.5704V104.762C155.912 105.085 155.827 105.402 155.666 105.682C155.505 105.961 155.273 106.194 154.993 106.355L120.008 126.61C119.728 126.772 119.41 126.858 119.086 126.858Z" fill="url(#paint0_linear_5015_2675)"/>
<path d="M126.451 101.08C118.329 101.08 111.72 96.1245 111.72 90.0323C111.72 89.5439 111.914 89.0756 112.26 88.7303C112.605 88.385 113.073 88.191 113.562 88.191C114.05 88.191 114.518 88.385 114.864 88.7303C115.209 89.0756 115.403 89.5439 115.403 90.0323C115.403 94.0243 120.463 97.3975 126.451 97.3975C132.439 97.3975 137.499 94.0243 137.499 90.0323C137.499 87.4176 132.962 84.5083 126.451 84.5083C118.19 84.5083 111.72 80.4661 111.72 75.3018C111.72 69.2096 118.329 64.2539 126.451 64.2539C134.573 64.2539 141.181 69.2096 141.181 75.3018C141.181 75.7901 140.987 76.2585 140.642 76.6038C140.297 76.9491 139.828 77.1431 139.34 77.1431C138.852 77.1431 138.383 76.9491 138.038 76.6038C137.693 76.2585 137.499 75.7901 137.499 75.3018C137.499 71.3098 132.439 67.9365 126.451 67.9365C120.463 67.9365 115.403 71.3098 115.403 75.3018C115.403 77.9164 119.94 80.8257 126.451 80.8257C134.712 80.8257 141.181 84.868 141.181 90.0323C141.181 96.1245 134.573 101.08 126.451 101.08Z" fill="url(#paint1_linear_5015_2675)"/>
<defs>
<filter id="filter0_d_5015_2675" x="0.405788" y="0.751735" width="237.36" height="163.831" filterUnits="userSpaceOnUse" color-interpolation-filters="sRGB">
<feFlood flood-opacity="0" result="BackgroundImageFix"/>
<feColorMatrix in="SourceAlpha" type="matrix" values="0 0 0 0 0 0 0 0 0 0 0 0 0 0 0 0 0 0 127 0" result="hardAlpha"/>
<feOffset/>
<feGaussianBlur stdDeviation="3.89952"/>
<feComposite in2="hardAlpha" operator="out"/>
<feColorMatrix type="matrix" values="0 0 0 0 0.223529 0 0 0 0 0.419608 0 0 0 0 0.858824 0 0 0 1 0"/>
<feBlend mode="normal" in2="BackgroundImageFix" result="effect1_dropShadow_5015_2675"/>
<feBlend mode="normal" in="SourceGraphic" in2="effect1_dropShadow_5015_2675" result="shape"/>
</filter>
<linearGradient id="paint0_linear_5015_2675" x1="80.217" y1="64.5414" x2="157.954" y2="100.791" gradientUnits="userSpaceOnUse">
<stop stop-color="white" stop-opacity="0.2"/>
<stop offset="1" stop-color="white" stop-opacity="0"/>
</linearGradient>
<linearGradient id="paint1_linear_5015_2675" x1="80.217" y1="64.5423" x2="157.954" y2="100.792" gradientUnits="userSpaceOnUse">
<stop stop-color="white" stop-opacity="0.2"/>
<stop offset="1" stop-color="white" stop-opacity="0"/>
</linearGradient>
</defs>
</svg>
