<svg width="238" height="165" viewBox="0 0 238 165" fill="none" xmlns="http://www.w3.org/2000/svg">
<g filter="url(#filter0_d_5015_2801)">
<rect x="8" y="8" width="221.762" height="148.232" rx="10.0633" fill="#111616"/>
</g>
<path d="M153.006 40.4082H84.7557C78.4842 40.4082 73.3806 45.5118 73.3806 51.7833V112.45C73.3806 118.722 78.4842 123.825 84.7557 123.825H153.006C159.278 123.825 164.381 118.722 164.381 112.45V51.7833C164.381 45.5118 159.278 40.4082 153.006 40.4082Z" fill="#607D8B"/>
<path d="M153.006 116.243H84.7556C82.6663 116.243 80.9639 114.544 80.9639 112.451V59.3672H156.798V112.451C156.798 114.544 155.095 116.243 153.006 116.243Z" fill="white"/>
<path d="M118.881 40.4082H84.7557C78.4842 40.4082 73.3806 45.5118 73.3806 51.7833V112.45C73.3806 118.722 78.4842 123.825 84.7557 123.825H118.881V116.242H84.7557C82.6665 116.242 80.964 114.543 80.964 112.45V59.3667H118.881V40.4082Z" fill="#546D79"/>
<path d="M118.881 59.3672H80.9639V112.451C80.9639 114.544 82.6663 116.243 84.7556 116.243H118.881V59.3672Z" fill="#DEDEDE"/>
<path d="M87.5994 101.074C89.17 101.074 90.4432 99.8011 90.4432 98.2305C90.4432 96.6599 89.17 95.3867 87.5994 95.3867C86.0288 95.3867 84.7556 96.6599 84.7556 98.2305C84.7556 99.8011 86.0288 101.074 87.5994 101.074Z" fill="#2196F3"/>
<path d="M127.412 92.543H117.933C116.363 92.543 116.363 86.8555 117.933 86.8555H127.412C128.982 86.8555 130.256 88.1295 130.256 89.6992C130.256 91.269 128.982 92.543 127.412 92.543Z" fill="#2196F3"/>
<path d="M127.412 101.074H121.725C118.066 101.074 115.089 98.0979 115.089 94.4389V84.9597C115.089 81.3007 118.066 78.3242 121.725 78.3242H127.412C128.982 78.3242 130.256 79.5982 130.256 81.168C130.256 82.7377 128.982 84.0118 127.412 84.0118H121.725C121.201 84.0118 120.777 84.4364 120.777 84.9597V94.4389C120.777 94.9622 121.201 95.3868 121.725 95.3868H127.412C128.982 95.3868 130.256 96.6608 130.256 98.2306C130.256 99.8004 128.982 101.074 127.412 101.074Z" fill="#2196F3"/>
<path d="M108.454 101.074C107.437 101.074 106.478 100.528 105.966 99.6106L101.818 92.1448V98.2305C101.818 99.8002 100.544 101.074 98.9744 101.074C97.4046 101.074 96.1306 99.8002 96.1306 98.2305V81.1679C96.1306 79.8711 97.0065 78.7374 98.2615 78.4151C99.509 78.0814 100.829 78.6502 101.462 79.7839L105.61 87.2535V81.1679C105.61 79.5981 106.884 78.3241 108.454 78.3241C110.023 78.3241 111.297 79.5981 111.297 81.1679V98.2305C111.297 99.5272 110.421 100.661 109.166 100.983L108.454 101.074Z" fill="#2196F3"/>
<path d="M143.527 101.074C141.957 101.074 140.683 99.7999 140.683 98.2302V81.1676C140.683 79.5978 146.371 79.5978 146.371 81.1676V98.2302C146.371 99.7999 145.097 101.074 143.527 101.074Z" fill="#2196F3"/>
<path d="M150.162 84.0118H136.891C135.322 84.0118 134.048 82.7377 134.048 81.168C134.048 79.5982 135.322 78.3242 136.891 78.3242H150.162C151.732 78.3242 153.006 79.5982 153.006 81.168C153.006 82.7377 151.732 84.0118 150.162 84.0118Z" fill="#2196F3"/>
<path d="M130.256 89.7012H120.777V92.5449H127.412C128.982 92.5449 130.256 91.2709 130.256 89.7012Z" fill="#1D83D4"/>
<path d="M120.777 89.7012H115.089V94.4408C115.089 98.0998 118.066 101.076 121.725 101.076H127.412C128.982 101.076 130.256 99.8022 130.256 98.2325C130.256 96.6627 128.982 95.3887 127.412 95.3887H121.725C121.201 95.3887 120.777 94.964 120.777 94.4408V92.5449V89.7012Z" fill="#1D83D4"/>
<path d="M111.298 89.7012H96.1309V98.2325C96.1309 99.8022 97.4049 101.076 98.9746 101.076C100.544 101.076 101.818 99.8022 101.818 98.2325V92.1468L105.967 99.6164C106.478 100.53 107.438 101.076 108.454 101.076L109.167 100.985C110.422 100.663 111.298 99.5292 111.298 98.2325V89.7012Z" fill="#1D83D4"/>
<path d="M146.371 89.7012H140.683V98.2325C140.683 99.8022 141.957 101.076 143.527 101.076C145.097 101.076 146.371 99.8022 146.371 98.2325V89.7012Z" fill="#1D83D4"/>
<defs>
<filter id="filter0_d_5015_2801" x="0.200954" y="0.200954" width="237.36" height="163.831" filterUnits="userSpaceOnUse" color-interpolation-filters="sRGB">
<feFlood flood-opacity="0" result="BackgroundImageFix"/>
<feColorMatrix in="SourceAlpha" type="matrix" values="0 0 0 0 0 0 0 0 0 0 0 0 0 0 0 0 0 0 127 0" result="hardAlpha"/>
<feOffset/>
<feGaussianBlur stdDeviation="3.89952"/>
<feComposite in2="hardAlpha" operator="out"/>
<feColorMatrix type="matrix" values="0 0 0 0 0.223529 0 0 0 0 0.419608 0 0 0 0 0.858824 0 0 0 1 0"/>
<feBlend mode="normal" in2="BackgroundImageFix" result="effect1_dropShadow_5015_2801"/>
<feBlend mode="normal" in="SourceGraphic" in2="effect1_dropShadow_5015_2801" result="shape"/>
</filter>
</defs>
</svg>
