<svg width="239" height="165" viewBox="0 0 239 165" fill="none" xmlns="http://www.w3.org/2000/svg">
<g filter="url(#filter0_d_5015_2727)">
<rect x="8.7384" y="8.55078" width="221.762" height="148.232" rx="10.0633" fill="#111616"/>
</g>
<path d="M172.726 73.4316C172.672 73.4316 172.619 73.4477 172.573 73.4781L170.097 74.9242C170.05 74.9531 170.012 74.9935 169.986 75.0416C169.96 75.0897 169.946 75.1438 169.947 75.1986V78.0908C169.947 78.2133 170.005 78.3062 170.097 78.3674L172.573 79.8114C172.619 79.8418 172.672 79.858 172.726 79.858C172.781 79.858 172.834 79.8418 172.879 79.8114L175.352 78.3674C175.399 78.3379 175.437 78.2969 175.464 78.2484C175.491 78.1998 175.505 78.1452 175.505 78.0898V75.2007C175.505 75.1456 175.491 75.0913 175.465 75.0432C175.438 74.9951 175.399 74.9548 175.352 74.9263L172.878 73.4791C172.833 73.449 172.781 73.4318 172.726 73.4316ZM118.795 90.7258C118.344 90.7258 117.896 90.8356 117.514 91.0509L105.323 98.1516C104.932 98.3811 104.609 98.7087 104.384 99.102C104.159 99.4953 104.041 99.9406 104.042 100.394V114.562C104.042 115.485 104.529 116.346 105.323 116.809L108.532 118.652C110.09 119.42 110.64 119.418 111.342 119.418C113.632 119.418 114.947 118.004 114.947 115.576V101.595C114.945 101.498 114.906 101.405 114.838 101.335C114.769 101.266 114.676 101.227 114.579 101.224H113.023C112.926 101.226 112.832 101.266 112.764 101.335C112.695 101.404 112.655 101.497 112.654 101.595V115.579C112.654 116.654 111.525 117.732 109.724 116.811L106.393 114.874C106.271 114.812 106.209 114.656 106.209 114.534V100.362C106.209 100.24 106.271 100.088 106.393 100.025L118.58 92.9562C118.672 92.895 118.826 92.895 118.948 92.9562L131.138 100.025C131.259 100.088 131.319 100.209 131.319 100.363V114.533C131.319 114.686 131.259 114.811 131.138 114.873L118.948 121.973C118.856 122.035 118.702 122.035 118.58 121.973L115.465 120.096C115.373 120.034 115.251 120.004 115.159 120.065C114.304 120.557 114.154 120.621 113.328 120.898C113.145 120.959 112.84 121.08 113.45 121.418L117.514 123.848C117.911 124.062 118.337 124.185 118.795 124.185C119.253 124.185 119.71 124.063 120.076 123.91L132.267 116.81C132.658 116.58 132.982 116.251 133.207 115.857C133.432 115.463 133.55 115.017 133.549 114.563V100.394C133.549 99.4711 133.061 98.6129 132.267 98.1516L120.076 91.0509C119.684 90.8356 119.243 90.7237 118.795 90.7258ZM137.827 97.1964C137.201 97.1989 136.602 97.4497 136.161 97.8936C135.72 98.3376 135.474 98.9384 135.476 99.564C135.474 100.189 135.721 100.79 136.162 101.234C136.602 101.677 137.201 101.928 137.827 101.931C139.111 101.931 140.178 100.855 140.178 99.564C140.175 98.9399 139.927 98.3421 139.487 97.8994C139.047 97.4567 138.451 97.2035 137.827 97.1964ZM137.795 97.5964C138.055 97.5932 138.313 97.6417 138.555 97.7392C138.796 97.8367 139.016 97.9812 139.201 98.1643C139.385 98.3474 139.532 98.5654 139.632 98.8057C139.732 99.046 139.783 99.3037 139.783 99.564C139.783 100.641 138.896 101.563 137.796 101.563C136.728 101.563 135.841 100.67 135.841 99.564C135.841 98.4577 136.757 97.5964 137.795 97.5964ZM136.941 98.2414V100.946H137.463V99.8732H137.921C138.104 99.8732 138.164 99.9345 138.195 100.088C138.195 100.119 138.286 100.795 138.286 100.917H138.835C138.774 100.795 138.743 100.425 138.712 100.21C138.683 99.8722 138.653 99.6262 138.286 99.5956C138.47 99.5333 138.775 99.4415 138.775 98.9496C138.775 98.2424 138.162 98.2424 137.858 98.2424L136.941 98.2414ZM137.4 98.672H137.827C137.981 98.672 138.224 98.672 138.224 99.0404C138.224 99.1628 138.164 99.4109 137.827 99.4109H137.399L137.4 98.672ZM122.126 100.794C118.643 100.794 116.566 102.269 116.566 104.759C116.566 107.434 118.643 108.169 121.973 108.508C125.974 108.908 126.28 109.492 126.28 110.292C126.28 111.674 125.178 112.259 122.612 112.259C119.374 112.259 118.672 111.459 118.427 109.83C118.427 109.646 118.277 109.524 118.093 109.524H116.505C116.407 109.525 116.315 109.565 116.246 109.633C116.178 109.702 116.14 109.795 116.139 109.893C116.139 111.983 117.238 114.442 122.586 114.442C126.433 114.442 128.663 112.903 128.663 110.199C128.663 107.554 126.89 106.848 123.134 106.356C119.345 105.865 118.949 105.588 118.949 104.697C118.949 103.959 119.285 102.977 122.095 102.977C124.6 102.977 125.545 103.531 125.913 105.221C125.931 105.297 125.974 105.365 126.035 105.415C126.096 105.464 126.171 105.492 126.249 105.495H127.868C127.96 105.495 128.052 105.435 128.115 105.374C128.17 105.291 128.201 105.195 128.204 105.096C127.96 102.146 126.037 100.794 122.126 100.794Z" fill="#5FA04E"/>
<path d="M142.917 41.1485C142.787 41.1466 142.659 41.179 142.545 41.2425C142.427 41.3117 142.329 41.4099 142.26 41.5277C142.191 41.6456 142.153 41.7792 142.149 41.9159V61.8965C142.149 62.0801 142.054 62.2659 141.872 62.3884C141.787 62.4336 141.693 62.4573 141.597 62.4573C141.502 62.4573 141.407 62.4336 141.323 62.3884L138.087 60.5147C137.849 60.379 137.58 60.3077 137.307 60.3077C137.033 60.3077 136.764 60.379 136.526 60.5147L123.577 68.0461C123.337 68.1812 123.138 68.3772 122.998 68.6143C122.858 68.8514 122.784 69.1211 122.782 69.3962V84.4272C122.782 84.9804 123.088 85.5039 123.577 85.7805L136.529 93.3118C136.766 93.4473 137.035 93.5186 137.308 93.5186C137.581 93.5186 137.85 93.4473 138.088 93.3118L151.038 85.7805C151.527 85.5039 151.833 84.9804 151.833 84.4272V46.9583C151.833 46.3746 151.527 45.85 151.038 45.5745L143.312 41.2425C143.189 41.1812 143.054 41.1491 142.917 41.1485ZM66.5106 59.9015C66.2668 59.9015 66.0229 59.9901 65.8097 60.1126L52.8581 67.6165C52.6146 67.755 52.4126 67.956 52.2729 68.1988C52.1332 68.4415 52.0608 68.7171 52.0632 68.9972L52.0949 89.1603C52.0949 89.438 52.2458 89.7145 52.4907 89.838C52.6043 89.9125 52.7371 89.9521 52.8728 89.9521C53.0086 89.9521 53.1414 89.9125 53.255 89.838L60.9542 85.4121C61.4429 85.1355 61.7458 84.612 61.7458 84.0589V74.6222C61.7458 74.0691 62.0519 73.5455 62.5417 73.269L65.8097 71.3637C66.0535 71.2096 66.3301 71.1484 66.6045 71.1484C66.879 71.1484 67.1545 71.2096 67.3687 71.3637L70.6367 73.269C71.1255 73.5455 71.4316 74.0691 71.4316 74.6222V84.0589C71.4316 84.612 71.7356 85.1355 72.2232 85.4121L79.8612 89.838C79.9799 89.9137 80.1178 89.954 80.2586 89.954C80.3995 89.954 80.5373 89.9137 80.656 89.838C80.7776 89.7719 80.8789 89.6738 80.9488 89.5544C81.0188 89.435 81.0548 89.2987 81.0529 89.1603V68.9972C81.0529 68.4441 80.7468 67.9205 80.257 67.6429L67.3371 60.1126C67.1194 59.9971 66.8814 59.925 66.6362 59.9004L66.5106 59.9015ZM172.77 60.1231C172.503 60.1231 172.238 60.1928 171.993 60.3321L159.039 67.8593C158.551 68.1358 158.248 68.6594 158.248 69.2136V84.2446C158.248 84.7977 158.551 85.3213 159.039 85.5978L171.9 92.973C172.132 93.1088 172.395 93.1804 172.664 93.1804C172.932 93.1804 173.196 93.1088 173.428 92.973L181.218 88.6104C181.339 88.5441 181.44 88.446 181.51 88.3266C181.579 88.2072 181.615 88.071 181.613 87.9327C181.615 87.7948 181.579 87.6591 181.509 87.5401C181.439 87.421 181.339 87.3233 181.218 87.2572L168.206 79.7248C168.087 79.6552 167.989 79.5565 167.92 79.4381C167.85 79.3196 167.812 79.1854 167.81 79.0481V74.3446C167.808 74.2067 167.844 74.0709 167.914 73.9519C167.984 73.8329 168.085 73.7351 168.206 73.669L172.27 71.3321C172.388 71.2563 172.526 71.2161 172.667 71.2161C172.808 71.2161 172.946 71.2563 173.064 71.3321L177.124 73.668C177.243 73.7371 177.342 73.8356 177.412 73.9541C177.482 74.0726 177.52 74.2071 177.523 74.3446V78.0338C177.523 78.3114 177.675 78.5879 177.919 78.7104C178.038 78.7863 178.176 78.8267 178.317 78.8267C178.458 78.8267 178.596 78.7863 178.715 78.7104L186.411 74.1926C186.647 74.0549 186.842 73.8569 186.976 73.6189C187.111 73.3809 187.179 73.1115 187.175 72.8383V69.1808C187.175 68.6277 186.869 68.1073 186.411 67.8297L173.55 60.3311C173.313 60.1953 173.044 60.1233 172.771 60.1221L172.77 60.1231ZM137.307 71.3479C137.375 71.3479 137.445 71.3637 137.507 71.3954L141.934 73.9773C142.057 74.0385 142.119 74.1905 142.119 74.314V79.4778C142.119 79.6319 142.057 79.7564 141.934 79.8176L137.506 82.3995C137.444 82.4299 137.376 82.4457 137.307 82.4457C137.237 82.4457 137.169 82.4299 137.107 82.3995L132.679 79.8176C132.557 79.7564 132.494 79.6013 132.494 79.4778V74.314C132.494 74.1599 132.558 74.0385 132.679 73.9762L137.107 71.3954C137.169 71.3632 137.237 71.3469 137.307 71.3479Z" fill="white"/>
<path d="M102.711 60.3897C102.474 60.2534 102.205 60.1816 101.932 60.1816C101.658 60.1816 101.39 60.2534 101.153 60.3897L88.292 67.8599C88.0563 67.9974 87.8613 68.1951 87.7271 68.4326C87.5928 68.6702 87.524 68.9392 87.5278 69.212V84.1808C87.5278 84.735 87.8339 85.2575 88.292 85.534L101.153 93.0031C101.39 93.1395 101.658 93.2112 101.932 93.2112C102.205 93.2112 102.474 93.1395 102.711 93.0031L115.571 85.534C116.059 85.2575 116.335 84.735 116.335 84.1808V69.212C116.335 68.6589 116.029 68.1354 115.571 67.8599L102.711 60.3897Z" fill="url(#paint0_linear_5015_2727)"/>
<path d="M115.601 67.8595L102.68 60.3894C102.553 60.3251 102.42 60.2739 102.283 60.2363L87.8032 85.1643C87.9256 85.3184 88.0776 85.4408 88.2307 85.5337L101.153 93.0028C101.519 93.2181 101.947 93.2794 102.343 93.1558L115.938 68.1361C115.849 68.0191 115.733 67.9244 115.601 67.8595Z" fill="url(#paint1_linear_5015_2727)"/>
<path d="M115.601 85.5257C115.968 85.3104 116.243 84.942 116.365 84.542L102.221 60.1977C101.856 60.1365 101.458 60.1671 101.122 60.3825L88.2918 67.821L102.13 93.2102C102.313 93.1796 102.527 93.1183 102.711 93.0254L115.601 85.5257Z" fill="url(#paint2_linear_5015_2727)"/>
<defs>
<filter id="filter0_d_5015_2727" x="0.939357" y="0.751735" width="237.36" height="163.831" filterUnits="userSpaceOnUse" color-interpolation-filters="sRGB">
<feFlood flood-opacity="0" result="BackgroundImageFix"/>
<feColorMatrix in="SourceAlpha" type="matrix" values="0 0 0 0 0 0 0 0 0 0 0 0 0 0 0 0 0 0 127 0" result="hardAlpha"/>
<feOffset/>
<feGaussianBlur stdDeviation="3.89952"/>
<feComposite in2="hardAlpha" operator="out"/>
<feColorMatrix type="matrix" values="0 0 0 0 0.223529 0 0 0 0 0.419608 0 0 0 0 0.858824 0 0 0 1 0"/>
<feBlend mode="normal" in2="BackgroundImageFix" result="effect1_dropShadow_5015_2727"/>
<feBlend mode="normal" in="SourceGraphic" in2="effect1_dropShadow_5015_2727" result="shape"/>
</filter>
<linearGradient id="paint0_linear_5015_2727" x1="107.169" y1="65.9522" x2="95.4238" y2="89.7632" gradientUnits="userSpaceOnUse">
<stop stop-color="#3F873F"/>
<stop offset="0.33" stop-color="#3F8B3D"/>
<stop offset="0.637" stop-color="#3E9638"/>
<stop offset="0.934" stop-color="#3DA92E"/>
<stop offset="1" stop-color="#3DAE2B"/>
</linearGradient>
<linearGradient id="paint1_linear_5015_2727" x1="99.9774" y1="78.4441" x2="132.747" y2="54.3808" gradientUnits="userSpaceOnUse">
<stop offset="0.138" stop-color="#3F873F"/>
<stop offset="0.402" stop-color="#52A044"/>
<stop offset="0.713" stop-color="#64B749"/>
<stop offset="0.908" stop-color="#6ABF4B"/>
</linearGradient>
<linearGradient id="paint2_linear_5015_2727" x1="87.0571" y1="76.6841" x2="116.816" y2="76.6841" gradientUnits="userSpaceOnUse">
<stop offset="0.092" stop-color="#6ABF4B"/>
<stop offset="0.287" stop-color="#64B749"/>
<stop offset="0.598" stop-color="#52A044"/>
<stop offset="0.862" stop-color="#3F873F"/>
</linearGradient>
</defs>
</svg>
