<svg width="238" height="165" viewBox="0 0 238 165" fill="none" xmlns="http://www.w3.org/2000/svg">
<g filter="url(#filter0_d_5015_2725)">
<rect x="8" y="8" width="221.762" height="148.232" rx="10.0633" fill="#111616"/>
</g>
<path d="M118.881 115.148C154.879 115.148 184.063 100.358 184.063 82.1152C184.063 63.8705 154.879 49.082 118.881 49.082C82.8821 49.082 53.6985 63.8705 53.6985 82.1152C53.6985 100.358 82.8821 115.148 118.881 115.148Z" fill="#777BB3"/>
<path d="M87.9027 86.2078C90.863 86.2078 93.0718 85.662 94.4697 84.5862C95.8539 83.52 96.8089 81.6747 97.3102 79.1014C97.7765 76.6954 97.5985 75.0166 96.7803 74.1094C95.9451 73.183 94.138 72.7135 91.4099 72.7135H86.6786L84.0575 86.2078H87.9027ZM72.4296 102.83C72.3211 102.83 72.2139 102.806 72.1158 102.759C72.0177 102.713 71.9311 102.645 71.8622 102.561C71.7933 102.477 71.7438 102.379 71.7173 102.274C71.6908 102.169 71.688 102.059 71.7089 101.952L78.6585 66.1942C78.6914 66.027 78.7811 65.8764 78.9125 65.768C79.0439 65.6596 79.2089 65.6001 79.3792 65.5996H94.3595C99.0675 65.5996 102.571 66.8778 104.775 69.3993C106.988 71.9324 107.673 75.4766 106.807 79.9291C106.454 81.7426 105.847 83.4267 105.005 84.936C104.128 86.4886 103.009 87.8911 101.69 89.0907C100.067 90.6084 98.2302 91.7107 96.2344 92.3583C94.2715 92.9984 91.749 93.3228 88.7411 93.3228H82.6744L80.9425 102.234C80.9098 102.402 80.8199 102.553 80.688 102.662C80.5561 102.77 80.3906 102.83 80.2197 102.83H72.4296Z" fill="black"/>
<path d="M87.2862 73.4571H91.4102C94.7032 73.4571 95.8468 74.18 96.2358 74.6113C96.8792 75.3257 97.0021 76.8339 96.5866 78.9696C96.1214 81.3617 95.2586 83.0586 94.0217 84.0103C92.7562 84.9854 90.6959 85.4793 87.9031 85.4793H84.9503L87.2862 73.4571ZM94.3598 64.8722H79.3806C79.039 64.8722 78.7081 64.9909 78.4444 65.208C78.1806 65.4252 78.0006 65.7272 77.935 66.0624L70.9854 101.822C70.9443 102.035 70.9508 102.254 71.0044 102.464C71.058 102.674 71.1573 102.87 71.2953 103.038C71.4333 103.205 71.6066 103.34 71.8027 103.432C71.9989 103.525 72.213 103.573 72.43 103.573H80.22C80.5616 103.573 80.8924 103.454 81.156 103.237C81.4195 103.02 81.5993 102.717 81.6647 102.382L83.281 94.0664H88.7404C91.8267 94.0664 94.4256 93.7294 96.4637 93.0659C98.5591 92.3855 100.487 91.2312 102.193 89.6351C103.568 88.3839 104.734 86.9216 105.648 85.3034C106.528 83.7273 107.162 81.9679 107.529 80.0771C108.44 75.3893 107.699 71.6363 105.328 68.923C102.98 66.2341 99.2893 64.8711 94.3598 64.8711V64.8722ZM83.1644 86.9504H87.9031C91.0438 86.9511 93.3826 86.3594 94.9195 85.1751C96.4563 83.9923 97.4942 82.0171 98.0334 79.2494C98.5478 76.5912 98.3128 74.7159 97.3286 73.6235C96.3429 72.5312 94.3701 71.985 91.4102 71.985H86.0727L83.1644 86.9504ZM94.3609 66.3411C98.8675 66.3411 102.154 67.524 104.221 69.8896C106.288 72.2552 106.909 75.5571 106.086 79.7952C105.746 81.5419 105.172 83.138 104.364 84.5837C103.555 86.0308 102.498 87.3546 101.194 88.5551C99.6394 90.0106 97.9111 91.0475 96.009 91.6658C94.1076 92.2848 91.6851 92.5939 88.7414 92.5932H82.0685L80.2211 102.1H72.431L79.3817 66.3411H94.3609Z" fill="white"/>
<path d="M124.666 93.324C124.558 93.3241 124.45 93.3002 124.352 93.2539C124.254 93.2077 124.167 93.1402 124.098 93.0564C124.029 92.9726 123.979 92.8745 123.953 92.7693C123.926 92.664 123.923 92.5541 123.944 92.4475L127.017 76.6257C127.311 75.1206 127.239 74.0417 126.816 73.5838C126.556 73.3051 125.778 72.8377 123.477 72.8377H117.907L114.042 92.7294C114.009 92.8969 113.919 93.0477 113.787 93.1559C113.655 93.2642 113.489 93.3232 113.318 93.3229H105.592C105.483 93.323 105.376 93.2991 105.278 93.2529C105.18 93.2067 105.093 93.1394 105.024 93.0557C104.955 92.9721 104.905 92.8742 104.878 92.769C104.851 92.6639 104.847 92.5541 104.868 92.4475L111.819 56.6883C111.852 56.5208 111.942 56.3699 112.073 56.2615C112.205 56.153 112.371 56.0937 112.541 56.0938H120.268C120.376 56.0937 120.484 56.1176 120.582 56.1638C120.68 56.21 120.767 56.2773 120.836 56.361C120.905 56.4446 120.955 56.5425 120.982 56.6477C121.009 56.7528 121.012 56.8626 120.992 56.9692L119.315 65.6008H125.307C129.871 65.6008 132.966 66.4042 134.769 68.0608C136.606 69.7492 137.18 72.4487 136.473 76.0872L133.24 92.7294C133.207 92.8967 133.116 93.0474 132.985 93.1556C132.853 93.2638 132.687 93.323 132.517 93.3229L124.666 93.324Z" fill="black"/>
<path d="M120.27 55.3535H112.542C112.2 55.3536 111.869 55.4725 111.605 55.6898C111.342 55.9071 111.162 56.2094 111.096 56.5448L104.147 92.3029C104.105 92.516 104.112 92.7355 104.165 92.9459C104.219 93.1562 104.318 93.3521 104.456 93.5196C104.594 93.6871 104.768 93.822 104.964 93.9147C105.16 94.0074 105.374 94.0557 105.591 94.0559H113.319C113.661 94.0558 113.992 93.937 114.255 93.7196C114.519 93.5023 114.699 93.2 114.765 92.8646L118.513 73.5696H123.476C125.773 73.5696 126.257 74.0603 126.275 74.0826C126.415 74.2309 126.598 74.9252 126.295 76.4821L123.221 92.3029C123.18 92.516 123.186 92.7357 123.24 92.9461C123.294 93.1565 123.393 93.3525 123.531 93.52C123.669 93.6875 123.843 93.8224 124.039 93.9151C124.235 94.0077 124.45 94.0558 124.667 94.0559H132.518C132.86 94.0556 133.191 93.9366 133.454 93.7193C133.718 93.502 133.898 93.1999 133.963 92.8646L137.197 76.2246C137.955 72.3179 137.306 69.3884 135.268 67.5156C133.322 65.7286 130.064 64.8606 125.307 64.8606H120.209L121.715 57.1076C121.757 56.8944 121.75 56.6746 121.697 56.4641C121.643 56.2535 121.544 56.0574 121.406 55.8898C121.268 55.7221 121.094 55.5871 120.898 55.4944C120.701 55.4017 120.487 55.3536 120.27 55.3535ZM120.27 56.8267L118.422 66.3317H125.307C129.639 66.3317 132.627 67.0877 134.27 68.5998C135.915 70.1105 136.409 72.5588 135.752 75.9448L132.517 92.5838H124.667L127.742 76.7619C128.091 74.9623 127.962 73.7349 127.355 73.0799C126.747 72.4256 125.455 72.0985 123.478 72.0985H117.3L113.319 92.5827H105.59L112.541 56.8236H120.27V56.8267Z" fill="white"/>
<path d="M148.701 86.2078C151.662 86.2078 153.872 85.662 155.271 84.5862C156.653 83.52 157.609 81.6747 158.11 79.1014C158.576 76.6954 158.399 75.0166 157.58 74.1094C156.745 73.183 154.938 72.7135 152.21 72.7135H147.479L144.856 86.2078H148.701ZM133.232 102.83C133.123 102.83 133.015 102.806 132.917 102.76C132.819 102.713 132.732 102.646 132.663 102.562C132.594 102.478 132.544 102.38 132.517 102.274C132.491 102.169 132.488 102.059 132.509 101.952L139.458 66.1942C139.491 66.0267 139.581 65.8758 139.713 65.7673C139.845 65.6589 140.01 65.5996 140.181 65.5996H155.16C159.868 65.5996 163.372 66.8778 165.575 69.3993C167.789 71.9324 168.472 75.4766 167.606 79.9291C167.275 81.6829 166.667 83.3729 165.806 84.936C164.929 86.4885 163.81 87.8911 162.49 89.0907C160.869 90.6084 159.03 91.7107 157.035 92.3583C155.072 92.9984 152.55 93.3228 149.541 93.3228H143.475L141.744 102.234C141.712 102.402 141.622 102.553 141.49 102.662C141.357 102.771 141.192 102.83 141.021 102.83H133.232Z" fill="black"/>
<path d="M148.086 73.4571H152.21C155.503 73.4571 156.646 74.18 157.034 74.6113C157.681 75.3257 157.801 76.8339 157.387 78.9696C156.921 81.3617 156.058 83.0586 154.821 84.0103C153.555 84.9854 151.494 85.4793 148.702 85.4793H145.75L148.086 73.4571ZM155.159 64.8722H140.18C139.839 64.8724 139.508 64.9913 139.244 65.2084C138.981 65.4255 138.801 65.7273 138.735 66.0624L131.785 101.822C131.744 102.035 131.75 102.254 131.804 102.464C131.857 102.675 131.957 102.871 132.095 103.038C132.233 103.205 132.406 103.34 132.603 103.433C132.799 103.525 133.013 103.573 133.23 103.573H141.02C141.362 103.573 141.693 103.454 141.956 103.237C142.22 103.02 142.4 102.717 142.465 102.382L144.081 94.0664H149.54C152.625 94.0664 155.225 93.7294 157.262 93.0659C159.358 92.3855 161.286 91.2312 162.994 89.634C164.368 88.3831 165.533 86.9212 166.447 85.3034C167.329 83.7273 167.96 81.9679 168.328 80.0771C169.24 75.3893 168.5 71.6363 166.128 68.923C163.779 66.2341 160.09 64.8711 155.158 64.8711L155.159 64.8722ZM143.964 86.9504H148.701C151.842 86.9511 154.182 86.3594 155.72 85.1751C157.257 83.9923 158.294 82.0171 158.832 79.2494C159.348 76.5912 159.113 74.7159 158.127 73.6235C157.14 72.5312 155.168 71.985 152.21 71.985H146.873L143.964 86.9504ZM155.159 66.3411C159.666 66.3411 162.952 67.524 165.019 69.8896C167.086 72.2552 167.707 75.5571 166.883 79.7952C166.544 81.5419 165.971 83.138 165.162 84.5837C164.354 86.0308 163.297 87.3546 161.991 88.5551C160.437 90.0106 158.708 91.0475 156.806 91.6658C154.905 92.2848 152.483 92.5939 149.54 92.5932H142.868L141.018 102.1H133.228L140.179 66.3411H155.159Z" fill="white"/>
<defs>
<filter id="filter0_d_5015_2725" x="0.200954" y="0.200954" width="237.36" height="163.831" filterUnits="userSpaceOnUse" color-interpolation-filters="sRGB">
<feFlood flood-opacity="0" result="BackgroundImageFix"/>
<feColorMatrix in="SourceAlpha" type="matrix" values="0 0 0 0 0 0 0 0 0 0 0 0 0 0 0 0 0 0 127 0" result="hardAlpha"/>
<feOffset/>
<feGaussianBlur stdDeviation="3.89952"/>
<feComposite in2="hardAlpha" operator="out"/>
<feColorMatrix type="matrix" values="0 0 0 0 0.223529 0 0 0 0 0.419608 0 0 0 0 0.858824 0 0 0 1 0"/>
<feBlend mode="normal" in2="BackgroundImageFix" result="effect1_dropShadow_5015_2725"/>
<feBlend mode="normal" in="SourceGraphic" in2="effect1_dropShadow_5015_2725" result="shape"/>
</filter>
</defs>
</svg>
