<svg width="238" height="165" viewBox="0 0 238 165" fill="none" xmlns="http://www.w3.org/2000/svg">
<g filter="url(#filter0_d_5015_2734)">
<rect x="8" y="8" width="221.762" height="148.232" rx="10.0633" fill="#111616"/>
</g>
<path d="M145.394 49.5046C145.339 49.101 144.985 48.8778 144.694 48.8534C144.402 48.829 138.713 48.7426 138.713 48.7426C138.713 48.7426 133.954 44.1211 133.484 43.6507C133.014 43.1803 132.096 43.323 131.739 43.4279C131.734 43.4295 130.846 43.7044 129.348 44.1682C129.098 43.3561 128.729 42.3587 128.204 41.3565C126.509 38.1243 124.029 36.4134 121.031 36.409C121.027 36.409 121.024 36.409 121.021 36.409C120.813 36.409 120.606 36.4285 120.398 36.4474C120.31 36.3413 120.221 36.2361 120.127 36.1357C118.822 34.7386 117.146 34.0579 115.14 34.1168C111.267 34.2278 107.412 37.0243 104.285 41.9906C102.084 45.486 100.412 49.877 99.9362 53.2755C95.4903 54.6523 92.3797 55.6157 92.3125 55.6367C90.0683 56.341 89.9977 56.4115 89.7035 58.5258C89.4807 60.1264 83.6094 105.534 83.6094 105.534L132.822 114.044L154.151 108.742C154.151 108.742 145.449 49.9081 145.394 49.5046ZM102.693 52.4216C104.024 46.1995 109.237 36.8649 115.214 36.693C116.123 36.674 116.889 36.8735 117.543 37.3039C116.497 37.847 115.485 38.6276 114.536 39.6454C112.076 42.2841 110.192 46.3812 109.441 50.332C107.096 51.0581 104.803 51.7682 102.693 52.4216ZM120.489 46.911C117.911 47.7092 115.097 48.5808 112.273 49.4551C113.068 46.4143 114.573 43.3867 116.422 41.4033C117.11 40.6655 118.072 39.8421 119.211 39.3721C120.283 41.6056 120.515 44.7719 120.489 46.911ZM123.064 46.1139C123.035 44.1529 122.801 41.4255 121.887 39.0677C124.826 39.6244 126.272 42.949 126.883 44.9313C125.751 45.2818 124.461 45.6811 123.064 46.1139Z" fill="#95BF47"/>
<path d="M144.695 48.8523C144.403 48.828 138.713 48.7415 138.713 48.7415C138.713 48.7415 133.955 44.12 133.485 43.6497C133.31 43.4742 133.072 43.3844 132.824 43.3457L132.825 114.042L154.152 108.741C154.152 108.741 145.45 49.907 145.395 49.5035C145.34 49.0999 144.986 48.8767 144.695 48.8523Z" fill="#5E8E3E"/>
<path d="M121.002 59.8207L118.525 69.0878C118.525 69.0878 115.761 67.8295 112.485 68.0364C107.682 68.3397 107.631 71.3697 107.679 72.1291C107.94 76.2738 118.844 77.1794 119.457 86.8869C119.939 94.5244 115.406 99.7486 108.874 100.161C101.035 100.656 96.7192 96.0307 96.7192 96.0307L98.3801 88.9642C98.3801 88.9642 102.724 92.2413 106.201 92.0219C108.472 91.8784 109.283 90.0312 109.201 88.7249C108.859 83.3183 99.9809 83.6368 99.42 74.7534C98.9479 67.2767 103.857 59.7025 114.691 59.0184C118.865 58.7551 121.002 59.8207 121.002 59.8207Z" fill="white"/>
<defs>
<filter id="filter0_d_5015_2734" x="0.200954" y="0.200954" width="237.36" height="163.831" filterUnits="userSpaceOnUse" color-interpolation-filters="sRGB">
<feFlood flood-opacity="0" result="BackgroundImageFix"/>
<feColorMatrix in="SourceAlpha" type="matrix" values="0 0 0 0 0 0 0 0 0 0 0 0 0 0 0 0 0 0 127 0" result="hardAlpha"/>
<feOffset/>
<feGaussianBlur stdDeviation="3.89952"/>
<feComposite in2="hardAlpha" operator="out"/>
<feColorMatrix type="matrix" values="0 0 0 0 0.223529 0 0 0 0 0.419608 0 0 0 0 0.858824 0 0 0 1 0"/>
<feBlend mode="normal" in2="BackgroundImageFix" result="effect1_dropShadow_5015_2734"/>
<feBlend mode="normal" in="SourceGraphic" in2="effect1_dropShadow_5015_2734" result="shape"/>
</filter>
</defs>
</svg>
