<svg width="238" height="165" viewBox="0 0 238 165" fill="none" xmlns="http://www.w3.org/2000/svg">
<g filter="url(#filter0_d_5015_2774)">
<rect x="8" y="8" width="221.762" height="148.232" rx="10.0633" fill="#111616"/>
</g>
<path d="M170.661 77.6156C168.316 77.6156 166.373 78.4487 164.984 79.9914L165.262 78.603C165.354 78.171 165.046 77.8008 164.614 77.8008C164.182 77.8008 163.719 78.171 163.657 78.603L159.585 99.7382C159.492 100.17 159.801 100.54 160.232 100.54C160.664 100.54 161.127 100.17 161.189 99.7382L162.701 91.8704C163.256 92.8885 164.552 94.2461 167.452 94.2461C169.736 94.2461 171.618 93.5365 173.099 92.1789C174.641 90.7596 175.691 88.6306 176.215 85.8846C176.74 83.1386 176.524 81.0405 175.536 79.6212C174.58 78.2944 172.945 77.6156 170.661 77.6156ZM167.73 92.796C164.274 92.796 162.917 90.4202 163.781 85.9155C164.645 81.3799 166.835 79.0658 170.26 79.0658C174.024 79.0658 175.413 81.3182 174.518 85.9155C173.623 90.6362 171.463 92.796 167.73 92.796ZM205.804 85.0515C203.768 84.2802 201.824 83.5705 202.194 81.6576C202.38 80.7011 203.151 79.0966 206.298 79.0966C208.057 79.0966 209.168 79.5903 210.124 80.7936C210.309 81.0096 210.525 81.0096 210.587 81.0096C211.019 80.9788 211.389 80.6702 211.482 80.2691C211.512 80.084 211.482 79.8988 211.389 79.7446V79.7137C210.402 78.3253 208.797 77.6156 206.576 77.6156C203.367 77.6156 201.053 79.1583 200.59 81.6576C200.004 84.6504 202.657 85.6378 205.002 86.5325C207.008 87.3039 208.921 88.0136 208.581 89.834C208.088 92.4257 205.372 92.796 203.799 92.796C201.639 92.796 200.312 92.2097 199.325 90.8213C199.202 90.667 199.047 90.6053 198.862 90.6053C198.43 90.6362 198.06 90.9447 197.967 91.3458C197.937 91.531 197.967 91.7161 198.06 91.8704C198.708 93.0737 200.652 94.3078 203.521 94.3078C207.162 94.3078 209.661 92.6417 210.186 89.8648C210.741 86.8719 208.118 85.8846 205.804 85.0515ZM200.929 73.4194H199.232L199.572 71.7224C199.664 71.2905 199.356 70.9202 198.924 70.9202C198.492 70.9202 198.06 71.2905 197.967 71.7224L197.628 73.4194H195.931C195.499 73.4194 195.067 73.7897 194.975 74.2216C194.882 74.6536 195.19 75.0239 195.622 75.0239H197.319L196.98 76.7209C196.887 77.1528 197.196 77.5231 197.628 77.5231C198.06 77.5231 198.492 77.1528 198.584 76.7209L198.924 75.0239H200.621C201.053 75.0239 201.485 74.6536 201.577 74.2216C201.67 73.8822 201.454 73.512 201.084 73.4194C201.053 73.4503 200.991 73.4194 200.929 73.4194ZM65.6021 89.834C66.4352 90.2659 67.9162 90.8522 69.3355 90.8213C70.6314 90.8213 71.3102 90.1116 71.3102 89.2786C71.3102 88.4455 70.8165 87.8901 69.4281 87.0879C67.7002 86.1006 66.4043 84.7121 66.4043 82.8917C66.4043 79.6829 69.1504 77.3996 73.1614 77.3996C74.9201 77.3996 76.2777 77.739 77.0182 78.171L75.9692 81.4107C75.0744 81.0096 74.1179 80.7936 73.1306 80.7936C71.8347 80.7936 71.0016 81.3799 71.0016 82.3055C71.0016 83.046 71.5879 83.5705 72.7603 84.1876C74.5499 85.2058 76.0309 86.5943 76.0309 88.5689C76.0309 92.2097 73.0689 94.277 68.9652 94.2461C67.0831 94.2153 65.3244 93.7216 64.4605 93.1045C64.4914 93.1045 65.6021 89.834 65.6021 89.834ZM76.9565 94.1227L81.3996 70.9202H85.966L84.2073 79.8988L84.269 79.8371C85.5032 78.387 87.0768 77.3688 89.1132 77.3688C91.4889 77.3688 92.8465 78.9115 92.8465 81.4724C92.8465 82.2746 92.7231 83.5397 92.5071 84.5579L90.7176 94.0919H86.1511L87.879 84.8356C88.0024 84.2185 88.0641 83.3854 88.0641 82.7683C88.0641 81.781 87.663 81.0405 86.6448 81.0405C85.1946 81.0405 83.6211 82.9843 83.0348 86.008L81.523 94.0919L76.9565 94.1227ZM109.384 83.7556C109.384 89.4329 105.744 94.2461 100.344 94.2461C96.2405 94.2461 94.0499 91.4075 94.0499 87.8593C94.0499 82.3364 97.6907 77.3688 103.183 77.3688C107.472 77.3688 109.384 80.4851 109.384 83.7556ZM98.7397 87.7667C98.7397 89.4329 99.3877 90.7596 100.961 90.7596C103.368 90.7596 104.725 86.44 104.725 83.6322C104.725 82.2746 104.201 80.8862 102.566 80.8862C100.097 80.8553 98.7397 85.1441 98.7397 87.7667ZM108.305 100.571L111.483 83.8482C111.853 81.9661 112.223 79.5286 112.408 77.8008H116.45L116.172 80.3925H116.234C117.468 78.6647 119.258 77.5231 121.078 77.5231C124.411 77.5231 125.768 80.2074 125.768 83.262C125.768 88.8158 122.251 94.3078 116.882 94.3078C115.771 94.3078 114.722 94.1227 114.198 93.6908H114.105L112.84 100.571H108.305ZM114.815 90.1425C115.309 90.5436 115.864 90.7905 116.697 90.7905C119.258 90.7905 121.017 86.5943 121.017 83.6322C121.017 82.3981 120.585 81.1022 119.196 81.1022C117.592 81.1022 116.111 82.9843 115.586 85.8538L114.815 90.1425ZM125.922 94.1227L129.008 77.8008H133.605L130.489 94.1227H125.922ZM131.846 76.1038C130.551 76.1038 129.687 74.993 129.687 73.6354C129.687 72.1544 130.859 70.8894 132.309 70.8894C133.698 70.8894 134.593 71.9693 134.593 73.296C134.562 74.993 133.327 76.0729 131.908 76.0729C131.908 76.1038 131.846 76.1038 131.846 76.1038ZM134.469 94.1227L136.876 81.2256H134.747L135.395 77.8008H137.524L137.647 76.9677C138.017 75.0547 138.727 73.08 140.301 71.7842C141.535 70.7351 143.139 70.2414 144.774 70.2414C145.885 70.2414 146.718 70.3957 147.243 70.6425L146.348 74.2216C145.885 74.0674 145.392 73.9748 144.898 73.9748C143.386 73.9748 142.46 75.425 142.183 76.9985L142.028 77.8316H145.206L144.589 81.2564H141.442L139.036 94.1536L134.469 94.1227ZM150.914 77.8008L151.655 85.1132C151.809 86.4091 151.933 87.6742 152.056 88.97H152.118C152.488 88.1061 152.827 86.8411 153.475 85.0824L156.252 77.8008H161.035L155.45 89.7414C153.475 93.845 151.532 96.8379 149.464 98.7817C147.829 100.294 145.916 101.065 144.99 101.25L143.725 97.3624C144.497 97.0847 145.453 96.6836 146.317 96.0665C147.366 95.326 148.261 94.3387 148.816 93.3205C148.94 93.0737 148.971 92.9194 148.909 92.6109L146.163 77.7699C146.101 77.8008 150.914 77.8008 150.914 77.8008ZM197.196 79.3435C196.764 79.3435 196.332 79.7137 196.24 80.1457L194.697 88.1678C193.864 92.2406 191.365 92.796 188.989 92.796C184.762 92.796 184.638 90.3893 185.101 88.0136L186.922 78.603C187.014 78.171 186.706 77.8008 186.274 77.8008C185.842 77.8008 185.41 78.171 185.317 78.603L183.497 88.0136C183.126 89.9265 183.25 91.315 183.898 92.3332C184.7 93.5982 186.304 94.2461 188.711 94.2461C191.118 94.2461 192.969 93.5982 194.265 92.3332C195.283 91.315 195.962 89.8957 196.332 88.0136L197.844 80.1148C197.937 79.7137 197.628 79.3435 197.196 79.3435ZM182.602 70.9511C182.17 70.9511 181.707 71.3213 181.645 71.7533L177.511 93.2588C177.418 93.6908 177.727 94.061 178.159 94.061C178.591 94.061 179.023 93.6908 179.115 93.2588L183.25 71.7533C183.342 71.3213 183.034 70.9511 182.602 70.9511ZM48.8482 67.5571L47.7374 67.8965C47.614 67.4337 47.4289 67.0017 47.2129 66.5698C46.4107 65.0579 45.2691 64.2557 43.8806 64.2557C43.7881 64.2557 43.6955 64.2557 43.6029 64.2865C43.5721 64.2248 43.5104 64.194 43.4795 64.1323C42.8624 63.4843 42.0911 63.1758 41.1654 63.1758C39.345 63.2375 37.5555 64.5334 36.1053 66.8475C35.0871 68.4827 34.2849 70.5191 34.0689 72.1236L30.5207 73.2343C29.4716 73.5737 29.4408 73.6046 29.3174 74.5919C29.2248 75.3324 26.4788 96.5294 26.4788 96.5294L49.2184 100.448V67.5262C49.0333 67.5262 48.9407 67.5262 48.8482 67.5571ZM43.6029 69.1924L39.777 70.3957C40.1472 68.9764 40.8569 67.5571 41.7208 66.6315C42.0294 66.2921 42.4922 65.891 43.0167 65.675C43.5104 66.724 43.6029 68.1742 43.6029 69.1924ZM41.1346 64.41C41.5048 64.3791 41.9059 64.5025 42.2145 64.6876C41.69 64.9653 41.2272 65.3356 40.826 65.7675C39.6844 67.0017 38.7897 68.9147 38.4503 70.766L35.2723 71.7533C35.9202 68.853 38.3268 64.5025 41.1346 64.41ZM37.6172 80.9479C37.7406 82.8917 42.8316 83.2928 43.1093 87.8284C43.3253 91.4075 41.2272 93.845 38.1726 94.0302C34.5009 94.277 32.4954 92.1172 32.4954 92.1172L33.2667 88.8158C33.2667 88.8158 35.3031 90.3585 36.9075 90.2351C37.9566 90.1734 38.3577 89.3094 38.296 88.6923C38.1417 86.1623 34.0072 86.3166 33.7295 82.1821C33.5136 78.6955 35.7968 75.1473 40.8569 74.8387C42.8007 74.7153 43.7881 75.209 43.7881 75.209L42.6465 79.5286C42.6465 79.5286 41.3506 78.9424 39.8387 79.0349C37.6172 79.1892 37.5863 80.6085 37.6172 80.9479ZM44.8063 68.8221C44.8063 67.8965 44.6828 66.6315 44.2509 65.5207C45.6085 65.7675 46.2873 67.3411 46.5958 68.2668C46.565 68.2668 44.8063 68.8221 44.8063 68.8221ZM49.8664 100.386L59.3078 98.0412C59.3078 98.0412 55.235 70.5808 55.235 70.3957C55.2042 70.2414 55.0808 70.118 54.8956 70.0872C54.7722 70.0872 52.1187 70.0254 52.1187 70.0254C52.1187 70.0254 50.5143 68.4519 49.8972 67.8656V100.386H49.8664Z" fill="white"/>
<path d="M55.4104 70.2401C55.3843 70.0498 55.2176 69.9445 55.0801 69.933C54.9427 69.9215 52.259 69.8807 52.259 69.8807C52.259 69.8807 50.0145 67.7009 49.7928 67.479C49.5711 67.2572 49.1379 67.3245 48.9698 67.3739C48.9673 67.3747 48.5486 67.5043 47.842 67.7231C47.7241 67.3401 47.5501 66.8696 47.3023 66.3969C46.5031 64.8723 45.3331 64.0654 43.9189 64.0633C43.9173 64.0633 43.9158 64.0633 43.9141 64.0633C43.8161 64.0633 43.7184 64.0725 43.6206 64.0814C43.5791 64.0314 43.537 63.9817 43.4928 63.9344C42.8771 63.2754 42.0865 62.9544 41.1402 62.9821C39.3135 63.0345 37.4952 64.3535 36.0204 66.696C34.9822 68.3447 34.1935 70.4158 33.9692 72.0188C31.8722 72.6681 30.4051 73.1225 30.3733 73.1325C29.3148 73.4647 29.2815 73.4979 29.1427 74.4952C29.0376 75.2502 26.2683 96.6675 26.2683 96.6675L49.4806 100.681L59.5409 98.1809C59.5409 98.1809 55.4364 70.4305 55.4104 70.2401ZM35.2696 71.616C35.8973 68.6812 38.3564 64.2783 41.1753 64.1973C41.6042 64.1883 41.9654 64.2824 42.2738 64.4854C41.7805 64.7416 41.3032 65.1097 40.8556 65.5898C39.6954 66.8344 38.8067 68.7669 38.4523 70.6304C37.3463 70.9728 36.2647 71.3078 35.2696 71.616ZM43.6635 69.0168C42.4475 69.3933 41.12 69.8044 39.7882 70.2168C40.1632 68.7825 40.8729 67.3545 41.745 66.419C42.0694 66.071 42.5233 65.6826 43.0607 65.4609C43.5663 66.5144 43.6758 68.0079 43.6635 69.0168ZM44.8778 68.6408C44.8643 67.7159 44.7539 66.4294 44.323 65.3173C45.7089 65.5799 46.3913 67.148 46.6793 68.083C46.1452 68.2484 45.5368 68.4367 44.8778 68.6408Z" fill="#95BF47"/>
<path d="M55.0805 69.9333C54.9431 69.9218 52.2594 69.881 52.2594 69.881C52.2594 69.881 50.0149 67.7012 49.7932 67.4793C49.7105 67.3965 49.5984 67.3542 49.4816 67.3359L49.4822 100.682L59.5413 98.1812C59.5413 98.1812 55.4369 70.4307 55.4108 70.2404C55.3847 70.05 55.218 69.9448 55.0805 69.9333Z" fill="#5E8E3E"/>
<path d="M43.9055 75.1071L42.7369 79.4782C42.7369 79.4782 41.4336 78.8847 39.8884 78.9823C37.6227 79.1253 37.5986 80.5545 37.6212 80.9127C37.7446 82.8676 42.8875 83.2948 43.1765 87.8735C43.404 91.4759 41.2658 93.94 38.1848 94.1346C34.4877 94.368 32.4519 92.1864 32.4519 92.1864L33.2353 88.8533C33.2353 88.8533 35.2841 90.3991 36.9241 90.2955C37.9953 90.2279 38.378 89.3566 38.3392 88.7404C38.1781 86.1903 33.9904 86.3405 33.7258 82.1505C33.5031 78.6239 35.8188 75.0514 40.9285 74.7287C42.8972 74.6045 43.9055 75.1071 43.9055 75.1071Z" fill="white"/>
<defs>
<filter id="filter0_d_5015_2774" x="0.200954" y="0.200954" width="237.36" height="163.831" filterUnits="userSpaceOnUse" color-interpolation-filters="sRGB">
<feFlood flood-opacity="0" result="BackgroundImageFix"/>
<feColorMatrix in="SourceAlpha" type="matrix" values="0 0 0 0 0 0 0 0 0 0 0 0 0 0 0 0 0 0 127 0" result="hardAlpha"/>
<feOffset/>
<feGaussianBlur stdDeviation="3.89952"/>
<feComposite in2="hardAlpha" operator="out"/>
<feColorMatrix type="matrix" values="0 0 0 0 0.223529 0 0 0 0 0.419608 0 0 0 0 0.858824 0 0 0 1 0"/>
<feBlend mode="normal" in2="BackgroundImageFix" result="effect1_dropShadow_5015_2774"/>
<feBlend mode="normal" in="SourceGraphic" in2="effect1_dropShadow_5015_2774" result="shape"/>
</filter>
</defs>
</svg>
