<svg width="238" height="165" viewBox="0 0 238 165" fill="none" xmlns="http://www.w3.org/2000/svg">
<g filter="url(#filter0_d_5015_2740)">
<rect x="8" y="8" width="221.762" height="148.232" rx="10.0633" fill="#111616"/>
</g>
<path d="M168.046 101.381H69.6219C63.5057 101.381 58.6128 96.4877 58.6128 90.3715V52.7334C58.6128 46.7113 63.5057 41.8184 69.6219 41.8184H168.14C174.162 41.8184 179.149 46.7113 179.149 52.8275V90.4656C179.055 96.4877 174.162 101.381 168.046 101.381Z" fill="#7F54B3"/>
<path d="M71.5979 89.7149C71.5979 89.7149 74.2325 100.818 79.596 93.3846C84.9594 85.9511 90.1346 74.2833 90.1346 74.2833C90.1346 74.2833 90.511 71.3663 92.0165 77.7648C93.5221 84.1633 100.015 92.8201 100.015 92.8201C100.015 92.8201 105.943 100.254 108.389 92.4437C107.448 82.0932 111.024 63.2742 114.693 54.241C116.199 46.2429 107.825 48.5012 107.072 50.3831C106.319 52.265 101.144 64.3092 100.767 76.918C100.767 76.918 96.3449 64.8738 95.9685 60.5454C95.5922 56.1229 90.9815 54.9938 88.3468 59.2281C85.7122 63.4623 77.7141 79.8349 77.7141 79.8349L72.5388 53.1119C72.5388 53.1119 67.3636 46.2429 64.3525 54.6174C64.3525 54.6174 69.716 87.4566 71.5979 89.7149ZM140.476 60.5454C132.477 47.1839 120.621 57.3462 120.621 57.3462C120.621 57.3462 111.588 67.7907 115.634 81.9991C122.127 96.0193 131.254 89.809 133.701 88.6799C136.241 87.4566 146.968 75.2243 140.476 60.5454ZM134.359 72.3073C134.359 77.8589 129.749 83.0342 125.985 81.905C123.915 80.6818 122.597 77.3884 122.597 71.7427C124.479 62.6155 128.62 61.3923 130.784 61.5804C134.83 63.7446 134.642 68.5435 134.359 72.3073ZM170.492 60.5454C162.494 47.1839 150.638 57.3462 150.638 57.3462C150.638 57.3462 141.605 67.7907 145.651 81.9991C152.143 96.0193 161.271 89.809 163.717 88.6799C166.164 87.4566 176.985 75.2243 170.492 60.5454ZM164.376 72.3073C164.376 77.8589 159.765 83.0342 156.001 81.905C153.931 80.6818 152.614 77.3884 152.614 71.7427C154.496 62.6155 158.636 61.3923 160.8 61.5804C164.752 63.7446 164.564 68.5435 164.376 72.3073Z" fill="white"/>
<path d="M116.293 101.378L137.276 113.704L132.854 101.378L120.81 97.9902L116.293 101.378Z" fill="#7F54B3"/>
<defs>
<filter id="filter0_d_5015_2740" x="0.200954" y="0.200954" width="237.36" height="163.831" filterUnits="userSpaceOnUse" color-interpolation-filters="sRGB">
<feFlood flood-opacity="0" result="BackgroundImageFix"/>
<feColorMatrix in="SourceAlpha" type="matrix" values="0 0 0 0 0 0 0 0 0 0 0 0 0 0 0 0 0 0 127 0" result="hardAlpha"/>
<feOffset/>
<feGaussianBlur stdDeviation="3.89952"/>
<feComposite in2="hardAlpha" operator="out"/>
<feColorMatrix type="matrix" values="0 0 0 0 0.223529 0 0 0 0 0.419608 0 0 0 0 0.858824 0 0 0 1 0"/>
<feBlend mode="normal" in2="BackgroundImageFix" result="effect1_dropShadow_5015_2740"/>
<feBlend mode="normal" in="SourceGraphic" in2="effect1_dropShadow_5015_2740" result="shape"/>
</filter>
</defs>
</svg>
