<svg width="238" height="165" viewBox="0 0 238 165" fill="none" xmlns="http://www.w3.org/2000/svg">
<g filter="url(#filter0_d_5015_2759)">
<rect x="8" y="8" width="221.762" height="148.232" rx="10.0633" fill="#111616"/>
</g>
<circle cx="111.877" cy="78.1018" r="41.926" fill="white"/>
<path d="M94.3835 61.3617H89.5626L102.706 98.5142L110.064 77.4878L104.359 61.3617H99.2724V57.8216H121.797V61.3617H116.522L129.665 98.5142L134.39 85.0132C140.587 67.7159 129.31 62.3277 129.31 58.4674C129.31 54.6071 132.44 51.4779 136.3 51.4779C136.509 51.4779 136.711 51.4892 136.91 51.5077C130.369 45.3333 121.55 41.5469 111.845 41.5469C99.1648 41.5469 87.9951 48.0105 81.4473 57.8216H94.3831V61.3617H94.3835Z" fill="#00769D"/>
<path d="M75.3186 78.0694C75.3186 92.052 83.1777 104.197 94.7182 110.334L78.2365 63.7441C76.359 68.1427 75.3186 72.9844 75.3186 78.0694Z" fill="#00769D"/>
<path d="M143.624 60.0723C144.146 63.1483 143.988 66.6055 143.186 70.0762H143.332L142.78 71.6542C142.452 72.7936 142.04 73.9591 141.572 75.1044L129.005 110.311C140.522 104.166 148.361 92.0339 148.361 78.069C148.361 71.5253 146.638 65.3844 143.624 60.0723Z" fill="#00769D"/>
<path d="M100.578 112.819C104.126 113.968 107.911 114.592 111.842 114.592C115.592 114.592 119.209 114.026 122.614 112.976L111.931 82.7773L100.578 112.819Z" fill="#00769D"/>
<path d="M142.706 47.2044C134.462 38.9602 123.501 34.4199 111.842 34.4199C100.183 34.4199 89.2213 38.9602 80.9771 47.2044C72.7329 55.4486 68.1926 66.4098 68.1926 78.0692C68.1926 89.7283 72.7329 100.69 80.9771 108.934C89.2213 117.178 100.183 121.718 111.842 121.718C123.501 121.718 134.462 117.178 142.707 108.934C150.951 100.69 155.491 89.7281 155.491 78.0692C155.491 66.4098 150.951 55.4486 142.706 47.2044ZM111.842 118.639C89.4713 118.639 71.2717 100.44 71.2717 78.0692C71.2717 55.6988 89.4713 37.499 111.842 37.499C134.212 37.499 152.412 55.6988 152.412 78.0692C152.412 100.44 134.212 118.639 111.842 118.639Z" fill="#00769D"/>
<defs>
<filter id="filter0_d_5015_2759" x="0.200954" y="0.200954" width="237.36" height="163.831" filterUnits="userSpaceOnUse" color-interpolation-filters="sRGB">
<feFlood flood-opacity="0" result="BackgroundImageFix"/>
<feColorMatrix in="SourceAlpha" type="matrix" values="0 0 0 0 0 0 0 0 0 0 0 0 0 0 0 0 0 0 127 0" result="hardAlpha"/>
<feOffset/>
<feGaussianBlur stdDeviation="3.89952"/>
<feComposite in2="hardAlpha" operator="out"/>
<feColorMatrix type="matrix" values="0 0 0 0 0.223529 0 0 0 0 0.419608 0 0 0 0 0.858824 0 0 0 1 0"/>
<feBlend mode="normal" in2="BackgroundImageFix" result="effect1_dropShadow_5015_2759"/>
<feBlend mode="normal" in="SourceGraphic" in2="effect1_dropShadow_5015_2759" result="shape"/>
</filter>
</defs>
</svg>
