<svg width="66" height="59" viewBox="0 0 66 59" fill="none" xmlns="http://www.w3.org/2000/svg">
<path d="M4.82422 50.3233C4.82422 52.3184 6.44737 53.9415 8.44245 53.9415C10.4375 53.9415 12.0606 52.3184 12.0606 50.3233C12.0606 48.3282 10.4374 46.7051 8.44245 46.7051C6.44737 46.7051 4.82422 48.3282 4.82422 50.3233ZM10.1469 50.3233C10.1469 51.2632 9.38244 52.0277 8.44258 52.0277C7.50272 52.0277 6.73815 51.2632 6.73815 50.3233C6.73815 49.3834 7.50272 48.6189 8.44258 48.6189C9.38231 48.6189 10.1469 49.3834 10.1469 50.3233Z" fill="white"/>
<path d="M62.6131 31.0352C63.4284 30.1846 63.9301 29.031 63.9301 27.7625V26.3683C63.9301 23.7585 61.8069 21.6354 59.1971 21.6354H42.6523C41.2496 21.6354 40.1084 20.4943 40.1084 19.0916V6.52694C40.1084 2.928 37.1804 0 33.5815 0C32.6121 0 31.7599 0.653839 31.5093 1.5901L27.195 17.6913C27.0583 18.2018 27.3612 18.7266 27.8716 18.8633C28.3824 18.9996 28.9069 18.6972 29.0436 18.1867L33.358 2.08536C33.3851 1.98428 33.4772 1.9138 33.5818 1.9138C36.1256 1.9138 38.1949 3.98322 38.1949 6.52694V19.0915C38.1949 21.5494 40.1947 23.5491 42.6525 23.5491H59.1975C60.7519 23.5491 62.0167 24.8137 62.0167 26.3682V27.7624C62.0167 29.3168 60.7521 30.5815 59.1976 30.5815C58.3911 30.5815 52.4453 30.5815 51.4792 30.5815C50.9507 30.5815 50.5224 31.0099 50.5224 31.5383C50.5224 32.0668 50.9507 32.4952 51.4792 32.4952H60.5918C62.1462 32.4952 63.4109 33.7598 63.4109 35.3142V36.7085C63.4109 38.2628 62.1463 39.5275 60.5918 39.5275H51.4792C50.9507 39.5275 50.5224 39.9559 50.5224 40.4844C50.5224 41.0128 50.9507 41.4412 51.4792 41.4412H59.1976C60.7519 41.4412 62.0167 42.7058 62.0167 44.2603V45.6544C62.0167 47.2087 60.7521 48.4734 59.1975 48.4734C58.7246 48.4734 57.1544 48.4734 51.4792 48.4734C50.9507 48.4734 50.5224 48.9018 50.5224 49.4303C50.5224 49.9587 50.9507 50.3871 51.4792 50.3871C53.2826 50.378 52.0568 50.3871 55.6491 50.3871C56.7812 50.3871 57.7022 51.3082 57.7022 52.4402V54.9864C57.7022 56.1185 56.7811 57.0394 55.6491 57.0394H37.7295C35.0173 57.0394 32.4348 56.1866 30.2615 54.5733C28.7481 53.4498 26.8412 52.8309 24.8923 52.8309H16.8857V40.294C16.8857 39.7656 16.4575 39.3372 15.9289 39.3372C15.4003 39.3372 14.9721 39.7656 14.9721 40.294V56.2837C14.9721 56.3277 14.9363 56.3635 14.8923 56.3635H1.99354C1.94956 56.3635 1.9138 56.3276 1.9138 56.2837V32.575C1.9138 32.531 1.94956 32.4953 1.99354 32.4953H14.9719V35.8289C14.9719 36.3574 15.4002 36.7857 15.9288 36.7857C16.4573 36.7857 16.8856 36.3574 16.8856 35.8289V32.4953H19.7682C22.9719 32.4953 25.7887 30.334 26.6177 27.2396L27.8596 22.6045C27.9965 22.0941 27.6935 21.5693 27.183 21.4325C26.6723 21.2959 26.1478 21.5988 26.011 22.1092L24.7691 26.7444C24.1637 29.0036 22.1073 30.5815 19.7682 30.5815C18.0517 30.5815 3.70491 30.5815 1.99354 30.5815C0.894334 30.5816 0 31.4758 0 32.5752V56.284C0 57.3833 0.894334 58.2775 1.99354 58.2775H14.8922C15.9914 58.2775 16.8857 57.3832 16.8857 56.284V54.7453H24.8923C26.4331 54.7453 27.935 55.2302 29.1208 56.1105C31.6265 57.9706 34.6034 58.9538 37.7296 58.9538H55.6489C57.8364 58.9538 59.6158 57.1742 59.6158 54.9869V52.4407C59.6158 51.6898 59.4061 50.9868 59.0422 50.3876H59.1975C61.8073 50.3876 63.9305 48.2644 63.9305 45.6548V44.2607C63.9305 42.9922 63.4286 41.8386 62.6135 40.9879C64.2147 40.2282 65.3247 38.5956 65.3247 36.7087V35.3145C65.3244 33.4274 64.2144 31.7948 62.6131 31.0352Z" fill="white"/>
</svg>
