<svg width="39" height="67" viewBox="0 0 39 67" fill="none" xmlns="http://www.w3.org/2000/svg">
<path d="M23.6378 43.1043C23.6378 40.8101 21.7606 38.9329 19.4664 38.9329C18.7016 38.9329 18.0759 38.3072 18.0759 37.5424C18.0759 36.7777 18.7016 36.152 19.4664 36.152C19.9252 36.152 20.3563 36.3883 20.6204 36.7638C21.0515 37.4034 21.9136 37.5702 22.5532 37.1392C23.1928 36.7081 23.3597 35.8461 22.9286 35.2064C22.4281 34.4556 21.6911 33.9272 20.8568 33.6352V32.8426C20.8568 32.0779 20.2311 31.4521 19.4664 31.4521C18.7016 31.4521 18.0759 32.0779 18.0759 32.8426V33.6213C16.4629 34.1914 15.2949 35.7209 15.2949 37.5424C15.2949 39.8367 17.1721 41.7139 19.4664 41.7139C20.2311 41.7139 20.8568 42.3396 20.8568 43.1043C20.8568 43.8691 20.2311 44.4948 19.4664 44.4948C18.9658 44.4948 18.5069 44.2306 18.2566 43.7996C17.8673 43.1322 17.0191 42.9097 16.3517 43.299C15.6843 43.6883 15.4618 44.5365 15.8511 45.204C16.3517 46.0661 17.1582 46.6779 18.0759 47.0116V47.8042C18.0759 48.5689 18.7016 49.1946 19.4664 49.1946C20.2311 49.1946 20.8568 48.5689 20.8568 47.8042V47.0255C22.4698 46.4554 23.6378 44.9259 23.6378 43.1043Z" fill="white"/>
<path d="M37.5429 55.6191H35.3181C32.5372 41.9924 30.7712 31.4665 30.6044 22.2476H31.981C32.7457 22.2476 33.3714 21.6219 33.3714 20.8572V15.2952C33.3714 14.5305 32.7457 13.9048 31.981 13.9048H30.8964L33.3436 1.66857C33.4271 1.26533 33.3158 0.834286 33.0516 0.514476C32.7874 0.180762 32.3981 0 31.981 0H22.2476C21.4829 0 20.8572 0.625715 20.8572 1.39048V5.56191H18.0762V1.39048C18.0762 0.625715 17.4505 0 16.6857 0H6.95238C6.53524 0 6.14591 0.180762 5.88172 0.514476C5.61753 0.834286 5.50629 1.25143 5.58972 1.66857L8.03696 13.9048H6.95238C6.18762 13.9048 5.56191 14.5305 5.56191 15.2952V20.8572C5.56191 21.6219 6.18762 22.2476 6.95238 22.2476H8.32896C8.1621 31.4665 6.39619 41.9924 3.61524 55.6191H1.39048C0.625715 55.6191 0 56.2448 0 57.0095V65.3524C0 66.1172 0.625715 66.7429 1.39048 66.7429H37.5429C38.3076 66.7429 38.9333 66.1172 38.9333 65.3524V57.0095C38.9333 56.2448 38.3076 55.6191 37.5429 55.6191ZM8.34286 19.4667V16.6857H9.73334H29.2H30.5905V19.4667H8.34286ZM8.64876 2.78095H15.2952V6.95238C15.2952 7.71715 15.921 8.34286 16.6857 8.34286H22.2476C23.0124 8.34286 23.6381 7.71715 23.6381 6.95238V2.78095H30.2846L28.0598 13.9048H10.8735L8.64876 2.78095ZM11.1099 22.2476H27.8234C27.9764 31.5638 29.7284 42.0758 32.4676 55.6191H6.45181C9.20496 42.0758 10.9431 31.5638 11.1099 22.2476ZM36.1524 63.9619H2.78095V58.4H36.1524V63.9619Z" fill="white"/>
</svg>
