<svg width="61" height="70" viewBox="0 0 61 70" fill="none" xmlns="http://www.w3.org/2000/svg">
<path d="M19.2445 13.7638C17.1343 14.5609 15.6223 16.585 15.6223 18.9704C15.6223 19.889 15.867 20.7439 16.262 21.5094C14.5882 22.1529 13.3906 23.7667 13.3906 25.6655C13.3906 27.5649 14.5882 29.1782 16.262 29.8222C15.867 30.5877 15.6223 31.4426 15.6223 32.3607C15.6223 34.7466 17.1343 36.7707 19.2445 37.5673C19.0773 38.0348 18.9699 38.5317 18.9699 39.0558C18.9699 41.5175 20.9717 43.5193 23.4333 43.5193C23.9891 43.5193 24.516 43.4043 25.0069 43.219C25.7299 44.7114 27.2462 45.751 29.0126 45.751C31.4743 45.751 33.4761 43.7492 33.4761 41.2875V10.0435C33.4761 7.58241 31.4743 5.58008 29.0126 5.58008C27.2462 5.58008 25.7299 6.6202 25.0069 8.11201C24.516 7.92676 23.9891 7.81179 23.4333 7.81179C20.9717 7.81179 18.9699 9.81413 18.9699 12.2752C18.9699 12.7999 19.0773 13.2963 19.2445 13.7638ZM23.4333 10.0435C24.6642 10.0435 25.6651 11.0444 25.6651 12.2752H27.8968C27.8968 11.203 27.5007 10.2298 26.8681 9.45997C27.1269 8.51411 27.985 7.81179 29.0126 7.81179C30.2435 7.81179 31.2444 8.81269 31.2444 10.0435V41.2875C31.2444 42.5184 30.2435 43.5193 29.0126 43.5193C27.985 43.5193 27.1269 42.8175 26.8681 41.8711C27.5007 41.1012 27.8968 40.1286 27.8968 39.0558H25.6651C25.6651 40.2866 24.6642 41.2875 23.4333 41.2875C22.2025 41.2875 21.2016 40.2866 21.2016 39.0558C21.2016 37.825 22.2025 36.8241 23.4333 36.8241V34.5924C22.3464 34.5924 21.3624 34.9988 20.5881 35.6461C19.0348 35.3568 17.8541 33.9969 17.8541 32.3607C17.8541 30.5153 19.3562 29.0131 21.2016 29.0131C23.0476 29.0131 24.5492 30.5153 24.5492 32.3607H26.7809C26.7809 29.2844 24.2784 26.7814 21.2016 26.7814C19.9408 26.7814 18.789 27.2178 17.8541 27.9267V27.8972C16.6232 27.8972 15.6223 26.8963 15.6223 25.6655C15.6223 24.4347 16.6232 23.4338 17.8541 23.4338V23.4049C18.789 24.1138 19.9408 24.5497 21.2016 24.5497C24.2784 24.5497 26.7809 22.0472 26.7809 18.9704H24.5492C24.5492 20.8163 23.0476 22.3179 21.2016 22.3179C19.3562 22.3179 17.8541 20.8163 17.8541 18.9704C17.8541 17.3347 19.0348 15.9748 20.5881 15.6855C21.3624 16.3327 22.3464 16.7387 23.4333 16.7387V14.5069C22.2025 14.5069 21.2016 13.506 21.2016 12.2752C21.2016 11.0444 22.2025 10.0435 23.4333 10.0435Z" fill="white"/>
<path d="M45.7498 7.81204C45.194 7.81204 44.6677 7.927 44.1768 8.11225C43.4532 6.62045 41.9369 5.58032 40.1705 5.58032C37.7088 5.58032 35.707 7.58266 35.707 10.0438V41.2878C35.707 43.7494 37.7088 45.7512 40.1705 45.7512C41.9369 45.7512 43.4532 44.7116 44.1768 43.2193C44.6677 43.4045 45.194 43.5195 45.7498 43.5195C48.2114 43.5195 50.2132 41.5177 50.2132 39.0561C50.2132 38.5319 50.1064 38.035 49.9386 37.5675C52.0488 36.771 53.5608 34.7468 53.5608 32.3609C53.5608 31.4428 53.3167 30.588 52.9216 29.8224C54.5954 29.1784 55.7925 27.5651 55.7925 25.6658C55.7925 23.767 54.5954 22.1531 52.9216 21.5096C53.3167 20.7441 53.5608 19.8892 53.5608 18.9706C53.5608 16.5853 52.0488 14.5611 49.9386 13.764C50.1064 13.2965 50.2132 12.8002 50.2132 12.2755C50.2132 9.81437 48.2114 7.81204 45.7498 7.81204ZM51.329 18.9706C51.329 20.8166 49.8274 22.3182 47.9815 22.3182C46.1361 22.3182 44.6339 20.8166 44.6339 18.9706H42.4022C42.4022 22.0474 44.9052 24.5499 47.9815 24.5499C49.2423 24.5499 50.3941 24.114 51.329 23.4052V23.4341C52.5599 23.4341 53.5608 24.4349 53.5608 25.6658C53.5608 26.8966 52.5599 27.8975 51.329 27.8975V27.9269C50.3941 27.2181 49.2423 26.7816 47.9815 26.7816C44.9052 26.7816 42.4022 29.2847 42.4022 32.3609H44.6339C44.6339 30.5155 46.1361 29.0133 47.9815 29.0133C49.8274 29.0133 51.329 30.5155 51.329 32.3609C51.329 33.9971 50.1483 35.3571 48.5955 35.6464C47.8207 34.9991 46.8367 34.5926 45.7498 34.5926V36.8243C46.9806 36.8243 47.9815 37.8252 47.9815 39.0561C47.9815 40.2869 46.9806 41.2878 45.7498 41.2878C44.5189 41.2878 43.518 40.2869 43.518 39.0561H41.2863C41.2863 40.1289 41.6824 41.1014 42.315 41.8713C42.0562 42.8177 41.1981 43.5195 40.1705 43.5195C38.9396 43.5195 37.9387 42.5186 37.9387 41.2878V10.0438C37.9387 8.81293 38.9396 7.81204 40.1705 7.81204C41.1981 7.81204 42.0562 8.51435 42.315 9.46022C41.6824 10.2301 41.2863 11.2032 41.2863 12.2755H43.518C43.518 11.0446 44.5189 10.0438 45.7498 10.0438C46.9806 10.0438 47.9815 11.0446 47.9815 12.2755C47.9815 13.5063 46.9806 14.5072 45.7498 14.5072V16.7389C46.8367 16.7389 47.8207 16.333 48.5955 15.6857C50.1483 15.975 51.329 17.335 51.329 18.9706Z" fill="white"/>
<path d="M52.1631 6.9598C46.9489 2.05885 40.1197 -0.398436 32.9527 0.0527023L33.0911 2.27951C39.6397 1.87251 45.8728 4.11185 50.6354 8.58564C55.4001 13.0632 58.0247 19.1302 58.0247 25.6657C58.0247 33.5415 54.099 40.8447 47.5232 45.2025C45.2549 46.7062 43.5387 48.8513 42.4811 51.3304H26.6559C25.5836 48.8334 23.8608 46.673 21.5887 45.1556C14.8119 40.6262 10.9178 33.062 11.1711 24.9181L8.94052 24.8489C8.66265 33.7671 12.9283 42.0521 20.3492 47.0103C21.9881 48.106 23.2968 49.5978 24.2089 51.3304H21.2013V53.5621H25.0992C25.3155 54.2851 25.4888 55.0261 25.5765 55.7938H23.4331V58.0256H25.6648V61.3731C25.6648 61.9905 26.1649 62.489 26.7806 62.489H27.8965C27.8965 66.1815 30.8992 69.1841 34.5916 69.1841C38.2841 69.1841 41.2868 66.1815 41.2868 62.489H42.4026C43.0189 62.489 43.5185 61.9905 43.5185 61.3731V58.0256H45.7502V55.7938H43.597C43.676 55.0272 43.8334 54.2841 44.0454 53.5621H47.9819V51.3304H44.9259C45.8249 49.6169 47.126 48.1436 48.7567 47.0637C55.9569 42.2886 60.2564 34.2901 60.2564 25.6657C60.2564 18.6115 57.306 11.7926 52.1631 6.9598ZM34.5916 66.9524C32.13 66.9524 30.1282 64.9506 30.1282 62.489H39.0551C39.0551 64.9506 37.0533 66.9524 34.5916 66.9524ZM41.2868 60.2573H27.8965V58.0256H41.2868V60.2573ZM41.3663 55.7938H27.8071C27.7325 55.0343 27.6121 54.2879 27.429 53.5621H41.7134C41.5358 54.2868 41.4328 55.0365 41.3663 55.7938Z" fill="white"/>
<path d="M7.81117 7.81198C10.2728 7.81198 12.2746 9.81432 12.2746 12.2754C12.2746 12.8927 12.7748 13.3913 13.3905 13.3913C14.0067 13.3913 14.5063 12.8927 14.5063 12.2754C14.5063 9.81432 16.5081 7.81198 18.9698 7.81198C19.586 7.81198 20.0856 7.31344 20.0856 6.69613C20.0856 6.07935 19.586 5.58027 18.9698 5.58027C16.5081 5.58027 14.5063 3.57848 14.5063 1.11683C14.5063 0.500062 14.0067 0.000976562 13.3905 0.000976562C12.7748 0.000976562 12.2746 0.500062 12.2746 1.11683C12.2746 3.57848 10.2728 5.58027 7.81117 5.58027C7.19549 5.58027 6.69531 6.07935 6.69531 6.69613C6.69531 7.31344 7.19549 7.81198 7.81117 7.81198ZM13.3905 4.81366C13.8863 5.55902 14.5276 6.20085 15.2729 6.69613C14.5276 7.19194 13.8863 7.83323 13.3905 8.57859C12.8952 7.83323 12.2534 7.19194 11.508 6.69613C12.2534 6.20085 12.8952 5.55902 13.3905 4.81366Z" fill="white"/>
<path d="M12.2744 18.9702C12.8907 18.9702 13.3903 18.4716 13.3903 17.8543C13.3903 17.2376 12.8907 16.7385 12.2744 16.7385C9.81279 16.7385 7.81101 14.7367 7.81101 12.275C7.81101 11.6583 7.31138 11.1592 6.69515 11.1592C6.07946 11.1592 5.57929 11.6583 5.57929 12.275C5.57929 14.7367 3.5775 16.7385 1.11586 16.7385C0.500175 16.7385 0 17.2376 0 17.8543C0 18.4716 0.500175 18.9702 1.11586 18.9702C3.5775 18.9702 5.57929 20.9725 5.57929 23.4336C5.57929 24.0509 6.07946 24.5495 6.69515 24.5495C7.31138 24.5495 7.81101 24.0509 7.81101 23.4336C7.81101 20.9725 9.81279 18.9702 12.2744 18.9702ZM6.69515 19.7368C6.19988 18.9914 5.55804 18.3501 4.81268 17.8543C5.55804 17.3591 6.19879 16.7172 6.69515 15.9719C7.19096 16.7172 7.83226 17.358 8.57761 17.8543C7.83226 18.3501 7.19096 18.9914 6.69515 19.7368Z" fill="white"/>
</svg>
