<svg width="46" height="59" viewBox="0 0 46 59" fill="none" xmlns="http://www.w3.org/2000/svg">
<path d="M9.89748 24.8556L15.204 18.4716C15.5046 18.11 15.4551 17.5733 15.0934 17.2728C14.732 16.9723 14.1952 17.0218 13.8946 17.3833L9.34596 22.8555L8.35176 21.2406C8.10534 20.8402 7.58105 20.7153 7.18049 20.9619C6.78016 21.2085 6.65541 21.7329 6.90183 22.1331L8.5177 24.7577C8.82326 25.2537 9.52541 25.3033 9.89748 24.8556Z" fill="white"/>
<path d="M6.90192 33.3696L8.51779 35.9942C8.82312 36.4902 9.52527 36.5398 9.89734 36.092L15.2039 29.708C15.5044 29.3463 15.4549 28.8097 15.0933 28.5091C14.7319 28.2087 14.195 28.258 13.8945 28.6197L9.34582 34.0919L8.35162 32.4769C8.1052 32.0766 7.58091 31.9516 7.18035 32.1983C6.78013 32.4449 6.65539 32.9693 6.90192 33.3696Z" fill="white"/>
<path d="M6.90192 44.683L8.51779 47.3076C8.82312 47.8037 9.52527 47.8533 9.89734 47.4055L15.2039 41.0214C15.5044 40.6598 15.4549 40.1232 15.0933 39.8226C14.7319 39.5221 14.195 39.5715 13.8945 39.9331L9.34582 45.4054L8.35162 43.7904C8.1052 43.3901 7.58091 43.2652 7.18035 43.5118C6.78013 43.7584 6.65539 44.2828 6.90192 44.683Z" fill="white"/>
<path d="M44.5511 48.0588C44.081 48.0588 43.6998 48.4398 43.6998 48.9101V55.107C43.6998 55.8267 43.1142 56.4123 42.3945 56.4123H3.00791C2.28817 56.4123 1.70259 55.8267 1.70259 55.107V17.7986C1.70259 17.3283 1.32144 16.9473 0.851295 16.9473C0.381153 16.9473 0 17.3283 0 17.7986V55.107C0 56.7655 1.34936 58.1149 3.00791 58.1149H42.3945C44.053 58.1149 45.4024 56.7655 45.4024 55.107V48.9101C45.4024 48.44 45.0212 48.0588 44.5511 48.0588Z" fill="white"/>
<path d="M42.3945 6.55963H38.2302V3.04196C38.2302 1.36468 36.8656 0 35.1882 0C33.5108 0 32.1463 1.36457 32.1463 3.04196V6.55963H25.7432V3.04196C25.7432 1.36457 24.3785 0 22.7012 0C21.0239 0 19.6592 1.36457 19.6592 3.04196V6.55963H13.256V3.04196C13.256 1.36468 11.8915 0 10.2141 0C8.53679 0 7.1721 1.36457 7.1721 3.04196V6.55963H3.00791C1.34936 6.55963 0 7.90898 0 9.56753V13.8261C0 14.2963 0.381153 14.6773 0.851295 14.6773C1.32144 14.6773 1.70259 14.2963 1.70259 13.8261V9.56753C1.70259 8.84779 2.28817 8.26221 3.00791 8.26221H7.1721V9.61396C7.1721 11.2912 8.53667 12.6559 10.2141 12.6559C11.8915 12.6559 13.256 11.2913 13.256 9.61396V8.26221H19.6592V9.61396C19.6592 11.2912 21.0238 12.6559 22.7012 12.6559C24.3786 12.6559 25.7432 11.2913 25.7432 9.61396V8.26221H32.1464V9.61396C32.1464 11.2912 33.5109 12.6559 35.1883 12.6559C36.8656 12.6559 38.2303 11.2913 38.2303 9.61396V8.26221H42.3945C43.1142 8.26221 43.6998 8.84779 43.6998 9.56753V44.9376C43.6998 45.4078 44.081 45.7889 44.5511 45.7889C45.0212 45.7889 45.4024 45.4078 45.4024 44.9376V9.56753C45.4024 7.90898 44.053 6.55963 42.3945 6.55963ZM11.5535 9.61396C11.5535 10.3525 10.9528 10.9533 10.2142 10.9533C9.47571 10.9533 8.87481 10.3525 8.87481 9.61396C8.87481 7.79934 8.87481 3.60994 8.87481 3.04196C8.87481 2.30338 9.47559 1.70259 10.2142 1.70259C10.9528 1.70259 11.5535 2.30338 11.5535 3.04196V9.61396ZM24.0406 9.61396C24.0406 10.3525 23.4398 10.9533 22.7012 10.9533C21.9626 10.9533 21.3618 10.3525 21.3618 9.61396C21.3618 7.79934 21.3618 3.60994 21.3618 3.04196C21.3618 2.30338 21.9626 1.70259 22.7012 1.70259C23.4398 1.70259 24.0406 2.30338 24.0406 3.04196V9.61396ZM36.5277 9.61396C36.5277 10.3525 35.9269 10.9533 35.1883 10.9533C34.4497 10.9533 33.849 10.3525 33.849 9.61396C33.849 7.79934 33.849 3.60994 33.849 3.04196C33.849 2.30338 34.4497 1.70259 35.1883 1.70259C35.9268 1.70259 36.5277 2.30338 36.5277 3.04196V9.61396Z" fill="white"/>
<path d="M18.8139 25.5594H36.7478C38.2186 25.5594 39.4152 24.3628 39.4152 22.892C39.4152 21.4212 38.2186 20.2246 36.7478 20.2246H18.8139C17.3431 20.2246 16.1465 21.4212 16.1465 22.892C16.1465 24.3628 17.3431 25.5594 18.8139 25.5594ZM18.8139 21.9272H36.7478C37.2798 21.9272 37.7126 22.36 37.7126 22.892C37.7126 23.424 37.2798 23.8568 36.7478 23.8568H18.8139C18.2819 23.8568 17.8491 23.424 17.8491 22.892C17.8491 22.36 18.2819 21.9272 18.8139 21.9272Z" fill="white"/>
<path d="M18.8139 36.8211H36.7478C38.2186 36.8211 39.4152 35.6245 39.4152 34.1537C39.4152 32.6829 38.2186 31.4863 36.7478 31.4863H18.8139C17.3431 31.4863 16.1465 32.6829 16.1465 34.1537C16.1465 35.6245 17.3431 36.8211 18.8139 36.8211ZM18.8139 33.1889H36.7478C37.2798 33.1889 37.7126 33.6217 37.7126 34.1537C37.7126 34.6857 37.2798 35.1185 36.7478 35.1185H18.8139C18.2819 35.1185 17.8491 34.6857 17.8491 34.1537C17.8491 33.6217 18.2819 33.1889 18.8139 33.1889Z" fill="white"/>
<path d="M18.8139 48.0828H36.7478C38.2186 48.0828 39.4152 46.8862 39.4152 45.4154C39.4152 43.9446 38.2186 42.748 36.7478 42.748H18.8139C17.3431 42.748 16.1465 43.9446 16.1465 45.4154C16.1465 46.8862 17.3431 48.0828 18.8139 48.0828ZM18.8139 44.4506H36.7478C37.2798 44.4506 37.7126 44.8834 37.7126 45.4154C37.7126 45.9474 37.2798 46.3802 36.7478 46.3802H18.8139C18.2819 46.3802 17.8491 45.9474 17.8491 45.4154C17.8491 44.8834 18.2819 44.4506 18.8139 44.4506Z" fill="white"/>
</svg>
