<svg width="67" height="61" viewBox="0 0 67 61" fill="none" xmlns="http://www.w3.org/2000/svg">
<path d="M65.6965 58.3319H61.1988V40.0187C61.1988 39.4783 60.7607 39.0401 60.2202 39.0401C59.6798 39.0401 59.2416 39.4783 59.2416 40.0187V58.3319H51.6201V26.1204C51.6201 25.9406 51.7663 25.7942 51.9463 25.7942H58.9154C59.0952 25.7942 59.2416 25.9406 59.2416 26.1204V36.1043C59.2416 36.6448 59.6798 37.0829 60.2202 37.0829C60.7607 37.0829 61.1988 36.6448 61.1988 36.1043V26.1204C61.1988 24.8614 60.1746 23.837 58.9154 23.837H51.9463C50.6873 23.837 49.6629 24.8614 49.6629 26.1204V58.3321H46.4699V33.2423C46.4699 31.9833 45.4455 30.9589 44.1865 30.9589H37.2173C35.9582 30.9589 34.934 31.9833 34.934 33.2423V58.3321H31.741V40.3641C31.741 39.1051 30.7167 38.0807 29.4576 38.0807H22.4884C21.2294 38.0807 20.205 39.1051 20.205 40.3641V48.9212C20.205 49.4617 20.6432 49.8998 21.1836 49.8998C21.7241 49.8998 22.1622 49.4617 22.1622 48.9212V40.3641C22.1622 40.1842 22.3086 40.0379 22.4884 40.0379H29.4576C29.6375 40.0379 29.7838 40.1842 29.7838 40.3641V58.3319H22.1622V52.8356C22.1622 52.2952 21.7241 51.857 21.1836 51.857C20.6432 51.857 20.205 52.2952 20.205 52.8356V58.3319H17.0121V47.4859C17.0121 46.2269 15.9878 45.2025 14.7287 45.2025H7.75962C6.50062 45.2025 5.47623 46.2269 5.47623 47.4859V58.3319H0.978597C0.43815 58.3319 0 58.7701 0 59.3105C0 59.851 0.43815 60.2891 0.978597 60.2891H65.6965C66.2369 60.2891 66.6751 59.851 66.6751 59.3105C66.6751 58.7701 66.2369 58.3319 65.6965 58.3319ZM36.8911 33.2423C36.8911 33.0625 37.0375 32.9161 37.2173 32.9161H44.1865C44.3663 32.9161 44.5127 33.0625 44.5127 33.2423V58.3321H36.8911V33.2423ZM7.43342 47.4859C7.43342 47.3061 7.57982 47.1597 7.75962 47.1597H14.7288C14.9087 47.1597 15.055 47.3061 15.055 47.4859V58.3319H7.43342V47.4859Z" fill="white"/>
<path d="M10.4506 33.5199C10.5042 33.5199 10.5584 33.5179 10.6126 33.5143C17.8297 33.013 24.6164 31.438 30.7843 28.8329C39.0896 25.3251 45.9652 20.0376 51.2342 13.109L54.5325 15.4023C55.1823 15.8868 56.1723 15.3044 56.0648 14.5011L54.6978 0.883176C54.6533 0.301629 54.0383 -0.126214 53.4774 0.0338846L40.2236 3.48585C39.4323 3.66435 39.2309 4.79561 39.9114 5.23637L43.2399 7.55055C42.5777 8.591 41.1186 10.654 38.5747 13.1775C38.1909 13.5582 38.1885 14.1777 38.5691 14.5614C38.9497 14.9451 39.5693 14.9476 39.9529 14.567C43.8748 10.6767 45.3554 7.83226 45.4165 7.71313C45.64 7.27707 45.5067 6.74288 45.1044 6.46314L42.7753 4.84375L52.8647 2.21603L53.9054 12.5822L51.5744 10.9616C51.1378 10.6581 50.5393 10.7585 50.2256 11.1875C45.098 18.2034 38.3007 23.5337 30.0228 27.0299C22.5885 30.1697 15.2903 31.2272 10.4772 31.5617C10.196 31.6337 10.1108 31.1174 10.3908 31.0874C21.113 27.7785 30.0674 23.1269 37.0054 17.2619C37.4182 16.913 37.4699 16.2956 37.121 15.8828C36.7722 15.4701 36.1546 15.4182 35.742 15.7672C29.0064 21.4612 20.2829 25.9864 9.81385 29.2172C8.72669 29.5527 8.08878 30.6071 8.29702 31.7242C8.49496 32.7866 9.38705 33.5199 10.4506 33.5199Z" fill="white"/>
</svg>
